<?xml version="1.0" encoding="UTF-8"?>
<svg width="226px" height="27px" viewBox="0 0 226 27" version="1.1" xmlns="http://www.w3.org/2000/svg" xmlns:xlink="http://www.w3.org/1999/xlink">
    <!-- Generator: Sketch 52.6 (67491) - http://www.bohemiancoding.com/sketch -->
    <title>ap-northeast-3</title>
    <desc>Created with Sketch.</desc>
    <defs>
        <linearGradient x1="50%" y1="0%" x2="50%" y2="100%" id="linearGradient-1">
            <stop stop-color="#FFE4B2" offset="0%"></stop>
            <stop stop-color="#F79800" offset="100%"></stop>
        </linearGradient>
        <linearGradient x1="45.0169613%" y1="100%" x2="68.0818257%" y2="3.3203125%" id="linearGradient-2">
            <stop stop-color="#151443" offset="0%"></stop>
            <stop stop-color="#6D80B2" offset="100%"></stop>
        </linearGradient>
    </defs>
    <g id="ap-northeast-3" stroke="none" stroke-width="1" fill="none" fill-rule="evenodd">
        <path d="M1,4.99943992 L1,22.0005601 C1,24.2131329 2.78745893,26 4.99706666,26 L212.497605,26 C219.402703,26 225,20.4036174 225,13.5 C225,6.59542597 219.403112,1 212.497605,1 L4.99706666,1 C2.78936616,1 1,2.79033021 1,4.99943992 Z" id="CloudFormation-Launch-Stack-Button" stroke="#0058A5" stroke-width="2" fill="url(#linearGradient-1)"></path>
        <g id="Group" transform="translate(202.000000, 4.000000)">
            <circle id="Oval-1" fill="url(#linearGradient-2)" cx="9.5" cy="9.5" r="9.5"></circle>
            <polygon id="Triangle-1" fill="#FFFFFF" transform="translate(10.500000, 9.500000) rotate(90.000000) translate(-10.500000, -9.500000) " points="10.5 7 15 12 6 12"></polygon>
        </g>
        <path d="M23.944,19 L23.258,16.788 L19.94,16.788 L19.282,19 L17.084,19 L20.5,9.298 L22.81,9.298 L26.226,19 L23.944,19 Z M20.388,15.276 L22.824,15.276 L21.592,11.216 L20.388,15.276 Z M30.328,17.026 C30.328,16.8393324 30.2743339,16.6946672 30.167,16.592 C30.0596661,16.4893328 29.8426683,16.3773339 29.516,16.256 L28.424,15.822 C27.8546638,15.5979989 27.4440013,15.3226683 27.192,14.996 C26.9399987,14.6693317 26.814,14.2540025 26.814,13.75 C26.814,13.1153302 27.0683308,12.6043353 27.577,12.217 C28.0856692,11.8296647 28.7646624,11.636 29.614,11.636 C30.3980039,11.636 31.12133,11.7899985 31.784,12.098 L31.784,13.456 C31.0746631,13.2413323 30.4120031,13.134 29.796,13.134 C29.4133314,13.134 29.1333342,13.1806662 28.956,13.274 C28.7786658,13.3673338 28.69,13.5166656 28.69,13.722 C28.69,13.8806675 28.7436661,14.0089995 28.851,14.107 C28.9583339,14.2050005 29.1846649,14.3239993 29.53,14.464 L30.594,14.898 C31.1726696,15.1313345 31.5856654,15.4019985 31.833,15.71 C32.0803346,16.0180015 32.204,16.4193309 32.204,16.914 C32.204,17.6046701 31.940336,18.1623312 31.413,18.587 C30.885664,19.0116688 30.192671,19.224 29.334,19.224 C28.3726619,19.224 27.523337,19.0326686 26.786,18.65 L26.786,17.292 C27.7100046,17.5813348 28.5546628,17.726 29.32,17.726 C29.9920034,17.726 30.328,17.492669 30.328,17.026 Z M33.576,19 L33.576,11.846 L35.62,11.846 L35.62,19 L33.576,19 Z M34.598,10.74 C34.2433316,10.74 33.9586677,10.642001 33.744,10.446 C33.5293323,10.249999 33.422,9.98400168 33.422,9.648 C33.422,9.31199832 33.5293323,9.04600098 33.744,8.85 C33.9586677,8.65399902 34.2433316,8.556 34.598,8.556 C34.9526684,8.556 35.2373323,8.65399902 35.452,8.85 C35.6666677,9.04600098 35.774,9.31199832 35.774,9.648 C35.774,9.98400168 35.6666677,10.249999 35.452,10.446 C35.2373323,10.642001 34.9526684,10.74 34.598,10.74 Z M41.738,19 L41.57,18.37 C41.2806652,18.6313346 40.9470019,18.8389992 40.569,18.993 C40.1909981,19.1470008 39.8246684,19.224 39.47,19.224 C38.7793299,19.224 38.2263354,19.028002 37.811,18.636 C37.3956646,18.243998 37.188,17.7213366 37.188,17.068 C37.188,16.6199978 37.2999989,16.2256684 37.524,15.885 C37.7480011,15.5443316 38.0699979,15.276001 38.49,15.08 C38.9100021,14.883999 39.4046638,14.786 39.974,14.786 C40.4220022,14.786 40.916664,14.8466661 41.458,14.968 L41.458,14.268 C41.458,13.8386645 41.3693342,13.5446675 41.192,13.386 C41.0146658,13.2273325 40.6880024,13.148 40.212,13.148 C39.4466628,13.148 38.6020046,13.2926652 37.678,13.582 L37.678,12.224 C38.0233351,12.0466658 38.4573307,11.9043339 38.98,11.797 C39.5026693,11.6896661 40.034664,11.636 40.576,11.636 C41.5373381,11.636 42.2396644,11.8296647 42.683,12.217 C43.1263355,12.6043353 43.348,13.2133292 43.348,14.044 L43.348,19 L41.738,19 Z M40.044,17.852 C40.2773345,17.852 40.5176654,17.8006672 40.765,17.698 C41.0123346,17.5953328 41.2433323,17.4553342 41.458,17.278 L41.458,16.06 C41.0473313,15.9946663 40.6786683,15.962 40.352,15.962 C39.5399959,15.962 39.134,16.2886634 39.134,16.942 C39.134,17.2313348 39.2133325,17.4553325 39.372,17.614 C39.5306675,17.7726675 39.7546652,17.852 40.044,17.852 Z M51.132,15.458 L51.132,19 L49.088,19 L49.088,9.298 L52.798,9.298 C53.806005,9.298 54.6039971,9.57333058 55.192,10.124 C55.7800029,10.6746694 56.074,11.4259952 56.074,12.378 C56.074,13.3300048 55.7800029,14.0813306 55.192,14.632 C54.6039971,15.1826694 53.806005,15.458 52.798,15.458 L51.132,15.458 Z M51.132,13.89 L52.56,13.89 C53.026669,13.89 53.3836654,13.7616679 53.631,13.505 C53.8783346,13.2483321 54.002,12.8726691 54.002,12.378 C54.002,11.8833309 53.8783346,11.5076679 53.631,11.251 C53.3836654,10.9943321 53.026669,10.866 52.56,10.866 L51.132,10.866 L51.132,13.89 Z M61.576,19 L61.408,18.37 C61.1186652,18.6313346 60.7850019,18.8389992 60.407,18.993 C60.0289981,19.1470008 59.6626684,19.224 59.308,19.224 C58.6173299,19.224 58.0643354,19.028002 57.649,18.636 C57.2336646,18.243998 57.026,17.7213366 57.026,17.068 C57.026,16.6199978 57.1379989,16.2256684 57.362,15.885 C57.5860011,15.5443316 57.9079979,15.276001 58.328,15.08 C58.7480021,14.883999 59.2426638,14.786 59.812,14.786 C60.2600022,14.786 60.754664,14.8466661 61.296,14.968 L61.296,14.268 C61.296,13.8386645 61.2073342,13.5446675 61.03,13.386 C60.8526658,13.2273325 60.5260024,13.148 60.05,13.148 C59.2846628,13.148 58.4400046,13.2926652 57.516,13.582 L57.516,12.224 C57.8613351,12.0466658 58.2953307,11.9043339 58.818,11.797 C59.3406693,11.6896661 59.872664,11.636 60.414,11.636 C61.3753381,11.636 62.0776645,11.8296647 62.521,12.217 C62.9643356,12.6043353 63.186,13.2133292 63.186,14.044 L63.186,19 L61.576,19 Z M59.882,17.852 C60.1153345,17.852 60.3556654,17.8006672 60.603,17.698 C60.8503346,17.5953328 61.0813323,17.4553342 61.296,17.278 L61.296,16.06 C60.8853313,15.9946663 60.5166683,15.962 60.19,15.962 C59.3779959,15.962 58.972,16.2886634 58.972,16.942 C58.972,17.2313348 59.0513325,17.4553325 59.21,17.614 C59.3686675,17.7726675 59.5926652,17.852 59.882,17.852 Z M70.284,18.692 C70.0319987,18.8413341 69.7286684,18.9556663 69.374,19.035 C69.0193316,19.1143337 68.6506686,19.154 68.268,19.154 C67.1293276,19.154 66.259003,18.8366698 65.657,18.202 C65.054997,17.5673302 64.754,16.6526726 64.754,15.458 C64.754,14.2726607 65.0713302,13.34867 65.706,12.686 C66.3406698,12.02333 67.222661,11.692 68.352,11.692 C69.0333367,11.692 69.6633304,11.8413318 70.242,12.14 L70.242,13.498 C69.6913306,13.3393325 69.1873356,13.26 68.73,13.26 C68.0766634,13.26 67.5960015,13.425665 67.288,13.757 C66.9799985,14.088335 66.826,14.6133297 66.826,15.332 L66.826,15.528 C66.826,16.2373369 66.9776652,16.757665 67.281,17.089 C67.5843349,17.420335 68.0533302,17.586 68.688,17.586 C69.1453356,17.586 69.6773303,17.5020008 70.284,17.334 L70.284,18.692 Z M71.796,19 L71.796,11.846 L73.84,11.846 L73.84,19 L71.796,19 Z M72.818,10.74 C72.4633316,10.74 72.1786677,10.642001 71.964,10.446 C71.7493323,10.249999 71.642,9.98400168 71.642,9.648 C71.642,9.31199832 71.7493323,9.04600098 71.964,8.85 C72.1786677,8.65399902 72.4633316,8.556 72.818,8.556 C73.1726684,8.556 73.4573323,8.65399902 73.672,8.85 C73.8866677,9.04600098 73.994,9.31199832 73.994,9.648 C73.994,9.98400168 73.8866677,10.249999 73.672,10.446 C73.4573323,10.642001 73.1726684,10.74 72.818,10.74 Z M76.206,19 L76.206,13.358 L75.072,13.358 L75.072,12.098 L76.206,11.888 L76.206,11.244 C76.206,9.377324 77.0693247,8.444 78.796,8.444 C79.2533356,8.444 79.6733314,8.52799916 80.056,8.696 L80.056,10.082 C79.7946654,10.0446665 79.5566677,10.026 79.342,10.026 C78.9313313,10.026 78.6466675,10.0983326 78.488,10.243 C78.3293325,10.3876674 78.25,10.6326649 78.25,10.978 L78.25,11.846 L83.038,11.846 L83.038,19 L80.994,19 L80.994,13.358 L78.25,13.358 L78.25,19 L76.206,19 Z M82.016,10.74 C81.6613316,10.74 81.3766677,10.642001 81.162,10.446 C80.9473323,10.249999 80.84,9.98400168 80.84,9.648 C80.84,9.31199832 80.9473323,9.04600098 81.162,8.85 C81.3766677,8.65399902 81.6613316,8.556 82.016,8.556 C82.3706684,8.556 82.6553323,8.65399902 82.87,8.85 C83.0846677,9.04600098 83.192,9.31199832 83.192,9.648 C83.192,9.98400168 83.0846677,10.249999 82.87,10.446 C82.6553323,10.642001 82.3706684,10.74 82.016,10.74 Z M90.22,18.692 C89.9679987,18.8413341 89.6646684,18.9556663 89.31,19.035 C88.9553316,19.1143337 88.5866686,19.154 88.204,19.154 C87.0653276,19.154 86.195003,18.8366698 85.593,18.202 C84.990997,17.5673302 84.69,16.6526726 84.69,15.458 C84.69,14.2726607 85.0073302,13.34867 85.642,12.686 C86.2766698,12.02333 87.158661,11.692 88.288,11.692 C88.9693367,11.692 89.5993304,11.8413318 90.178,12.14 L90.178,13.498 C89.6273306,13.3393325 89.1233356,13.26 88.666,13.26 C88.0126634,13.26 87.5320015,13.425665 87.224,13.757 C86.9159985,14.088335 86.762,14.6133297 86.762,15.332 L86.762,15.528 C86.762,16.2373369 86.9136651,16.757665 87.217,17.089 C87.5203348,17.420335 87.9893302,17.586 88.624,17.586 C89.0813356,17.586 89.6133303,17.5020008 90.22,17.334 L90.22,18.692 Z M97.136,21.016 C96.5013302,20.1293289 96.0160017,19.1470054 95.68,18.069 C95.3439983,16.9909946 95.176,15.8780057 95.176,14.73 C95.176,13.5913276 95.3439983,12.4806721 95.68,11.398 C96.0160017,10.3153279 96.5013302,9.3306711 97.136,8.444 L99.082,8.444 C98.5219972,9.31200434 98.0903349,10.2873279 97.787,11.37 C97.4836652,12.4526721 97.332,13.5726609 97.332,14.73 C97.332,15.8873391 97.4836652,17.0073279 97.787,18.09 C98.0903349,19.1726721 98.5219972,20.1479957 99.082,21.016 L97.136,21.016 Z M102.274,14.142 C102.274,15.2433388 102.493331,16.0833304 102.932,16.662 C103.370669,17.2406696 104.009996,17.53 104.85,17.53 C105.690004,17.53 106.329331,17.2406696 106.768,16.662 C107.206669,16.0833304 107.426,15.2433388 107.426,14.142 C107.426,13.0406612 107.206669,12.2030029 106.768,11.629 C106.329331,11.0549971 105.690004,10.768 104.85,10.768 C104.009996,10.768 103.370669,11.0549971 102.932,11.629 C102.493331,12.2030029 102.274,13.0406612 102.274,14.142 Z M100.118,14.142 C100.118,13.1153282 100.302331,12.2193372 100.671,11.454 C101.039669,10.6886628 101.580996,10.0983354 102.295,9.683 C103.009004,9.26766459 103.860662,9.06 104.85,9.06 C105.811338,9.06 106.646663,9.26066466 107.356,9.662 C108.065337,10.0633353 108.613665,10.6443295 109.001,11.405 C109.388335,12.1656705 109.582,13.0779947 109.582,14.142 C109.582,15.1686718 109.397669,16.0646628 109.029,16.83 C108.660331,17.5953372 108.119004,18.1879979 107.405,18.608 C106.690996,19.0280021 105.839338,19.238 104.85,19.238 C103.888662,19.238 103.053337,19.0373353 102.344,18.636 C101.634663,18.2346647 101.086335,17.6513372 100.699,16.886 C100.311665,16.1206628 100.118,15.2060053 100.118,14.142 Z M114.44,17.026 C114.44,16.8393324 114.386334,16.6946672 114.279,16.592 C114.171666,16.4893328 113.954668,16.3773339 113.628,16.256 L112.536,15.822 C111.966664,15.5979989 111.556001,15.3226683 111.304,14.996 C111.051999,14.6693317 110.926,14.2540025 110.926,13.75 C110.926,13.1153302 111.180331,12.6043353 111.689,12.217 C112.197669,11.8296647 112.876662,11.636 113.726,11.636 C114.510004,11.636 115.23333,11.7899985 115.896,12.098 L115.896,13.456 C115.186663,13.2413323 114.524003,13.134 113.908,13.134 C113.525331,13.134 113.245334,13.1806662 113.068,13.274 C112.890666,13.3673338 112.802,13.5166656 112.802,13.722 C112.802,13.8806675 112.855666,14.0089995 112.963,14.107 C113.070334,14.2050005 113.296665,14.3239993 113.642,14.464 L114.706,14.898 C115.28467,15.1313345 115.697665,15.4019985 115.945,15.71 C116.192335,16.0180015 116.316,16.4193309 116.316,16.914 C116.316,17.6046701 116.052336,18.1623312 115.525,18.587 C114.997664,19.0116688 114.304671,19.224 113.446,19.224 C112.484662,19.224 111.635337,19.0326686 110.898,18.65 L110.898,17.292 C111.822005,17.5813348 112.666663,17.726 113.432,17.726 C114.104003,17.726 114.44,17.492669 114.44,17.026 Z M121.734,19 L121.566,18.37 C121.276665,18.6313346 120.943002,18.8389992 120.565,18.993 C120.186998,19.1470008 119.820668,19.224 119.466,19.224 C118.77533,19.224 118.222335,19.028002 117.807,18.636 C117.391665,18.243998 117.184,17.7213366 117.184,17.068 C117.184,16.6199978 117.295999,16.2256684 117.52,15.885 C117.744001,15.5443316 118.065998,15.276001 118.486,15.08 C118.906002,14.883999 119.400664,14.786 119.97,14.786 C120.418002,14.786 120.912664,14.8466661 121.454,14.968 L121.454,14.268 C121.454,13.8386645 121.365334,13.5446675 121.188,13.386 C121.010666,13.2273325 120.684002,13.148 120.208,13.148 C119.442663,13.148 118.598005,13.2926652 117.674,13.582 L117.674,12.224 C118.019335,12.0466658 118.453331,11.9043339 118.976,11.797 C119.498669,11.6896661 120.030664,11.636 120.572,11.636 C121.533338,11.636 122.235664,11.8296647 122.679,12.217 C123.122336,12.6043353 123.344,13.2133292 123.344,14.044 L123.344,19 L121.734,19 Z M120.04,17.852 C120.273335,17.852 120.513665,17.8006672 120.761,17.698 C121.008335,17.5953328 121.239332,17.4553342 121.454,17.278 L121.454,16.06 C121.043331,15.9946663 120.674668,15.962 120.348,15.962 C119.535996,15.962 119.13,16.2886634 119.13,16.942 C119.13,17.2313348 119.209333,17.4553325 119.368,17.614 C119.526667,17.7726675 119.750665,17.852 120.04,17.852 Z M125.276,19 L125.276,8.64 L127.306,8.64 L127.306,14.898 L129.784,11.846 L132.22,11.846 L129.266,15.262 L132.444,19 L129.952,19 L127.306,15.738 L127.306,19 L125.276,19 Z M137.526,19 L137.358,18.37 C137.068665,18.6313346 136.735002,18.8389992 136.357,18.993 C135.978998,19.1470008 135.612668,19.224 135.258,19.224 C134.56733,19.224 134.014335,19.028002 133.599,18.636 C133.183665,18.243998 132.976,17.7213366 132.976,17.068 C132.976,16.6199978 133.087999,16.2256684 133.312,15.885 C133.536001,15.5443316 133.857998,15.276001 134.278,15.08 C134.698002,14.883999 135.192664,14.786 135.762,14.786 C136.210002,14.786 136.704664,14.8466661 137.246,14.968 L137.246,14.268 C137.246,13.8386645 137.157334,13.5446675 136.98,13.386 C136.802666,13.2273325 136.476002,13.148 136,13.148 C135.234663,13.148 134.390005,13.2926652 133.466,13.582 L133.466,12.224 C133.811335,12.0466658 134.245331,11.9043339 134.768,11.797 C135.290669,11.6896661 135.822664,11.636 136.364,11.636 C137.325338,11.636 138.027664,11.8296647 138.471,12.217 C138.914336,12.6043353 139.136,13.2133292 139.136,14.044 L139.136,19 L137.526,19 Z M135.832,17.852 C136.065334,17.852 136.305665,17.8006672 136.553,17.698 C136.800335,17.5953328 137.031332,17.4553342 137.246,17.278 L137.246,16.06 C136.835331,15.9946663 136.466668,15.962 136.14,15.962 C135.327996,15.962 134.922,16.2886634 134.922,16.942 C134.922,17.2313348 135.001333,17.4553325 135.16,17.614 C135.318667,17.7726675 135.542665,17.852 135.832,17.852 Z M140.676,16.228 L140.676,14.548 L145.128,14.548 L145.128,16.228 L140.676,16.228 Z M146.836,19 L146.836,9.298 L148.936,9.298 L148.936,17.32 L153.192,17.32 L153.192,19 L146.836,19 Z M157.476,19.21 C156.365328,19.21 155.497336,18.8763367 154.872,18.209 C154.246664,17.5416633 153.934,16.6106726 153.934,15.416 C153.934,14.2306607 154.246664,13.3043367 154.872,12.637 C155.497336,11.9696633 156.365328,11.636 157.476,11.636 C158.586672,11.636 159.454664,11.9696633 160.08,12.637 C160.705336,13.3043367 161.018,14.2306607 161.018,15.416 C161.018,16.6106726 160.705336,17.5416633 160.08,18.209 C159.454664,18.8763367 158.586672,19.21 157.476,19.21 Z M157.476,17.642 C158.456005,17.642 158.946,16.9000074 158.946,15.416 C158.946,13.941326 158.456005,13.204 157.476,13.204 C156.495995,13.204 156.006,13.941326 156.006,15.416 C156.006,16.9000074 156.495995,17.642 157.476,17.642 Z M167.78,18.692 C167.527999,18.8413341 167.224668,18.9556663 166.87,19.035 C166.515332,19.1143337 166.146669,19.154 165.764,19.154 C164.625328,19.154 163.755003,18.8366698 163.153,18.202 C162.550997,17.5673302 162.25,16.6526726 162.25,15.458 C162.25,14.2726607 162.56733,13.34867 163.202,12.686 C163.83667,12.02333 164.718661,11.692 165.848,11.692 C166.529337,11.692 167.15933,11.8413318 167.738,12.14 L167.738,13.498 C167.187331,13.3393325 166.683336,13.26 166.226,13.26 C165.572663,13.26 165.092002,13.425665 164.784,13.757 C164.475998,14.088335 164.322,14.6133297 164.322,15.332 L164.322,15.528 C164.322,16.2373369 164.473665,16.757665 164.777,17.089 C165.080335,17.420335 165.54933,17.586 166.184,17.586 C166.641336,17.586 167.17333,17.5020008 167.78,17.334 L167.78,18.692 Z M173.338,19 L173.17,18.37 C172.880665,18.6313346 172.547002,18.8389992 172.169,18.993 C171.790998,19.1470008 171.424668,19.224 171.07,19.224 C170.37933,19.224 169.826335,19.028002 169.411,18.636 C168.995665,18.243998 168.788,17.7213366 168.788,17.068 C168.788,16.6199978 168.899999,16.2256684 169.124,15.885 C169.348001,15.5443316 169.669998,15.276001 170.09,15.08 C170.510002,14.883999 171.004664,14.786 171.574,14.786 C172.022002,14.786 172.516664,14.8466661 173.058,14.968 L173.058,14.268 C173.058,13.8386645 172.969334,13.5446675 172.792,13.386 C172.614666,13.2273325 172.288002,13.148 171.812,13.148 C171.046663,13.148 170.202005,13.2926652 169.278,13.582 L169.278,12.224 C169.623335,12.0466658 170.057331,11.9043339 170.58,11.797 C171.102669,11.6896661 171.634664,11.636 172.176,11.636 C173.137338,11.636 173.839664,11.8296647 174.283,12.217 C174.726336,12.6043353 174.948,13.2133292 174.948,14.044 L174.948,19 L173.338,19 Z M171.644,17.852 C171.877335,17.852 172.117665,17.8006672 172.365,17.698 C172.612335,17.5953328 172.843332,17.4553342 173.058,17.278 L173.058,16.06 C172.647331,15.9946663 172.278668,15.962 171.952,15.962 C171.139996,15.962 170.734,16.2886634 170.734,16.942 C170.734,17.2313348 170.813333,17.4553325 170.972,17.614 C171.130667,17.7726675 171.354665,17.852 171.644,17.852 Z M180.03,18.86 C179.637998,19.0186675 179.218002,19.098 178.77,19.098 C177.509994,19.098 176.88,18.3933404 176.88,16.984 L176.88,8.64 L178.924,8.64 L178.924,16.816 C178.924,17.0773346 178.968333,17.2616661 179.057,17.369 C179.145667,17.4763339 179.292666,17.53 179.498,17.53 C179.628667,17.53 179.805999,17.5160001 180.03,17.488 L180.03,18.86 Z M182.592,8.444 C183.22667,9.3306711 183.711998,10.3153279 184.048,11.398 C184.384002,12.4806721 184.552,13.5913276 184.552,14.73 C184.552,15.8780057 184.384002,16.9909946 184.048,18.069 C183.711998,19.1470054 183.22667,20.1293289 182.592,21.016 L180.646,21.016 C181.206003,20.1479957 181.637665,19.1726721 181.941,18.09 C182.244335,17.0073279 182.396,15.8873391 182.396,14.73 C182.396,13.5726609 182.244335,12.4526721 181.941,11.37 C181.637665,10.2873279 181.206003,9.31200434 180.646,8.444 L182.592,8.444 Z" id="Region-Name" fill="#000000"></path>
    </g>
</svg>