<?xml version="1.0" encoding="UTF-8"?>
<svg width="226px" height="27px" viewBox="0 0 226 27" version="1.1" xmlns="http://www.w3.org/2000/svg" xmlns:xlink="http://www.w3.org/1999/xlink">
    <!-- Generator: Sketch 52.6 (67491) - http://www.bohemiancoding.com/sketch -->
    <title>ap-southeast-2</title>
    <desc>Created with Sketch.</desc>
    <defs>
        <linearGradient x1="50%" y1="0%" x2="50%" y2="100%" id="linearGradient-1">
            <stop stop-color="#FFE4B2" offset="0%"></stop>
            <stop stop-color="#F79800" offset="100%"></stop>
        </linearGradient>
        <linearGradient x1="45.0169613%" y1="100%" x2="68.0818257%" y2="3.3203125%" id="linearGradient-2">
            <stop stop-color="#151443" offset="0%"></stop>
            <stop stop-color="#6D80B2" offset="100%"></stop>
        </linearGradient>
    </defs>
    <g id="ap-southeast-2" stroke="none" stroke-width="1" fill="none" fill-rule="evenodd">
        <path d="M1,4.99943992 L1,22.0005601 C1,24.2131329 2.78745893,26 4.99706666,26 L212.497605,26 C219.402703,26 225,20.4036174 225,13.5 C225,6.59542597 219.403112,1 212.497605,1 L4.99706666,1 C2.78936616,1 1,2.79033021 1,4.99943992 Z" id="CloudFormation-Launch-Stack-Button" stroke="#0058A5" stroke-width="2" fill="url(#linearGradient-1)"></path>
        <g id="Group" transform="translate(202.000000, 4.000000)">
            <circle id="Oval-1" fill="url(#linearGradient-2)" cx="9.5" cy="9.5" r="9.5"></circle>
            <polygon id="Triangle-1" fill="#FFFFFF" transform="translate(10.500000, 9.500000) rotate(90.000000) translate(-10.500000, -9.500000) " points="10.5 7 15 12 6 12"></polygon>
        </g>
        <path d="M23.944,19 L23.258,16.788 L19.94,16.788 L19.282,19 L17.084,19 L20.5,9.298 L22.81,9.298 L26.226,19 L23.944,19 Z M20.388,15.276 L22.824,15.276 L21.592,11.216 L20.388,15.276 Z M30.328,17.026 C30.328,16.8393324 30.2743339,16.6946672 30.167,16.592 C30.0596661,16.4893328 29.8426683,16.3773339 29.516,16.256 L28.424,15.822 C27.8546638,15.5979989 27.4440013,15.3226683 27.192,14.996 C26.9399987,14.6693317 26.814,14.2540025 26.814,13.75 C26.814,13.1153302 27.0683308,12.6043353 27.577,12.217 C28.0856692,11.8296647 28.7646624,11.636 29.614,11.636 C30.3980039,11.636 31.12133,11.7899985 31.784,12.098 L31.784,13.456 C31.0746631,13.2413323 30.4120031,13.134 29.796,13.134 C29.4133314,13.134 29.1333342,13.1806662 28.956,13.274 C28.7786658,13.3673338 28.69,13.5166656 28.69,13.722 C28.69,13.8806675 28.7436661,14.0089995 28.851,14.107 C28.9583339,14.2050005 29.1846649,14.3239993 29.53,14.464 L30.594,14.898 C31.1726696,15.1313345 31.5856654,15.4019985 31.833,15.71 C32.0803346,16.0180015 32.204,16.4193309 32.204,16.914 C32.204,17.6046701 31.940336,18.1623312 31.413,18.587 C30.885664,19.0116688 30.192671,19.224 29.334,19.224 C28.3726619,19.224 27.523337,19.0326686 26.786,18.65 L26.786,17.292 C27.7100046,17.5813348 28.5546628,17.726 29.32,17.726 C29.9920034,17.726 30.328,17.492669 30.328,17.026 Z M33.576,19 L33.576,11.846 L35.62,11.846 L35.62,19 L33.576,19 Z M34.598,10.74 C34.2433316,10.74 33.9586677,10.642001 33.744,10.446 C33.5293323,10.249999 33.422,9.98400168 33.422,9.648 C33.422,9.31199832 33.5293323,9.04600098 33.744,8.85 C33.9586677,8.65399902 34.2433316,8.556 34.598,8.556 C34.9526684,8.556 35.2373323,8.65399902 35.452,8.85 C35.6666677,9.04600098 35.774,9.31199832 35.774,9.648 C35.774,9.98400168 35.6666677,10.249999 35.452,10.446 C35.2373323,10.642001 34.9526684,10.74 34.598,10.74 Z M41.738,19 L41.57,18.37 C41.2806652,18.6313346 40.9470019,18.8389992 40.569,18.993 C40.1909981,19.1470008 39.8246684,19.224 39.47,19.224 C38.7793299,19.224 38.2263354,19.028002 37.811,18.636 C37.3956646,18.243998 37.188,17.7213366 37.188,17.068 C37.188,16.6199978 37.2999989,16.2256684 37.524,15.885 C37.7480011,15.5443316 38.0699979,15.276001 38.49,15.08 C38.9100021,14.883999 39.4046638,14.786 39.974,14.786 C40.4220022,14.786 40.916664,14.8466661 41.458,14.968 L41.458,14.268 C41.458,13.8386645 41.3693342,13.5446675 41.192,13.386 C41.0146658,13.2273325 40.6880024,13.148 40.212,13.148 C39.4466628,13.148 38.6020046,13.2926652 37.678,13.582 L37.678,12.224 C38.0233351,12.0466658 38.4573307,11.9043339 38.98,11.797 C39.5026693,11.6896661 40.034664,11.636 40.576,11.636 C41.5373381,11.636 42.2396644,11.8296647 42.683,12.217 C43.1263355,12.6043353 43.348,13.2133292 43.348,14.044 L43.348,19 L41.738,19 Z M40.044,17.852 C40.2773345,17.852 40.5176654,17.8006672 40.765,17.698 C41.0123346,17.5953328 41.2433323,17.4553342 41.458,17.278 L41.458,16.06 C41.0473313,15.9946663 40.6786683,15.962 40.352,15.962 C39.5399959,15.962 39.134,16.2886634 39.134,16.942 C39.134,17.2313348 39.2133325,17.4553325 39.372,17.614 C39.5306675,17.7726675 39.7546652,17.852 40.044,17.852 Z M51.132,15.458 L51.132,19 L49.088,19 L49.088,9.298 L52.798,9.298 C53.806005,9.298 54.6039971,9.57333058 55.192,10.124 C55.7800029,10.6746694 56.074,11.4259952 56.074,12.378 C56.074,13.3300048 55.7800029,14.0813306 55.192,14.632 C54.6039971,15.1826694 53.806005,15.458 52.798,15.458 L51.132,15.458 Z M51.132,13.89 L52.56,13.89 C53.026669,13.89 53.3836654,13.7616679 53.631,13.505 C53.8783346,13.2483321 54.002,12.8726691 54.002,12.378 C54.002,11.8833309 53.8783346,11.5076679 53.631,11.251 C53.3836654,10.9943321 53.026669,10.866 52.56,10.866 L51.132,10.866 L51.132,13.89 Z M61.576,19 L61.408,18.37 C61.1186652,18.6313346 60.7850019,18.8389992 60.407,18.993 C60.0289981,19.1470008 59.6626684,19.224 59.308,19.224 C58.6173299,19.224 58.0643354,19.028002 57.649,18.636 C57.2336646,18.243998 57.026,17.7213366 57.026,17.068 C57.026,16.6199978 57.1379989,16.2256684 57.362,15.885 C57.5860011,15.5443316 57.9079979,15.276001 58.328,15.08 C58.7480021,14.883999 59.2426638,14.786 59.812,14.786 C60.2600022,14.786 60.754664,14.8466661 61.296,14.968 L61.296,14.268 C61.296,13.8386645 61.2073342,13.5446675 61.03,13.386 C60.8526658,13.2273325 60.5260024,13.148 60.05,13.148 C59.2846628,13.148 58.4400046,13.2926652 57.516,13.582 L57.516,12.224 C57.8613351,12.0466658 58.2953307,11.9043339 58.818,11.797 C59.3406693,11.6896661 59.872664,11.636 60.414,11.636 C61.3753381,11.636 62.0776645,11.8296647 62.521,12.217 C62.9643356,12.6043353 63.186,13.2133292 63.186,14.044 L63.186,19 L61.576,19 Z M59.882,17.852 C60.1153345,17.852 60.3556654,17.8006672 60.603,17.698 C60.8503346,17.5953328 61.0813323,17.4553342 61.296,17.278 L61.296,16.06 C60.8853313,15.9946663 60.5166683,15.962 60.19,15.962 C59.3779959,15.962 58.972,16.2886634 58.972,16.942 C58.972,17.2313348 59.0513325,17.4553325 59.21,17.614 C59.3686675,17.7726675 59.5926652,17.852 59.882,17.852 Z M70.284,18.692 C70.0319987,18.8413341 69.7286684,18.9556663 69.374,19.035 C69.0193316,19.1143337 68.6506686,19.154 68.268,19.154 C67.1293276,19.154 66.259003,18.8366698 65.657,18.202 C65.054997,17.5673302 64.754,16.6526726 64.754,15.458 C64.754,14.2726607 65.0713302,13.34867 65.706,12.686 C66.3406698,12.02333 67.222661,11.692 68.352,11.692 C69.0333367,11.692 69.6633304,11.8413318 70.242,12.14 L70.242,13.498 C69.6913306,13.3393325 69.1873356,13.26 68.73,13.26 C68.0766634,13.26 67.5960015,13.425665 67.288,13.757 C66.9799985,14.088335 66.826,14.6133297 66.826,15.332 L66.826,15.528 C66.826,16.2373369 66.9776652,16.757665 67.281,17.089 C67.5843349,17.420335 68.0533302,17.586 68.688,17.586 C69.1453356,17.586 69.6773303,17.5020008 70.284,17.334 L70.284,18.692 Z M71.796,19 L71.796,11.846 L73.84,11.846 L73.84,19 L71.796,19 Z M72.818,10.74 C72.4633316,10.74 72.1786677,10.642001 71.964,10.446 C71.7493323,10.249999 71.642,9.98400168 71.642,9.648 C71.642,9.31199832 71.7493323,9.04600098 71.964,8.85 C72.1786677,8.65399902 72.4633316,8.556 72.818,8.556 C73.1726684,8.556 73.4573323,8.65399902 73.672,8.85 C73.8866677,9.04600098 73.994,9.31199832 73.994,9.648 C73.994,9.98400168 73.8866677,10.249999 73.672,10.446 C73.4573323,10.642001 73.1726684,10.74 72.818,10.74 Z M76.206,19 L76.206,13.358 L75.072,13.358 L75.072,12.098 L76.206,11.888 L76.206,11.244 C76.206,9.377324 77.0693247,8.444 78.796,8.444 C79.2533356,8.444 79.6733314,8.52799916 80.056,8.696 L80.056,10.082 C79.7946654,10.0446665 79.5566677,10.026 79.342,10.026 C78.9313313,10.026 78.6466675,10.0983326 78.488,10.243 C78.3293325,10.3876674 78.25,10.6326649 78.25,10.978 L78.25,11.846 L83.038,11.846 L83.038,19 L80.994,19 L80.994,13.358 L78.25,13.358 L78.25,19 L76.206,19 Z M82.016,10.74 C81.6613316,10.74 81.3766677,10.642001 81.162,10.446 C80.9473323,10.249999 80.84,9.98400168 80.84,9.648 C80.84,9.31199832 80.9473323,9.04600098 81.162,8.85 C81.3766677,8.65399902 81.6613316,8.556 82.016,8.556 C82.3706684,8.556 82.6553323,8.65399902 82.87,8.85 C83.0846677,9.04600098 83.192,9.31199832 83.192,9.648 C83.192,9.98400168 83.0846677,10.249999 82.87,10.446 C82.6553323,10.642001 82.3706684,10.74 82.016,10.74 Z M90.22,18.692 C89.9679987,18.8413341 89.6646684,18.9556663 89.31,19.035 C88.9553316,19.1143337 88.5866686,19.154 88.204,19.154 C87.0653276,19.154 86.195003,18.8366698 85.593,18.202 C84.990997,17.5673302 84.69,16.6526726 84.69,15.458 C84.69,14.2726607 85.0073302,13.34867 85.642,12.686 C86.2766698,12.02333 87.158661,11.692 88.288,11.692 C88.9693367,11.692 89.5993304,11.8413318 90.178,12.14 L90.178,13.498 C89.6273306,13.3393325 89.1233356,13.26 88.666,13.26 C88.0126634,13.26 87.5320015,13.425665 87.224,13.757 C86.9159985,14.088335 86.762,14.6133297 86.762,15.332 L86.762,15.528 C86.762,16.2373369 86.9136651,16.757665 87.217,17.089 C87.5203348,17.420335 87.9893302,17.586 88.624,17.586 C89.0813356,17.586 89.6133303,17.5020008 90.22,17.334 L90.22,18.692 Z M97.136,21.016 C96.5013302,20.1293289 96.0160017,19.1470054 95.68,18.069 C95.3439983,16.9909946 95.176,15.8780057 95.176,14.73 C95.176,13.5913276 95.3439983,12.4806721 95.68,11.398 C96.0160017,10.3153279 96.5013302,9.3306711 97.136,8.444 L99.082,8.444 C98.5219972,9.31200434 98.0903349,10.2873279 97.787,11.37 C97.4836652,12.4526721 97.332,13.5726609 97.332,14.73 C97.332,15.8873391 97.4836652,17.0073279 97.787,18.09 C98.0903349,19.1726721 98.5219972,20.1479957 99.082,21.016 L97.136,21.016 Z M102.288,14.758 C101.457329,14.4499985 100.860002,14.0743356 100.496,13.631 C100.131998,13.1876644 99.95,12.6253367 99.95,11.944 C99.95,11.0666623 100.27433,10.3666693 100.923,9.844 C101.57167,9.32133072 102.441995,9.06 103.534,9.06 C104.448671,9.06 105.344662,9.22799832 106.222,9.564 L106.222,11.16 C105.316662,10.8799986 104.476671,10.74 103.702,10.74 C102.600661,10.74 102.05,11.0946631 102.05,11.804 C102.05,12.0653346 102.145666,12.2799992 102.337,12.448 C102.528334,12.6160008 102.885331,12.7933324 103.408,12.98 L104.444,13.358 C105.312004,13.6753349 105.930331,14.0463312 106.299,14.471 C106.667669,14.8956688 106.852,15.4486633 106.852,16.13 C106.852,17.0913381 106.50667,17.8496639 105.816,18.405 C105.12533,18.9603361 104.178006,19.238 102.974,19.238 C102.451331,19.238 101.928669,19.1890005 101.406,19.091 C100.883331,18.9929995 100.435335,18.8600008 100.062,18.692 L100.062,17.096 C100.528669,17.2360007 101.027997,17.3479996 101.56,17.432 C102.092003,17.5160004 102.572665,17.558 103.002,17.558 C103.552669,17.558 103.977332,17.4576677 104.276,17.257 C104.574668,17.0563323 104.724,16.7693352 104.724,16.396 C104.724,16.1066652 104.633001,15.8780008 104.451,15.71 C104.268999,15.5419992 103.902669,15.3553344 103.352,15.15 L102.288,14.758 Z M110.352,19.112 L107.524,11.846 L109.694,11.846 L111.29,17.194 L112.802,11.846 L114.916,11.846 L111.892,19.966 C111.621332,20.703337 111.290002,21.2353317 110.898,21.562 C110.505998,21.8886683 110.011336,22.052 109.414,22.052 C108.947331,22.052 108.494669,21.9773341 108.056,21.828 L108.056,20.442 C108.354668,20.4700001 108.620666,20.484 108.854,20.484 C109.246002,20.484 109.549332,20.3930009 109.764,20.211 C109.978668,20.0289991 110.160666,19.7140022 110.31,19.266 L110.352,19.112 Z M120.642,19 L120.474,18.37 C119.89533,18.8926693 119.209337,19.154 118.416,19.154 C117.827997,19.154 117.310002,19.0070015 116.862,18.713 C116.413998,18.4189985 116.066335,17.9920028 115.819,17.432 C115.571665,16.8719972 115.448,16.2140038 115.448,15.458 C115.448,14.3006609 115.723331,13.3743368 116.274,12.679 C116.824669,11.9836632 117.552662,11.636 118.458,11.636 C119.195337,11.636 119.834664,11.8459979 120.376,12.266 L120.376,8.64 L122.42,8.64 L122.42,19 L120.642,19 Z M119.088,17.614 C119.536002,17.614 119.965331,17.4833346 120.376,17.222 L120.376,13.526 C119.974665,13.2926655 119.512669,13.176 118.99,13.176 C118.495331,13.176 118.126668,13.3603315 117.884,13.729 C117.641332,14.0976685 117.52,14.6553296 117.52,15.402 C117.52,16.1486704 117.648332,16.7039982 117.905,17.068 C118.161668,17.4320018 118.555997,17.614 119.088,17.614 Z M128.972,19 L128.972,14.31 C128.972,13.9273314 128.888001,13.6473342 128.72,13.47 C128.551999,13.2926658 128.295335,13.204 127.95,13.204 C127.436664,13.204 126.928003,13.3626651 126.424,13.68 L126.424,19 L124.38,19 L124.38,11.846 L126.06,11.846 L126.256,12.616 C127.096004,11.9626634 127.991995,11.636 128.944,11.636 C129.60667,11.636 130.117665,11.8156649 130.477,12.175 C130.836335,12.5343351 131.016,13.04533 131.016,13.708 L131.016,19 L128.972,19 Z M134.474,15.92 C134.511334,16.5360031 134.697998,16.9816653 135.034,17.257 C135.370002,17.5323347 135.89733,17.67 136.616,17.67 C137.241336,17.67 137.969329,17.5533345 138.8,17.32 L138.8,18.678 C138.473332,18.8460008 138.083669,18.9766662 137.631,19.07 C137.178331,19.1633338 136.709336,19.21 136.224,19.21 C135.038661,19.21 134.13567,18.8880032 133.515,18.244 C132.89433,17.5999968 132.584,16.6573395 132.584,15.416 C132.584,14.2213274 132.891997,13.29267 133.508,12.63 C134.124003,11.96733 134.977995,11.636 136.07,11.636 C136.994005,11.636 137.705664,11.8903308 138.205,12.399 C138.704336,12.9076692 138.954,13.6333286 138.954,14.576 C138.954,14.7813344 138.94,15.0146654 138.912,15.276 C138.884,15.5373346 138.851334,15.7519992 138.814,15.92 L134.474,15.92 Z M136,13.05 C135.542664,13.05 135.181001,13.1876653 134.915,13.463 C134.648999,13.7383347 134.497334,14.1373307 134.46,14.66 L137.204,14.66 L137.204,14.422 C137.204,13.5073288 136.802671,13.05 136,13.05 Z M142.426,19.112 L139.598,11.846 L141.768,11.846 L143.364,17.194 L144.876,11.846 L146.99,11.846 L143.966,19.966 C143.695332,20.703337 143.364002,21.2353317 142.972,21.562 C142.579998,21.8886683 142.085336,22.052 141.488,22.052 C141.021331,22.052 140.568669,21.9773341 140.13,21.828 L140.13,20.442 C140.428668,20.4700001 140.694665,20.484 140.928,20.484 C141.320002,20.484 141.623332,20.3930009 141.838,20.211 C142.052668,20.0289991 142.234666,19.7140022 142.384,19.266 L142.426,19.112 Z M149.328,8.444 C149.96267,9.3306711 150.447998,10.3153279 150.784,11.398 C151.120002,12.4806721 151.288,13.5913276 151.288,14.73 C151.288,15.8780057 151.120002,16.9909946 150.784,18.069 C150.447998,19.1470054 149.96267,20.1293289 149.328,21.016 L147.382,21.016 C147.942003,20.1479957 148.373665,19.1726721 148.677,18.09 C148.980335,17.0073279 149.132,15.8873391 149.132,14.73 C149.132,13.5726609 148.980335,12.4526721 148.677,11.37 C148.373665,10.2873279 147.942003,9.31200434 147.382,8.444 L149.328,8.444 Z" id="Region-Name" fill="#000000"></path>
    </g>
</svg>