<?xml version="1.0" encoding="UTF-8"?>
<svg width="226px" height="27px" viewBox="0 0 226 27" version="1.1" xmlns="http://www.w3.org/2000/svg" xmlns:xlink="http://www.w3.org/1999/xlink">
    <!-- Generator: Sketch 52.6 (67491) - http://www.bohemiancoding.com/sketch -->
    <title>ap-south-1</title>
    <desc>Created with Sketch.</desc>
    <defs>
        <linearGradient x1="50%" y1="0%" x2="50%" y2="100%" id="linearGradient-1">
            <stop stop-color="#FFE4B2" offset="0%"></stop>
            <stop stop-color="#F79800" offset="100%"></stop>
        </linearGradient>
        <linearGradient x1="45.0169613%" y1="100%" x2="68.0818257%" y2="3.3203125%" id="linearGradient-2">
            <stop stop-color="#151443" offset="0%"></stop>
            <stop stop-color="#6D80B2" offset="100%"></stop>
        </linearGradient>
    </defs>
    <g id="ap-south-1" stroke="none" stroke-width="1" fill="none" fill-rule="evenodd">
        <path d="M1,4.99943992 L1,22.0005601 C1,24.2131329 2.78745893,26 4.99706666,26 L212.497605,26 C219.402703,26 225,20.4036174 225,13.5 C225,6.59542597 219.403112,1 212.497605,1 L4.99706666,1 C2.78936616,1 1,2.79033021 1,4.99943992 Z" id="CloudFormation-Launch-Stack-Button" stroke="#0058A5" stroke-width="2" fill="url(#linearGradient-1)"></path>
        <g id="Group" transform="translate(202.000000, 4.000000)">
            <circle id="Oval-1" fill="url(#linearGradient-2)" cx="9.5" cy="9.5" r="9.5"></circle>
            <polygon id="Triangle-1" fill="#FFFFFF" transform="translate(10.500000, 9.500000) rotate(90.000000) translate(-10.500000, -9.500000) " points="10.5 7 15 12 6 12"></polygon>
        </g>
        <path d="M23.944,19 L23.258,16.788 L19.94,16.788 L19.282,19 L17.084,19 L20.5,9.298 L22.81,9.298 L26.226,19 L23.944,19 Z M20.388,15.276 L22.824,15.276 L21.592,11.216 L20.388,15.276 Z M30.328,17.026 C30.328,16.8393324 30.2743339,16.6946672 30.167,16.592 C30.0596661,16.4893328 29.8426683,16.3773339 29.516,16.256 L28.424,15.822 C27.8546638,15.5979989 27.4440013,15.3226683 27.192,14.996 C26.9399987,14.6693317 26.814,14.2540025 26.814,13.75 C26.814,13.1153302 27.0683308,12.6043353 27.577,12.217 C28.0856692,11.8296647 28.7646624,11.636 29.614,11.636 C30.3980039,11.636 31.12133,11.7899985 31.784,12.098 L31.784,13.456 C31.0746631,13.2413323 30.4120031,13.134 29.796,13.134 C29.4133314,13.134 29.1333342,13.1806662 28.956,13.274 C28.7786658,13.3673338 28.69,13.5166656 28.69,13.722 C28.69,13.8806675 28.7436661,14.0089995 28.851,14.107 C28.9583339,14.2050005 29.1846649,14.3239993 29.53,14.464 L30.594,14.898 C31.1726696,15.1313345 31.5856654,15.4019985 31.833,15.71 C32.0803346,16.0180015 32.204,16.4193309 32.204,16.914 C32.204,17.6046701 31.940336,18.1623312 31.413,18.587 C30.885664,19.0116688 30.192671,19.224 29.334,19.224 C28.3726619,19.224 27.523337,19.0326686 26.786,18.65 L26.786,17.292 C27.7100046,17.5813348 28.5546628,17.726 29.32,17.726 C29.9920034,17.726 30.328,17.492669 30.328,17.026 Z M33.576,19 L33.576,11.846 L35.62,11.846 L35.62,19 L33.576,19 Z M34.598,10.74 C34.2433316,10.74 33.9586677,10.642001 33.744,10.446 C33.5293323,10.249999 33.422,9.98400168 33.422,9.648 C33.422,9.31199832 33.5293323,9.04600098 33.744,8.85 C33.9586677,8.65399902 34.2433316,8.556 34.598,8.556 C34.9526684,8.556 35.2373323,8.65399902 35.452,8.85 C35.6666677,9.04600098 35.774,9.31199832 35.774,9.648 C35.774,9.98400168 35.6666677,10.249999 35.452,10.446 C35.2373323,10.642001 34.9526684,10.74 34.598,10.74 Z M41.738,19 L41.57,18.37 C41.2806652,18.6313346 40.9470019,18.8389992 40.569,18.993 C40.1909981,19.1470008 39.8246684,19.224 39.47,19.224 C38.7793299,19.224 38.2263354,19.028002 37.811,18.636 C37.3956646,18.243998 37.188,17.7213366 37.188,17.068 C37.188,16.6199978 37.2999989,16.2256684 37.524,15.885 C37.7480011,15.5443316 38.0699979,15.276001 38.49,15.08 C38.9100021,14.883999 39.4046638,14.786 39.974,14.786 C40.4220022,14.786 40.916664,14.8466661 41.458,14.968 L41.458,14.268 C41.458,13.8386645 41.3693342,13.5446675 41.192,13.386 C41.0146658,13.2273325 40.6880024,13.148 40.212,13.148 C39.4466628,13.148 38.6020046,13.2926652 37.678,13.582 L37.678,12.224 C38.0233351,12.0466658 38.4573307,11.9043339 38.98,11.797 C39.5026693,11.6896661 40.034664,11.636 40.576,11.636 C41.5373381,11.636 42.2396644,11.8296647 42.683,12.217 C43.1263355,12.6043353 43.348,13.2133292 43.348,14.044 L43.348,19 L41.738,19 Z M40.044,17.852 C40.2773345,17.852 40.5176654,17.8006672 40.765,17.698 C41.0123346,17.5953328 41.2433323,17.4553342 41.458,17.278 L41.458,16.06 C41.0473313,15.9946663 40.6786683,15.962 40.352,15.962 C39.5399959,15.962 39.134,16.2886634 39.134,16.942 C39.134,17.2313348 39.2133325,17.4553325 39.372,17.614 C39.5306675,17.7726675 39.7546652,17.852 40.044,17.852 Z M51.132,15.458 L51.132,19 L49.088,19 L49.088,9.298 L52.798,9.298 C53.806005,9.298 54.6039971,9.57333058 55.192,10.124 C55.7800029,10.6746694 56.074,11.4259952 56.074,12.378 C56.074,13.3300048 55.7800029,14.0813306 55.192,14.632 C54.6039971,15.1826694 53.806005,15.458 52.798,15.458 L51.132,15.458 Z M51.132,13.89 L52.56,13.89 C53.026669,13.89 53.3836654,13.7616679 53.631,13.505 C53.8783346,13.2483321 54.002,12.8726691 54.002,12.378 C54.002,11.8833309 53.8783346,11.5076679 53.631,11.251 C53.3836654,10.9943321 53.026669,10.866 52.56,10.866 L51.132,10.866 L51.132,13.89 Z M61.576,19 L61.408,18.37 C61.1186652,18.6313346 60.7850019,18.8389992 60.407,18.993 C60.0289981,19.1470008 59.6626684,19.224 59.308,19.224 C58.6173299,19.224 58.0643354,19.028002 57.649,18.636 C57.2336646,18.243998 57.026,17.7213366 57.026,17.068 C57.026,16.6199978 57.1379989,16.2256684 57.362,15.885 C57.5860011,15.5443316 57.9079979,15.276001 58.328,15.08 C58.7480021,14.883999 59.2426638,14.786 59.812,14.786 C60.2600022,14.786 60.754664,14.8466661 61.296,14.968 L61.296,14.268 C61.296,13.8386645 61.2073342,13.5446675 61.03,13.386 C60.8526658,13.2273325 60.5260024,13.148 60.05,13.148 C59.2846628,13.148 58.4400046,13.2926652 57.516,13.582 L57.516,12.224 C57.8613351,12.0466658 58.2953307,11.9043339 58.818,11.797 C59.3406693,11.6896661 59.872664,11.636 60.414,11.636 C61.3753381,11.636 62.0776645,11.8296647 62.521,12.217 C62.9643356,12.6043353 63.186,13.2133292 63.186,14.044 L63.186,19 L61.576,19 Z M59.882,17.852 C60.1153345,17.852 60.3556654,17.8006672 60.603,17.698 C60.8503346,17.5953328 61.0813323,17.4553342 61.296,17.278 L61.296,16.06 C60.8853313,15.9946663 60.5166683,15.962 60.19,15.962 C59.3779959,15.962 58.972,16.2886634 58.972,16.942 C58.972,17.2313348 59.0513325,17.4553325 59.21,17.614 C59.3686675,17.7726675 59.5926652,17.852 59.882,17.852 Z M70.284,18.692 C70.0319987,18.8413341 69.7286684,18.9556663 69.374,19.035 C69.0193316,19.1143337 68.6506686,19.154 68.268,19.154 C67.1293276,19.154 66.259003,18.8366698 65.657,18.202 C65.054997,17.5673302 64.754,16.6526726 64.754,15.458 C64.754,14.2726607 65.0713302,13.34867 65.706,12.686 C66.3406698,12.02333 67.222661,11.692 68.352,11.692 C69.0333367,11.692 69.6633304,11.8413318 70.242,12.14 L70.242,13.498 C69.6913306,13.3393325 69.1873356,13.26 68.73,13.26 C68.0766634,13.26 67.5960015,13.425665 67.288,13.757 C66.9799985,14.088335 66.826,14.6133297 66.826,15.332 L66.826,15.528 C66.826,16.2373369 66.9776652,16.757665 67.281,17.089 C67.5843349,17.420335 68.0533302,17.586 68.688,17.586 C69.1453356,17.586 69.6773303,17.5020008 70.284,17.334 L70.284,18.692 Z M71.796,19 L71.796,11.846 L73.84,11.846 L73.84,19 L71.796,19 Z M72.818,10.74 C72.4633316,10.74 72.1786677,10.642001 71.964,10.446 C71.7493323,10.249999 71.642,9.98400168 71.642,9.648 C71.642,9.31199832 71.7493323,9.04600098 71.964,8.85 C72.1786677,8.65399902 72.4633316,8.556 72.818,8.556 C73.1726684,8.556 73.4573323,8.65399902 73.672,8.85 C73.8866677,9.04600098 73.994,9.31199832 73.994,9.648 C73.994,9.98400168 73.8866677,10.249999 73.672,10.446 C73.4573323,10.642001 73.1726684,10.74 72.818,10.74 Z M76.206,19 L76.206,13.358 L75.072,13.358 L75.072,12.098 L76.206,11.888 L76.206,11.244 C76.206,9.377324 77.0693247,8.444 78.796,8.444 C79.2533356,8.444 79.6733314,8.52799916 80.056,8.696 L80.056,10.082 C79.7946654,10.0446665 79.5566677,10.026 79.342,10.026 C78.9313313,10.026 78.6466675,10.0983326 78.488,10.243 C78.3293325,10.3876674 78.25,10.6326649 78.25,10.978 L78.25,11.846 L83.038,11.846 L83.038,19 L80.994,19 L80.994,13.358 L78.25,13.358 L78.25,19 L76.206,19 Z M82.016,10.74 C81.6613316,10.74 81.3766677,10.642001 81.162,10.446 C80.9473323,10.249999 80.84,9.98400168 80.84,9.648 C80.84,9.31199832 80.9473323,9.04600098 81.162,8.85 C81.3766677,8.65399902 81.6613316,8.556 82.016,8.556 C82.3706684,8.556 82.6553323,8.65399902 82.87,8.85 C83.0846677,9.04600098 83.192,9.31199832 83.192,9.648 C83.192,9.98400168 83.0846677,10.249999 82.87,10.446 C82.6553323,10.642001 82.3706684,10.74 82.016,10.74 Z M90.22,18.692 C89.9679987,18.8413341 89.6646684,18.9556663 89.31,19.035 C88.9553316,19.1143337 88.5866686,19.154 88.204,19.154 C87.0653276,19.154 86.195003,18.8366698 85.593,18.202 C84.990997,17.5673302 84.69,16.6526726 84.69,15.458 C84.69,14.2726607 85.0073302,13.34867 85.642,12.686 C86.2766698,12.02333 87.158661,11.692 88.288,11.692 C88.9693367,11.692 89.5993304,11.8413318 90.178,12.14 L90.178,13.498 C89.6273306,13.3393325 89.1233356,13.26 88.666,13.26 C88.0126634,13.26 87.5320015,13.425665 87.224,13.757 C86.9159985,14.088335 86.762,14.6133297 86.762,15.332 L86.762,15.528 C86.762,16.2373369 86.9136651,16.757665 87.217,17.089 C87.5203348,17.420335 87.9893302,17.586 88.624,17.586 C89.0813356,17.586 89.6133303,17.5020008 90.22,17.334 L90.22,18.692 Z M97.136,21.016 C96.5013302,20.1293289 96.0160017,19.1470054 95.68,18.069 C95.3439983,16.9909946 95.176,15.8780057 95.176,14.73 C95.176,13.5913276 95.3439983,12.4806721 95.68,11.398 C96.0160017,10.3153279 96.5013302,9.3306711 97.136,8.444 L99.082,8.444 C98.5219972,9.31200434 98.0903349,10.2873279 97.787,11.37 C97.4836652,12.4526721 97.332,13.5726609 97.332,14.73 C97.332,15.8873391 97.4836652,17.0073279 97.787,18.09 C98.0903349,19.1726721 98.5219972,20.1479957 99.082,21.016 L97.136,21.016 Z M108.406,19 L108.406,12.28 L106.264,16.634 L104.388,16.634 L102.246,12.28 L102.246,19 L100.398,19 L100.398,9.298 L102.694,9.298 L105.34,14.814 L108,9.298 L110.254,9.298 L110.254,19 L108.406,19 Z M117.114,19 L116.918,18.244 C116.087329,18.8880032 115.219338,19.21 114.314,19.21 C113.67933,19.21 113.184668,19.0210019 112.83,18.643 C112.475332,18.2649981 112.298,17.74467 112.298,17.082 L112.298,11.846 L114.342,11.846 L114.342,16.508 C114.342,17.2640038 114.668663,17.642 115.322,17.642 C115.807336,17.642 116.283331,17.4926682 116.75,17.194 L116.75,11.846 L118.794,11.846 L118.794,19 L117.114,19 Z M129.616,19 L129.616,14.156 C129.616,13.5213302 129.331336,13.204 128.762,13.204 C128.257997,13.204 127.749336,13.3253321 127.236,13.568 L127.236,19 L125.192,19 L125.192,14.156 C125.192,13.5213302 124.907336,13.204 124.338,13.204 C123.815331,13.204 123.302003,13.3299987 122.798,13.582 L122.798,19 L120.754,19 L120.754,11.846 L122.434,11.846 L122.616,12.532 C123.110669,12.2053317 123.556331,11.974334 123.953,11.839 C124.349669,11.703666 124.757998,11.636 125.178,11.636 C126.018004,11.636 126.610665,11.9346637 126.956,12.532 C127.432002,12.2146651 127.879998,11.9860007 128.3,11.846 C128.720002,11.7059993 129.153998,11.636 129.602,11.636 C130.255337,11.636 130.761665,11.8179982 131.121,12.182 C131.480335,12.5460018 131.66,13.0546634 131.66,13.708 L131.66,19 L129.616,19 Z M133.592,19 L133.592,8.64 L135.636,8.64 L135.636,12.392 C135.906668,12.1586655 136.223998,11.974334 136.588,11.839 C136.952002,11.703666 137.311332,11.636 137.666,11.636 C138.571338,11.636 139.287664,11.96733 139.815,12.63 C140.342336,13.29267 140.606,14.188661 140.606,15.318 C140.606,16.055337 140.484668,16.7133304 140.242,17.292 C139.999332,17.8706696 139.649336,18.325665 139.192,18.657 C138.734664,18.988335 138.207336,19.154 137.61,19.154 C137.180665,19.154 136.779335,19.0793341 136.406,18.93 C136.032665,18.7806659 135.720001,18.570668 135.468,18.3 L135.286,19 L133.592,19 Z M137.008,13.176 C136.522664,13.176 136.065335,13.3019987 135.636,13.554 L135.636,17.236 C136.046669,17.4880013 136.503997,17.614 137.008,17.614 C137.530669,17.614 137.915665,17.4366684 138.163,17.082 C138.410335,16.7273316 138.534,16.1673372 138.534,15.402 C138.534,14.6273295 138.412668,14.0626684 138.17,13.708 C137.927332,13.3533316 137.540003,13.176 137.008,13.176 Z M146.304,19 L146.136,18.37 C145.846665,18.6313346 145.513002,18.8389992 145.135,18.993 C144.756998,19.1470008 144.390668,19.224 144.036,19.224 C143.34533,19.224 142.792335,19.028002 142.377,18.636 C141.961665,18.243998 141.754,17.7213366 141.754,17.068 C141.754,16.6199978 141.865999,16.2256684 142.09,15.885 C142.314001,15.5443316 142.635998,15.276001 143.056,15.08 C143.476002,14.883999 143.970664,14.786 144.54,14.786 C144.988002,14.786 145.482664,14.8466661 146.024,14.968 L146.024,14.268 C146.024,13.8386645 145.935334,13.5446675 145.758,13.386 C145.580666,13.2273325 145.254002,13.148 144.778,13.148 C144.012663,13.148 143.168005,13.2926652 142.244,13.582 L142.244,12.224 C142.589335,12.0466658 143.023331,11.9043339 143.546,11.797 C144.068669,11.6896661 144.600664,11.636 145.142,11.636 C146.103338,11.636 146.805664,11.8296647 147.249,12.217 C147.692336,12.6043353 147.914,13.2133292 147.914,14.044 L147.914,19 L146.304,19 Z M144.61,17.852 C144.843334,17.852 145.083665,17.8006672 145.331,17.698 C145.578335,17.5953328 145.809332,17.4553342 146.024,17.278 L146.024,16.06 C145.613331,15.9946663 145.244668,15.962 144.918,15.962 C144.105996,15.962 143.7,16.2886634 143.7,16.942 C143.7,17.2313348 143.779333,17.4553325 143.938,17.614 C144.096667,17.7726675 144.320665,17.852 144.61,17.852 Z M149.902,19 L149.902,11.846 L151.946,11.846 L151.946,19 L149.902,19 Z M150.924,10.74 C150.569332,10.74 150.284668,10.642001 150.07,10.446 C149.855332,10.249999 149.748,9.98400168 149.748,9.648 C149.748,9.31199832 149.855332,9.04600098 150.07,8.85 C150.284668,8.65399902 150.569332,8.556 150.924,8.556 C151.278668,8.556 151.563332,8.65399902 151.778,8.85 C151.992668,9.04600098 152.1,9.31199832 152.1,9.648 C152.1,9.98400168 151.992668,10.249999 151.778,10.446 C151.563332,10.642001 151.278668,10.74 150.924,10.74 Z M155.124,8.444 C155.75867,9.3306711 156.243998,10.3153279 156.58,11.398 C156.916002,12.4806721 157.084,13.5913276 157.084,14.73 C157.084,15.8780057 156.916002,16.9909946 156.58,18.069 C156.243998,19.1470054 155.75867,20.1293289 155.124,21.016 L153.178,21.016 C153.738003,20.1479957 154.169665,19.1726721 154.473,18.09 C154.776335,17.0073279 154.928,15.8873391 154.928,14.73 C154.928,13.5726609 154.776335,12.4526721 154.473,11.37 C154.169665,10.2873279 153.738003,9.31200434 153.178,8.444 L155.124,8.444 Z" id="Region-Name" fill="#000000"></path>
    </g>
</svg>