<?xml version="1.0" encoding="UTF-8"?>
<svg width="226px" height="27px" viewBox="0 0 226 27" version="1.1" xmlns="http://www.w3.org/2000/svg" xmlns:xlink="http://www.w3.org/1999/xlink">
    <!-- Generator: Sketch 52.6 (67491) - http://www.bohemiancoding.com/sketch -->
    <title>ca-central-1</title>
    <desc>Created with Sketch.</desc>
    <defs>
        <linearGradient x1="50%" y1="0%" x2="50%" y2="100%" id="linearGradient-1">
            <stop stop-color="#FFE4B2" offset="0%"></stop>
            <stop stop-color="#F79800" offset="100%"></stop>
        </linearGradient>
        <linearGradient x1="45.0169613%" y1="100%" x2="68.0818257%" y2="3.3203125%" id="linearGradient-2">
            <stop stop-color="#151443" offset="0%"></stop>
            <stop stop-color="#6D80B2" offset="100%"></stop>
        </linearGradient>
    </defs>
    <g id="ca-central-1" stroke="none" stroke-width="1" fill="none" fill-rule="evenodd">
        <path d="M1,4.99943992 L1,22.0005601 C1,24.2131329 2.78745893,26 4.99706666,26 L212.497605,26 C219.402703,26 225,20.4036174 225,13.5 C225,6.59542597 219.403112,1 212.497605,1 L4.99706666,1 C2.78936616,1 1,2.79033021 1,4.99943992 Z" id="CloudFormation-Launch-Stack-Button" stroke="#0058A5" stroke-width="2" fill="url(#linearGradient-1)"></path>
        <g id="Group" transform="translate(202.000000, 4.000000)">
            <circle id="Oval-1" fill="url(#linearGradient-2)" cx="9.5" cy="9.5" r="9.5"></circle>
            <polygon id="Triangle-1" fill="#FFFFFF" transform="translate(10.500000, 9.500000) rotate(90.000000) translate(-10.500000, -9.500000) " points="10.5 7 15 12 6 12"></polygon>
        </g>
        <path d="M25.176,18.748 C24.4199962,19.0373348 23.575338,19.182 22.642,19.182 C21.0646588,19.182 19.8700041,18.7596709 19.058,17.915 C18.2459959,17.0703291 17.84,15.8313415 17.84,14.198 C17.84,12.5833253 18.2646624,11.3326711 19.114,10.446 C19.9633376,9.5593289 21.1579923,9.116 22.698,9.116 C23.5193374,9.116 24.298663,9.24666536 25.036,9.508 L25.036,11.16 C24.1866624,10.9733324 23.491336,10.88 22.95,10.88 C21.9793285,10.88 21.2536691,11.1366641 20.773,11.65 C20.2923309,12.1633359 20.052,12.9473281 20.052,14.002 L20.052,14.324 C20.052,15.3693386 20.285331,16.1463308 20.752,16.655 C21.218669,17.1636692 21.9326619,17.418 22.894,17.418 C23.435336,17.418 24.1959951,17.3106677 25.176,17.096 L25.176,18.748 Z M30.692,19 L30.524,18.37 C30.2346652,18.6313346 29.9010019,18.8389992 29.523,18.993 C29.1449981,19.1470008 28.7786684,19.224 28.424,19.224 C27.7333299,19.224 27.1803354,19.028002 26.765,18.636 C26.3496646,18.243998 26.142,17.7213366 26.142,17.068 C26.142,16.6199978 26.2539989,16.2256684 26.478,15.885 C26.7020011,15.5443316 27.0239979,15.276001 27.444,15.08 C27.8640021,14.883999 28.3586638,14.786 28.928,14.786 C29.3760022,14.786 29.870664,14.8466661 30.412,14.968 L30.412,14.268 C30.412,13.8386645 30.3233342,13.5446675 30.146,13.386 C29.9686658,13.2273325 29.6420024,13.148 29.166,13.148 C28.4006628,13.148 27.5560046,13.2926652 26.632,13.582 L26.632,12.224 C26.9773351,12.0466658 27.4113307,11.9043339 27.934,11.797 C28.4566693,11.6896661 28.988664,11.636 29.53,11.636 C30.4913381,11.636 31.1936644,11.8296647 31.637,12.217 C32.0803356,12.6043353 32.302,13.2133292 32.302,14.044 L32.302,19 L30.692,19 Z M28.998,17.852 C29.2313345,17.852 29.4716654,17.8006672 29.719,17.698 C29.9663346,17.5953328 30.1973323,17.4553342 30.412,17.278 L30.412,16.06 C30.0013313,15.9946663 29.6326683,15.962 29.306,15.962 C28.4939959,15.962 28.088,16.2886634 28.088,16.942 C28.088,17.2313348 28.1673325,17.4553325 28.326,17.614 C28.4846675,17.7726675 28.7086652,17.852 28.998,17.852 Z M38.826,19 L38.826,14.31 C38.826,13.9273314 38.7420008,13.6473342 38.574,13.47 C38.4059992,13.2926658 38.1493351,13.204 37.804,13.204 C37.2906641,13.204 36.7820025,13.3626651 36.278,13.68 L36.278,19 L34.234,19 L34.234,11.846 L35.914,11.846 L36.11,12.616 C36.9500042,11.9626634 37.8459952,11.636 38.798,11.636 C39.46067,11.636 39.9716649,11.8156649 40.331,12.175 C40.6903351,12.5343351 40.87,13.04533 40.87,13.708 L40.87,19 L38.826,19 Z M46.904,19 L46.736,18.37 C46.4466652,18.6313346 46.1130019,18.8389992 45.735,18.993 C45.3569981,19.1470008 44.9906684,19.224 44.636,19.224 C43.9453299,19.224 43.3923354,19.028002 42.977,18.636 C42.5616646,18.243998 42.354,17.7213366 42.354,17.068 C42.354,16.6199978 42.4659989,16.2256684 42.69,15.885 C42.9140011,15.5443316 43.2359979,15.276001 43.656,15.08 C44.0760021,14.883999 44.5706638,14.786 45.14,14.786 C45.5880022,14.786 46.082664,14.8466661 46.624,14.968 L46.624,14.268 C46.624,13.8386645 46.5353342,13.5446675 46.358,13.386 C46.1806658,13.2273325 45.8540024,13.148 45.378,13.148 C44.6126628,13.148 43.7680046,13.2926652 42.844,13.582 L42.844,12.224 C43.1893351,12.0466658 43.6233307,11.9043339 44.146,11.797 C44.6686693,11.6896661 45.200664,11.636 45.742,11.636 C46.7033381,11.636 47.4056644,11.8296647 47.849,12.217 C48.2923355,12.6043353 48.514,13.2133292 48.514,14.044 L48.514,19 L46.904,19 Z M45.21,17.852 C45.4433345,17.852 45.6836654,17.8006672 45.931,17.698 C46.1783346,17.5953328 46.4093323,17.4553342 46.624,17.278 L46.624,16.06 C46.2133313,15.9946663 45.8446683,15.962 45.518,15.962 C44.7059959,15.962 44.3,16.2886634 44.3,16.942 C44.3,17.2313348 44.3793325,17.4553325 44.538,17.614 C44.6966675,17.7726675 44.9206652,17.852 45.21,17.852 Z M55.276,19 L55.108,18.37 C54.5293304,18.8926693 53.8433373,19.154 53.05,19.154 C52.4619971,19.154 51.9440022,19.0070015 51.496,18.713 C51.0479978,18.4189985 50.7003346,17.9920028 50.453,17.432 C50.2056654,16.8719972 50.082,16.2140038 50.082,15.458 C50.082,14.3006609 50.3573306,13.3743368 50.908,12.679 C51.4586694,11.9836632 52.1866621,11.636 53.092,11.636 C53.829337,11.636 54.468664,11.8459979 55.01,12.266 L55.01,8.64 L57.054,8.64 L57.054,19 L55.276,19 Z M53.722,17.614 C54.1700022,17.614 54.5993313,17.4833346 55.01,17.222 L55.01,13.526 C54.6086647,13.2926655 54.1466693,13.176 53.624,13.176 C53.1293309,13.176 52.7606679,13.3603315 52.518,13.729 C52.2753321,14.0976685 52.154,14.6553296 52.154,15.402 C52.154,16.1486704 52.282332,16.7039982 52.539,17.068 C52.7956679,17.4320018 53.1899973,17.614 53.722,17.614 Z M63.116,19 L62.948,18.37 C62.6586652,18.6313346 62.3250019,18.8389992 61.947,18.993 C61.5689981,19.1470008 61.2026684,19.224 60.848,19.224 C60.1573299,19.224 59.6043354,19.028002 59.189,18.636 C58.7736646,18.243998 58.566,17.7213366 58.566,17.068 C58.566,16.6199978 58.6779989,16.2256684 58.902,15.885 C59.1260011,15.5443316 59.4479979,15.276001 59.868,15.08 C60.2880021,14.883999 60.7826638,14.786 61.352,14.786 C61.8000022,14.786 62.294664,14.8466661 62.836,14.968 L62.836,14.268 C62.836,13.8386645 62.7473342,13.5446675 62.57,13.386 C62.3926658,13.2273325 62.0660024,13.148 61.59,13.148 C60.8246628,13.148 59.9800046,13.2926652 59.056,13.582 L59.056,12.224 C59.4013351,12.0466658 59.8353307,11.9043339 60.358,11.797 C60.8806693,11.6896661 61.412664,11.636 61.954,11.636 C62.9153381,11.636 63.6176644,11.8296647 64.061,12.217 C64.5043355,12.6043353 64.726,13.2133292 64.726,14.044 L64.726,19 L63.116,19 Z M61.422,17.852 C61.6553345,17.852 61.8956654,17.8006672 62.143,17.698 C62.3903346,17.5953328 62.6213323,17.4553342 62.836,17.278 L62.836,16.06 C62.4253313,15.9946663 62.0566683,15.962 61.73,15.962 C60.9179959,15.962 60.512,16.2886634 60.512,16.942 C60.512,17.2313348 60.5913325,17.4553325 60.75,17.614 C60.9086675,17.7726675 61.1326652,17.852 61.422,17.852 Z M72.118,21.016 C71.4833302,20.1293289 70.9980017,19.1470054 70.662,18.069 C70.3259983,16.9909946 70.158,15.8780057 70.158,14.73 C70.158,13.5913276 70.3259983,12.4806721 70.662,11.398 C70.9980017,10.3153279 71.4833302,9.3306711 72.118,8.444 L74.064,8.444 C73.5039972,9.31200434 73.0723348,10.2873279 72.769,11.37 C72.4656651,12.4526721 72.314,13.5726609 72.314,14.73 C72.314,15.8873391 72.4656651,17.0073279 72.769,18.09 C73.0723348,19.1726721 73.5039972,20.1479957 74.064,21.016 L72.118,21.016 Z M82.436,18.748 C81.6799962,19.0373348 80.835338,19.182 79.902,19.182 C78.3246588,19.182 77.1300041,18.7596709 76.318,17.915 C75.5059959,17.0703291 75.1,15.8313415 75.1,14.198 C75.1,12.5833253 75.5246624,11.3326711 76.374,10.446 C77.2233376,9.5593289 78.4179923,9.116 79.958,9.116 C80.7793374,9.116 81.558663,9.24666536 82.296,9.508 L82.296,11.16 C81.4466624,10.9733324 80.751336,10.88 80.21,10.88 C79.2393285,10.88 78.5136691,11.1366641 78.033,11.65 C77.5523309,12.1633359 77.312,12.9473281 77.312,14.002 L77.312,14.324 C77.312,15.3693386 77.545331,16.1463308 78.012,16.655 C78.478669,17.1636692 79.1926619,17.418 80.154,17.418 C80.695336,17.418 81.4559951,17.3106677 82.436,17.096 L82.436,18.748 Z M85.376,15.92 C85.4133335,16.5360031 85.5999983,16.9816653 85.936,17.257 C86.2720017,17.5323347 86.7993297,17.67 87.518,17.67 C88.1433365,17.67 88.8713292,17.5533345 89.702,17.32 L89.702,18.678 C89.3753317,18.8460008 88.9856689,18.9766662 88.533,19.07 C88.0803311,19.1633338 87.6113358,19.21 87.126,19.21 C85.9406607,19.21 85.0376698,18.8880032 84.417,18.244 C83.7963302,17.5999968 83.486,16.6573395 83.486,15.416 C83.486,14.2213274 83.7939969,13.29267 84.41,12.63 C85.0260031,11.96733 85.8799945,11.636 86.972,11.636 C87.8960046,11.636 88.6076642,11.8903308 89.107,12.399 C89.6063358,12.9076692 89.856,13.6333286 89.856,14.576 C89.856,14.7813344 89.8420001,15.0146654 89.814,15.276 C89.7859999,15.5373346 89.7533335,15.7519992 89.716,15.92 L85.376,15.92 Z M86.902,13.05 C86.4446644,13.05 86.0830013,13.1876653 85.817,13.463 C85.5509987,13.7383347 85.3993335,14.1373307 85.362,14.66 L88.106,14.66 L88.106,14.422 C88.106,13.5073288 87.7046707,13.05 86.902,13.05 Z M96.016,19 L96.016,14.31 C96.016,13.9273314 95.9320008,13.6473342 95.764,13.47 C95.5959992,13.2926658 95.3393351,13.204 94.994,13.204 C94.4806641,13.204 93.9720025,13.3626651 93.468,13.68 L93.468,19 L91.424,19 L91.424,11.846 L93.104,11.846 L93.3,12.616 C94.1400042,11.9626634 95.0359952,11.636 95.988,11.636 C96.65067,11.636 97.1616649,11.8156649 97.521,12.175 C97.8803351,12.5343351 98.06,13.04533 98.06,13.708 L98.06,19 L96.016,19 Z M104.248,18.818 C103.743997,19.014001 103.179336,19.112 102.554,19.112 C101.760663,19.112 101.175002,18.9253352 100.797,18.552 C100.418998,18.1786648 100.23,17.6000039 100.23,16.816 L100.23,13.358 L99.152,13.358 L99.152,12.098 L100.286,11.874 L100.594,9.914 L102.274,9.914 L102.274,11.846 L104.206,11.846 L104.206,13.358 L102.274,13.358 L102.274,16.718 C102.274,17.0166682 102.348666,17.2266661 102.498,17.348 C102.647334,17.4693339 102.899332,17.53 103.254,17.53 C103.543335,17.53 103.874665,17.5020003 104.248,17.446 L104.248,18.818 Z M105.508,19 L105.508,11.846 L107.188,11.846 L107.44,12.91 C107.813335,12.4993313 108.165665,12.2076675 108.497,12.035 C108.828335,11.8623325 109.180665,11.776 109.554,11.776 C109.731334,11.776 109.917999,11.7899999 110.114,11.818 L110.114,13.708 C109.852665,13.6519997 109.563335,13.624 109.246,13.624 C108.63933,13.624 108.074669,13.7313323 107.552,13.946 L107.552,19 L105.508,19 Z M115.28,19 L115.112,18.37 C114.822665,18.6313346 114.489002,18.8389992 114.111,18.993 C113.732998,19.1470008 113.366668,19.224 113.012,19.224 C112.32133,19.224 111.768335,19.028002 111.353,18.636 C110.937665,18.243998 110.73,17.7213366 110.73,17.068 C110.73,16.6199978 110.841999,16.2256684 111.066,15.885 C111.290001,15.5443316 111.611998,15.276001 112.032,15.08 C112.452002,14.883999 112.946664,14.786 113.516,14.786 C113.964002,14.786 114.458664,14.8466661 115,14.968 L115,14.268 C115,13.8386645 114.911334,13.5446675 114.734,13.386 C114.556666,13.2273325 114.230002,13.148 113.754,13.148 C112.988663,13.148 112.144005,13.2926652 111.22,13.582 L111.22,12.224 C111.565335,12.0466658 111.999331,11.9043339 112.522,11.797 C113.044669,11.6896661 113.576664,11.636 114.118,11.636 C115.079338,11.636 115.781664,11.8296647 116.225,12.217 C116.668336,12.6043353 116.89,13.2133292 116.89,14.044 L116.89,19 L115.28,19 Z M113.586,17.852 C113.819334,17.852 114.059665,17.8006672 114.307,17.698 C114.554335,17.5953328 114.785332,17.4553342 115,17.278 L115,16.06 C114.589331,15.9946663 114.220668,15.962 113.894,15.962 C113.081996,15.962 112.676,16.2886634 112.676,16.942 C112.676,17.2313348 112.755333,17.4553325 112.914,17.614 C113.072667,17.7726675 113.296665,17.852 113.586,17.852 Z M121.972,18.86 C121.579998,19.0186675 121.160002,19.098 120.712,19.098 C119.451994,19.098 118.822,18.3933404 118.822,16.984 L118.822,8.64 L120.866,8.64 L120.866,16.816 C120.866,17.0773346 120.910333,17.2616661 120.999,17.369 C121.087667,17.4763339 121.234666,17.53 121.44,17.53 C121.570667,17.53 121.747999,17.5160001 121.972,17.488 L121.972,18.86 Z M124.534,8.444 C125.16867,9.3306711 125.653998,10.3153279 125.99,11.398 C126.326002,12.4806721 126.494,13.5913276 126.494,14.73 C126.494,15.8780057 126.326002,16.9909946 125.99,18.069 C125.653998,19.1470054 125.16867,20.1293289 124.534,21.016 L122.588,21.016 C123.148003,20.1479957 123.579665,19.1726721 123.883,18.09 C124.186335,17.0073279 124.338,15.8873391 124.338,14.73 C124.338,13.5726609 124.186335,12.4526721 123.883,11.37 C123.579665,10.2873279 123.148003,9.31200434 122.588,8.444 L124.534,8.444 Z" id="Region-Name" fill="#000000"></path>
    </g>
</svg>