<?xml version="1.0" encoding="UTF-8"?>
<svg width="226px" height="27px" viewBox="0 0 226 27" version="1.1" xmlns="http://www.w3.org/2000/svg" xmlns:xlink="http://www.w3.org/1999/xlink">
    <!-- Generator: Sketch 52.6 (67491) - http://www.bohemiancoding.com/sketch -->
    <title>eu-central-1</title>
    <desc>Created with Sketch.</desc>
    <defs>
        <linearGradient x1="50%" y1="0%" x2="50%" y2="100%" id="linearGradient-1">
            <stop stop-color="#FFE4B2" offset="0%"></stop>
            <stop stop-color="#F79800" offset="100%"></stop>
        </linearGradient>
        <linearGradient x1="45.0169613%" y1="100%" x2="68.0818257%" y2="3.3203125%" id="linearGradient-2">
            <stop stop-color="#151443" offset="0%"></stop>
            <stop stop-color="#6D80B2" offset="100%"></stop>
        </linearGradient>
    </defs>
    <g id="eu-central-1" stroke="none" stroke-width="1" fill="none" fill-rule="evenodd">
        <path d="M1,4.99943992 L1,22.0005601 C1,24.2131329 2.78745893,26 4.99706666,26 L212.497605,26 C219.402703,26 225,20.4036174 225,13.5 C225,6.59542597 219.403112,1 212.497605,1 L4.99706666,1 C2.78936616,1 1,2.79033021 1,4.99943992 Z" id="CloudFormation-Launch-Stack-Button" stroke="#0058A5" stroke-width="2" fill="url(#linearGradient-1)"></path>
        <g id="Group" transform="translate(202.000000, 4.000000)">
            <circle id="Oval-1" fill="url(#linearGradient-2)" cx="9.5" cy="9.5" r="9.5"></circle>
            <polygon id="Triangle-1" fill="#FFFFFF" transform="translate(10.500000, 9.500000) rotate(90.000000) translate(-10.500000, -9.500000) " points="10.5 7 15 12 6 12"></polygon>
        </g>
        <path d="M18.12,19 L18.12,9.298 L24.504,9.298 L24.504,10.922 L20.22,10.922 L20.22,13.218 L23.706,13.218 L23.706,14.842 L20.22,14.842 L20.22,17.376 L24.504,17.376 L24.504,19 L18.12,19 Z M32.064,9.298 L34.164,9.298 L34.164,15.444 C34.164,16.648006 33.8163368,17.58133 33.121,18.244 C32.4256632,18.90667 31.4386731,19.238 30.16,19.238 C28.8813269,19.238 27.8943368,18.9090033 27.199,18.251 C26.5036632,17.5929967 26.156,16.6526728 26.156,15.43 L26.156,9.298 L28.256,9.298 L28.256,15.528 C28.256,16.1813366 28.4193317,16.6783316 28.746,17.019 C29.0726683,17.3596684 29.5439969,17.53 30.16,17.53 C30.7760031,17.53 31.2473317,17.3596684 31.574,17.019 C31.9006683,16.6783316 32.064,16.1813366 32.064,15.528 L32.064,9.298 Z M41.668,21.016 C41.0333302,20.1293289 40.5480017,19.1470054 40.212,18.069 C39.8759983,16.9909946 39.708,15.8780057 39.708,14.73 C39.708,13.5913276 39.8759983,12.4806721 40.212,11.398 C40.5480017,10.3153279 41.0333302,9.3306711 41.668,8.444 L43.614,8.444 C43.0539972,9.31200434 42.6223349,10.2873279 42.319,11.37 C42.0156652,12.4526721 41.864,13.5726609 41.864,14.73 C41.864,15.8873391 42.0156652,17.0073279 42.319,18.09 C42.6223349,19.1726721 43.0539972,20.1479957 43.614,21.016 L41.668,21.016 Z M44.93,19 L44.93,9.298 L51.034,9.298 L51.034,10.922 L47.03,10.922 L47.03,13.358 L50.222,13.358 L50.222,14.982 L47.03,14.982 L47.03,19 L44.93,19 Z M52.21,19 L52.21,11.846 L53.89,11.846 L54.142,12.91 C54.5153352,12.4993313 54.867665,12.2076675 55.199,12.035 C55.530335,11.8623325 55.8826648,11.776 56.256,11.776 C56.4333342,11.776 56.619999,11.7899999 56.816,11.818 L56.816,13.708 C56.5546654,13.6519997 56.2653349,13.624 55.948,13.624 C55.3413303,13.624 54.7766693,13.7313323 54.254,13.946 L54.254,19 L52.21,19 Z M61.982,19 L61.814,18.37 C61.5246652,18.6313346 61.1910019,18.8389992 60.813,18.993 C60.4349981,19.1470008 60.0686684,19.224 59.714,19.224 C59.0233299,19.224 58.4703354,19.028002 58.055,18.636 C57.6396646,18.243998 57.432,17.7213366 57.432,17.068 C57.432,16.6199978 57.5439989,16.2256684 57.768,15.885 C57.9920011,15.5443316 58.3139979,15.276001 58.734,15.08 C59.1540021,14.883999 59.6486638,14.786 60.218,14.786 C60.6660022,14.786 61.160664,14.8466661 61.702,14.968 L61.702,14.268 C61.702,13.8386645 61.6133342,13.5446675 61.436,13.386 C61.2586658,13.2273325 60.9320024,13.148 60.456,13.148 C59.6906628,13.148 58.8460046,13.2926652 57.922,13.582 L57.922,12.224 C58.2673351,12.0466658 58.7013307,11.9043339 59.224,11.797 C59.7466693,11.6896661 60.278664,11.636 60.82,11.636 C61.7813381,11.636 62.4836645,11.8296647 62.927,12.217 C63.3703356,12.6043353 63.592,13.2133292 63.592,14.044 L63.592,19 L61.982,19 Z M60.288,17.852 C60.5213345,17.852 60.7616654,17.8006672 61.009,17.698 C61.2563346,17.5953328 61.4873323,17.4553342 61.702,17.278 L61.702,16.06 C61.2913313,15.9946663 60.9226683,15.962 60.596,15.962 C59.7839959,15.962 59.378,16.2886634 59.378,16.942 C59.378,17.2313348 59.4573325,17.4553325 59.616,17.614 C59.7746675,17.7726675 59.9986652,17.852 60.288,17.852 Z M70.116,19 L70.116,14.31 C70.116,13.9273314 70.0320008,13.6473342 69.864,13.47 C69.6959992,13.2926658 69.4393351,13.204 69.094,13.204 C68.5806641,13.204 68.0720025,13.3626651 67.568,13.68 L67.568,19 L65.524,19 L65.524,11.846 L67.204,11.846 L67.4,12.616 C68.2400042,11.9626634 69.1359952,11.636 70.088,11.636 C70.75067,11.636 71.2616649,11.8156649 71.621,12.175 C71.9803351,12.5343351 72.16,13.04533 72.16,13.708 L72.16,19 L70.116,19 Z M74.092,19 L74.092,8.64 L76.122,8.64 L76.122,14.898 L78.6,11.846 L81.036,11.846 L78.082,15.262 L81.26,19 L78.768,19 L76.122,15.738 L76.122,19 L74.092,19 Z M82.87,19 L82.87,13.358 L81.736,13.358 L81.736,12.098 L82.87,11.888 L82.87,11.244 C82.87,10.3013286 83.0869978,9.59900231 83.521,9.137 C83.9550022,8.67499769 84.6153289,8.444 85.502,8.444 C85.7540013,8.444 86.015332,8.46966641 86.286,8.521 C86.556668,8.57233359 86.7946656,8.63999958 87,8.724 L87,10.11 C86.6266648,10.0539997 86.3093346,10.026 86.048,10.026 C85.6186645,10.026 85.3223342,10.0959993 85.159,10.236 C84.9956658,10.3760007 84.914,10.6233316 84.914,10.978 L84.914,11.846 L86.916,11.846 L86.916,13.358 L84.914,13.358 L84.914,19 L82.87,19 Z M92.712,19 L92.516,18.244 C91.6853292,18.8880032 90.8173379,19.21 89.912,19.21 C89.2773302,19.21 88.7826684,19.0210019 88.428,18.643 C88.0733316,18.2649981 87.896,17.74467 87.896,17.082 L87.896,11.846 L89.94,11.846 L89.94,16.508 C89.94,17.2640038 90.2666634,17.642 90.92,17.642 C91.4053358,17.642 91.881331,17.4926682 92.348,17.194 L92.348,11.846 L94.392,11.846 L94.392,19 L92.712,19 Z M96.352,19 L96.352,11.846 L98.032,11.846 L98.284,12.91 C98.6573352,12.4993313 99.009665,12.2076675 99.341,12.035 C99.672335,11.8623325 100.024665,11.776 100.398,11.776 C100.575334,11.776 100.761999,11.7899999 100.958,11.818 L100.958,13.708 C100.696665,13.6519997 100.407335,13.624 100.09,13.624 C99.4833303,13.624 98.9186693,13.7313323 98.396,13.946 L98.396,19 L96.352,19 Z M106.838,18.818 C106.333997,19.014001 105.769336,19.112 105.144,19.112 C104.350663,19.112 103.765002,18.9253352 103.387,18.552 C103.008998,18.1786648 102.82,17.6000039 102.82,16.816 L102.82,13.358 L101.742,13.358 L101.742,12.098 L102.876,11.874 L103.184,9.914 L104.864,9.914 L104.864,11.846 L106.796,11.846 L106.796,13.358 L104.864,13.358 L104.864,16.718 C104.864,17.0166682 104.938666,17.2266661 105.088,17.348 C105.237334,17.4693339 105.489332,17.53 105.844,17.53 C106.133335,17.53 106.464665,17.5020003 106.838,17.446 L106.838,18.818 Z M109.26,8.444 C109.89467,9.3306711 110.379998,10.3153279 110.716,11.398 C111.052002,12.4806721 111.22,13.5913276 111.22,14.73 C111.22,15.8780057 111.052002,16.9909946 110.716,18.069 C110.379998,19.1470054 109.89467,20.1293289 109.26,21.016 L107.314,21.016 C107.874003,20.1479957 108.305665,19.1726721 108.609,18.09 C108.912335,17.0073279 109.064,15.8873391 109.064,14.73 C109.064,13.5726609 108.912335,12.4526721 108.609,11.37 C108.305665,10.2873279 107.874003,9.31200434 107.314,8.444 L109.26,8.444 Z" id="Region-Name" fill="#000000"></path>
    </g>
</svg>