<?xml version="1.0" encoding="UTF-8"?>
<svg width="226px" height="27px" viewBox="0 0 226 27" version="1.1" xmlns="http://www.w3.org/2000/svg" xmlns:xlink="http://www.w3.org/1999/xlink">
    <!-- Generator: Sketch 52.6 (67491) - http://www.bohemiancoding.com/sketch -->
    <title>eu-north-1</title>
    <desc>Created with Sketch.</desc>
    <defs>
        <linearGradient x1="50%" y1="0%" x2="50%" y2="100%" id="linearGradient-1">
            <stop stop-color="#FFE4B2" offset="0%"></stop>
            <stop stop-color="#F79800" offset="100%"></stop>
        </linearGradient>
        <linearGradient x1="45.0169613%" y1="100%" x2="68.0818257%" y2="3.3203125%" id="linearGradient-2">
            <stop stop-color="#151443" offset="0%"></stop>
            <stop stop-color="#6D80B2" offset="100%"></stop>
        </linearGradient>
    </defs>
    <g id="eu-north-1" stroke="none" stroke-width="1" fill="none" fill-rule="evenodd">
        <path d="M1,4.99943992 L1,22.0005601 C1,24.2131329 2.78745893,26 4.99706666,26 L212.497605,26 C219.402703,26 225,20.4036174 225,13.5 C225,6.59542597 219.403112,1 212.497605,1 L4.99706666,1 C2.78936616,1 1,2.79033021 1,4.99943992 Z" id="CloudFormation-Launch-Stack-Button" stroke="#0058A5" stroke-width="2" fill="url(#linearGradient-1)"></path>
        <g id="Group" transform="translate(202.000000, 4.000000)">
            <circle id="Oval-1" fill="url(#linearGradient-2)" cx="9.5" cy="9.5" r="9.5"></circle>
            <polygon id="Triangle-1" fill="#FFFFFF" transform="translate(10.500000, 9.500000) rotate(90.000000) translate(-10.500000, -9.500000) " points="10.5 7 15 12 6 12"></polygon>
        </g>
        <path d="M18.12,19 L18.12,9.298 L24.504,9.298 L24.504,10.922 L20.22,10.922 L20.22,13.218 L23.706,13.218 L23.706,14.842 L20.22,14.842 L20.22,17.376 L24.504,17.376 L24.504,19 L18.12,19 Z M32.064,9.298 L34.164,9.298 L34.164,15.444 C34.164,16.648006 33.8163368,17.58133 33.121,18.244 C32.4256632,18.90667 31.4386731,19.238 30.16,19.238 C28.8813269,19.238 27.8943368,18.9090033 27.199,18.251 C26.5036632,17.5929967 26.156,16.6526728 26.156,15.43 L26.156,9.298 L28.256,9.298 L28.256,15.528 C28.256,16.1813366 28.4193317,16.6783316 28.746,17.019 C29.0726683,17.3596684 29.5439969,17.53 30.16,17.53 C30.7760031,17.53 31.2473317,17.3596684 31.574,17.019 C31.9006683,16.6783316 32.064,16.1813366 32.064,15.528 L32.064,9.298 Z M41.668,21.016 C41.0333302,20.1293289 40.5480017,19.1470054 40.212,18.069 C39.8759983,16.9909946 39.708,15.8780057 39.708,14.73 C39.708,13.5913276 39.8759983,12.4806721 40.212,11.398 C40.5480017,10.3153279 41.0333302,9.3306711 41.668,8.444 L43.614,8.444 C43.0539972,9.31200434 42.6223349,10.2873279 42.319,11.37 C42.0156652,12.4526721 41.864,13.5726609 41.864,14.73 C41.864,15.8873391 42.0156652,17.0073279 42.319,18.09 C42.6223349,19.1726721 43.0539972,20.1479957 43.614,21.016 L41.668,21.016 Z M46.82,14.758 C45.9893292,14.4499985 45.3920018,14.0743356 45.028,13.631 C44.6639982,13.1876644 44.482,12.6253367 44.482,11.944 C44.482,11.0666623 44.8063301,10.3666693 45.455,9.844 C46.1036699,9.32133072 46.9739945,9.06 48.066,9.06 C48.9806712,9.06 49.8766623,9.22799832 50.754,9.564 L50.754,11.16 C49.8486621,10.8799986 49.0086705,10.74 48.234,10.74 C47.1326612,10.74 46.582,11.0946631 46.582,11.804 C46.582,12.0653346 46.6776657,12.2799992 46.869,12.448 C47.0603343,12.6160008 47.4173307,12.7933324 47.94,12.98 L48.976,13.358 C49.8440043,13.6753349 50.4623315,14.0463312 50.831,14.471 C51.1996685,14.8956688 51.384,15.4486633 51.384,16.13 C51.384,17.0913381 51.0386701,17.8496639 50.348,18.405 C49.6573299,18.9603361 48.710006,19.238 47.506,19.238 C46.9833307,19.238 46.4606693,19.1890005 45.938,19.091 C45.4153307,18.9929995 44.9673352,18.8600008 44.594,18.692 L44.594,17.096 C45.060669,17.2360007 45.5599973,17.3479996 46.092,17.432 C46.6240027,17.5160004 47.1046645,17.558 47.534,17.558 C48.0846694,17.558 48.5093318,17.4576677 48.808,17.257 C49.1066682,17.0563323 49.256,16.7693352 49.256,16.396 C49.256,16.1066652 49.1650009,15.8780008 48.983,15.71 C48.8009991,15.5419992 48.4346694,15.3553344 47.884,15.15 L46.82,14.758 Z M57.236,18.818 C56.7319975,19.014001 56.1673365,19.112 55.542,19.112 C54.7486627,19.112 54.1630019,18.9253352 53.785,18.552 C53.4069981,18.1786648 53.218,17.6000039 53.218,16.816 L53.218,13.358 L52.14,13.358 L52.14,12.098 L53.274,11.874 L53.582,9.914 L55.262,9.914 L55.262,11.846 L57.194,11.846 L57.194,13.358 L55.262,13.358 L55.262,16.718 C55.262,17.0166682 55.3366659,17.2266661 55.486,17.348 C55.6353341,17.4693339 55.8873316,17.53 56.242,17.53 C56.5313348,17.53 56.8626648,17.5020003 57.236,17.446 L57.236,18.818 Z M61.674,19.21 C60.5633278,19.21 59.6953365,18.8763367 59.07,18.209 C58.4446635,17.5416633 58.132,16.6106726 58.132,15.416 C58.132,14.2306607 58.4446635,13.3043367 59.07,12.637 C59.6953365,11.9696633 60.5633278,11.636 61.674,11.636 C62.7846722,11.636 63.6526635,11.9696633 64.278,12.637 C64.9033365,13.3043367 65.216,14.2306607 65.216,15.416 C65.216,16.6106726 64.9033365,17.5416633 64.278,18.209 C63.6526635,18.8763367 62.7846722,19.21 61.674,19.21 Z M61.674,17.642 C62.6540049,17.642 63.144,16.9000074 63.144,15.416 C63.144,13.941326 62.6540049,13.204 61.674,13.204 C60.6939951,13.204 60.204,13.941326 60.204,15.416 C60.204,16.9000074 60.6939951,17.642 61.674,17.642 Z M71.978,18.692 C71.7259987,18.8413341 71.4226684,18.9556663 71.068,19.035 C70.7133316,19.1143337 70.3446686,19.154 69.962,19.154 C68.8233276,19.154 67.953003,18.8366698 67.351,18.202 C66.748997,17.5673302 66.448,16.6526726 66.448,15.458 C66.448,14.2726607 66.7653302,13.34867 67.4,12.686 C68.0346698,12.02333 68.916661,11.692 70.046,11.692 C70.7273367,11.692 71.3573304,11.8413318 71.936,12.14 L71.936,13.498 C71.3853306,13.3393325 70.8813356,13.26 70.424,13.26 C69.7706634,13.26 69.2900015,13.425665 68.982,13.757 C68.6739985,14.088335 68.52,14.6133297 68.52,15.332 L68.52,15.528 C68.52,16.2373369 68.6716651,16.757665 68.975,17.089 C69.2783348,17.420335 69.7473302,17.586 70.382,17.586 C70.8393356,17.586 71.3713303,17.5020008 71.978,17.334 L71.978,18.692 Z M73.434,19 L73.434,8.64 L75.464,8.64 L75.464,14.898 L77.942,11.846 L80.378,11.846 L77.424,15.262 L80.602,19 L78.11,19 L75.464,15.738 L75.464,19 L73.434,19 Z M86.174,19 L86.174,14.31 C86.174,13.9273314 86.0900008,13.6473342 85.922,13.47 C85.7539992,13.2926658 85.4973351,13.204 85.152,13.204 C84.6386641,13.204 84.1300025,13.3626651 83.626,13.68 L83.626,19 L81.582,19 L81.582,8.64 L83.626,8.64 L83.626,12.49 C84.4286707,11.9206638 85.2686623,11.636 86.146,11.636 C86.80867,11.636 87.3196649,11.8156649 87.679,12.175 C88.0383351,12.5343351 88.218,13.04533 88.218,13.708 L88.218,19 L86.174,19 Z M93.328,19.21 C92.2173278,19.21 91.3493365,18.8763367 90.724,18.209 C90.0986635,17.5416633 89.786,16.6106726 89.786,15.416 C89.786,14.2306607 90.0986635,13.3043367 90.724,12.637 C91.3493365,11.9696633 92.2173278,11.636 93.328,11.636 C94.4386722,11.636 95.3066635,11.9696633 95.932,12.637 C96.5573365,13.3043367 96.87,14.2306607 96.87,15.416 C96.87,16.6106726 96.5573365,17.5416633 95.932,18.209 C95.3066635,18.8763367 94.4386722,19.21 93.328,19.21 Z M93.328,17.642 C94.3080049,17.642 94.798,16.9000074 94.798,15.416 C94.798,13.941326 94.3080049,13.204 93.328,13.204 C92.3479951,13.204 91.858,13.941326 91.858,15.416 C91.858,16.9000074 92.3479951,17.642 93.328,17.642 Z M101.616,18.86 C101.223998,19.0186675 100.804002,19.098 100.356,19.098 C99.0959937,19.098 98.466,18.3933404 98.466,16.984 L98.466,8.64 L100.51,8.64 L100.51,16.816 C100.51,17.0773346 100.554333,17.2616661 100.643,17.369 C100.731667,17.4763339 100.878666,17.53 101.084,17.53 C101.214667,17.53 101.391999,17.5160001 101.616,17.488 L101.616,18.86 Z M111.878,19 L111.878,14.156 C111.878,13.5213302 111.593336,13.204 111.024,13.204 C110.519997,13.204 110.011336,13.3253321 109.498,13.568 L109.498,19 L107.454,19 L107.454,14.156 C107.454,13.5213302 107.169336,13.204 106.6,13.204 C106.077331,13.204 105.564003,13.3299987 105.06,13.582 L105.06,19 L103.016,19 L103.016,11.846 L104.696,11.846 L104.878,12.532 C105.372669,12.2053317 105.818331,11.974334 106.215,11.839 C106.611669,11.703666 107.019998,11.636 107.44,11.636 C108.280004,11.636 108.872665,11.9346637 109.218,12.532 C109.694002,12.2146651 110.141998,11.9860007 110.562,11.846 C110.982002,11.7059993 111.415998,11.636 111.864,11.636 C112.517337,11.636 113.023665,11.8179982 113.383,12.182 C113.742335,12.5460018 113.922,13.0546634 113.922,13.708 L113.922,19 L111.878,19 Z M117.016,8.444 C117.65067,9.3306711 118.135998,10.3153279 118.472,11.398 C118.808002,12.4806721 118.976,13.5913276 118.976,14.73 C118.976,15.8780057 118.808002,16.9909946 118.472,18.069 C118.135998,19.1470054 117.65067,20.1293289 117.016,21.016 L115.07,21.016 C115.630003,20.1479957 116.061665,19.1726721 116.365,18.09 C116.668335,17.0073279 116.82,15.8873391 116.82,14.73 C116.82,13.5726609 116.668335,12.4526721 116.365,11.37 C116.061665,10.2873279 115.630003,9.31200434 115.07,8.444 L117.016,8.444 Z" id="Region-Name" fill="#000000"></path>
    </g>
</svg>