<?xml version="1.0" encoding="UTF-8"?>
<svg width="226px" height="27px" viewBox="0 0 226 27" version="1.1" xmlns="http://www.w3.org/2000/svg" xmlns:xlink="http://www.w3.org/1999/xlink">
    <!-- Generator: Sketch 52.6 (67491) - http://www.bohemiancoding.com/sketch -->
    <title>eu-west-2</title>
    <desc>Created with Sketch.</desc>
    <defs>
        <linearGradient x1="50%" y1="0%" x2="50%" y2="100%" id="linearGradient-1">
            <stop stop-color="#FFE4B2" offset="0%"></stop>
            <stop stop-color="#F79800" offset="100%"></stop>
        </linearGradient>
        <linearGradient x1="45.0169613%" y1="100%" x2="68.0818257%" y2="3.3203125%" id="linearGradient-2">
            <stop stop-color="#151443" offset="0%"></stop>
            <stop stop-color="#6D80B2" offset="100%"></stop>
        </linearGradient>
    </defs>
    <g id="eu-west-2" stroke="none" stroke-width="1" fill="none" fill-rule="evenodd">
        <path d="M1,4.99943992 L1,22.0005601 C1,24.2131329 2.78745893,26 4.99706666,26 L212.497605,26 C219.402703,26 225,20.4036174 225,13.5 C225,6.59542597 219.403112,1 212.497605,1 L4.99706666,1 C2.78936616,1 1,2.79033021 1,4.99943992 Z" id="CloudFormation-Launch-Stack-Button" stroke="#0058A5" stroke-width="2" fill="url(#linearGradient-1)"></path>
        <g id="Group" transform="translate(202.000000, 4.000000)">
            <circle id="Oval-1" fill="url(#linearGradient-2)" cx="9.5" cy="9.5" r="9.5"></circle>
            <polygon id="Triangle-1" fill="#FFFFFF" transform="translate(10.500000, 9.500000) rotate(90.000000) translate(-10.500000, -9.500000) " points="10.5 7 15 12 6 12"></polygon>
        </g>
        <path d="M18.12,19 L18.12,9.298 L24.504,9.298 L24.504,10.922 L20.22,10.922 L20.22,13.218 L23.706,13.218 L23.706,14.842 L20.22,14.842 L20.22,17.376 L24.504,17.376 L24.504,19 L18.12,19 Z M32.064,9.298 L34.164,9.298 L34.164,15.444 C34.164,16.648006 33.8163368,17.58133 33.121,18.244 C32.4256632,18.90667 31.4386731,19.238 30.16,19.238 C28.8813269,19.238 27.8943368,18.9090033 27.199,18.251 C26.5036632,17.5929967 26.156,16.6526728 26.156,15.43 L26.156,9.298 L28.256,9.298 L28.256,15.528 C28.256,16.1813366 28.4193317,16.6783316 28.746,17.019 C29.0726683,17.3596684 29.5439969,17.53 30.16,17.53 C30.7760031,17.53 31.2473317,17.3596684 31.574,17.019 C31.9006683,16.6783316 32.064,16.1813366 32.064,15.528 L32.064,9.298 Z M41.668,21.016 C41.0333302,20.1293289 40.5480017,19.1470054 40.212,18.069 C39.8759983,16.9909946 39.708,15.8780057 39.708,14.73 C39.708,13.5913276 39.8759983,12.4806721 40.212,11.398 C40.5480017,10.3153279 41.0333302,9.3306711 41.668,8.444 L43.614,8.444 C43.0539972,9.31200434 42.6223349,10.2873279 42.319,11.37 C42.0156652,12.4526721 41.864,13.5726609 41.864,14.73 C41.864,15.8873391 42.0156652,17.0073279 42.319,18.09 C42.6223349,19.1726721 43.0539972,20.1479957 43.614,21.016 L41.668,21.016 Z M44.93,19 L44.93,9.298 L47.03,9.298 L47.03,17.32 L51.286,17.32 L51.286,19 L44.93,19 Z M55.57,19.21 C54.4593278,19.21 53.5913365,18.8763367 52.966,18.209 C52.3406635,17.5416633 52.028,16.6106726 52.028,15.416 C52.028,14.2306607 52.3406635,13.3043367 52.966,12.637 C53.5913365,11.9696633 54.4593278,11.636 55.57,11.636 C56.6806722,11.636 57.5486635,11.9696633 58.174,12.637 C58.7993365,13.3043367 59.112,14.2306607 59.112,15.416 C59.112,16.6106726 58.7993365,17.5416633 58.174,18.209 C57.5486635,18.8763367 56.6806722,19.21 55.57,19.21 Z M55.57,17.642 C56.5500049,17.642 57.04,16.9000074 57.04,15.416 C57.04,13.941326 56.5500049,13.204 55.57,13.204 C54.5899951,13.204 54.1,13.941326 54.1,15.416 C54.1,16.9000074 54.5899951,17.642 55.57,17.642 Z M65.3,19 L65.3,14.31 C65.3,13.9273314 65.2160008,13.6473342 65.048,13.47 C64.8799992,13.2926658 64.6233351,13.204 64.278,13.204 C63.7646641,13.204 63.2560025,13.3626651 62.752,13.68 L62.752,19 L60.708,19 L60.708,11.846 L62.388,11.846 L62.584,12.616 C63.4240042,11.9626634 64.3199952,11.636 65.272,11.636 C65.93467,11.636 66.4456649,11.8156649 66.805,12.175 C67.1643351,12.5343351 67.344,13.04533 67.344,13.708 L67.344,19 L65.3,19 Z M74.106,19 L73.938,18.37 C73.3593304,18.8926693 72.6733373,19.154 71.88,19.154 C71.2919971,19.154 70.7740022,19.0070015 70.326,18.713 C69.8779978,18.4189985 69.5303346,17.9920028 69.283,17.432 C69.0356654,16.8719972 68.912,16.2140038 68.912,15.458 C68.912,14.3006609 69.1873306,13.3743368 69.738,12.679 C70.2886694,11.9836632 71.0166621,11.636 71.922,11.636 C72.659337,11.636 73.298664,11.8459979 73.84,12.266 L73.84,8.64 L75.884,8.64 L75.884,19 L74.106,19 Z M72.552,17.614 C73.0000022,17.614 73.4293313,17.4833346 73.84,17.222 L73.84,13.526 C73.4386647,13.2926655 72.9766693,13.176 72.454,13.176 C71.9593309,13.176 71.5906679,13.3603315 71.348,13.729 C71.1053321,14.0976685 70.984,14.6553296 70.984,15.402 C70.984,16.1486704 71.112332,16.7039982 71.369,17.068 C71.6256679,17.4320018 72.0199973,17.614 72.552,17.614 Z M81.022,19.21 C79.9113278,19.21 79.0433365,18.8763367 78.418,18.209 C77.7926635,17.5416633 77.48,16.6106726 77.48,15.416 C77.48,14.2306607 77.7926635,13.3043367 78.418,12.637 C79.0433365,11.9696633 79.9113278,11.636 81.022,11.636 C82.1326722,11.636 83.0006635,11.9696633 83.626,12.637 C84.2513365,13.3043367 84.564,14.2306607 84.564,15.416 C84.564,16.6106726 84.2513365,17.5416633 83.626,18.209 C83.0006635,18.8763367 82.1326722,19.21 81.022,19.21 Z M81.022,17.642 C82.0020049,17.642 82.492,16.9000074 82.492,15.416 C82.492,13.941326 82.0020049,13.204 81.022,13.204 C80.0419951,13.204 79.552,13.941326 79.552,15.416 C79.552,16.9000074 80.0419951,17.642 81.022,17.642 Z M90.752,19 L90.752,14.31 C90.752,13.9273314 90.6680008,13.6473342 90.5,13.47 C90.3319992,13.2926658 90.0753351,13.204 89.73,13.204 C89.2166641,13.204 88.7080025,13.3626651 88.204,13.68 L88.204,19 L86.16,19 L86.16,11.846 L87.84,11.846 L88.036,12.616 C88.8760042,11.9626634 89.7719952,11.636 90.724,11.636 C91.38667,11.636 91.8976649,11.8156649 92.257,12.175 C92.6163351,12.5343351 92.796,13.04533 92.796,13.708 L92.796,19 L90.752,19 Z M95.89,8.444 C96.5246698,9.3306711 97.0099983,10.3153279 97.346,11.398 C97.6820017,12.4806721 97.85,13.5913276 97.85,14.73 C97.85,15.8780057 97.6820017,16.9909946 97.346,18.069 C97.0099983,19.1470054 96.5246698,20.1293289 95.89,21.016 L93.944,21.016 C94.5040028,20.1479957 94.9356652,19.1726721 95.239,18.09 C95.5423349,17.0073279 95.694,15.8873391 95.694,14.73 C95.694,13.5726609 95.5423349,12.4526721 95.239,11.37 C94.9356652,10.2873279 94.5040028,9.31200434 93.944,8.444 L95.89,8.444 Z" id="Region-Name" fill="#000000"></path>
    </g>
</svg>