<?xml version="1.0" encoding="UTF-8"?>
<svg width="226px" height="27px" viewBox="0 0 226 27" version="1.1" xmlns="http://www.w3.org/2000/svg" xmlns:xlink="http://www.w3.org/1999/xlink">
    <!-- Generator: Sketch 52.6 (67491) - http://www.bohemiancoding.com/sketch -->
    <title>eu-west-3</title>
    <desc>Created with Sketch.</desc>
    <defs>
        <linearGradient x1="50%" y1="0%" x2="50%" y2="100%" id="linearGradient-1">
            <stop stop-color="#FFE4B2" offset="0%"></stop>
            <stop stop-color="#F79800" offset="100%"></stop>
        </linearGradient>
        <linearGradient x1="45.0169613%" y1="100%" x2="68.0818257%" y2="3.3203125%" id="linearGradient-2">
            <stop stop-color="#151443" offset="0%"></stop>
            <stop stop-color="#6D80B2" offset="100%"></stop>
        </linearGradient>
    </defs>
    <g id="eu-west-3" stroke="none" stroke-width="1" fill="none" fill-rule="evenodd">
        <path d="M1,4.99943992 L1,22.0005601 C1,24.2131329 2.78745893,26 4.99706666,26 L212.497605,26 C219.402703,26 225,20.4036174 225,13.5 C225,6.59542597 219.403112,1 212.497605,1 L4.99706666,1 C2.78936616,1 1,2.79033021 1,4.99943992 Z" id="CloudFormation-Launch-Stack-Button" stroke="#0058A5" stroke-width="2" fill="url(#linearGradient-1)"></path>
        <g id="Group" transform="translate(202.000000, 4.000000)">
            <circle id="Oval-1" fill="url(#linearGradient-2)" cx="9.5" cy="9.5" r="9.5"></circle>
            <polygon id="Triangle-1" fill="#FFFFFF" transform="translate(10.500000, 9.500000) rotate(90.000000) translate(-10.500000, -9.500000) " points="10.5 7 15 12 6 12"></polygon>
        </g>
        <path d="M18.12,19 L18.12,9.298 L24.504,9.298 L24.504,10.922 L20.22,10.922 L20.22,13.218 L23.706,13.218 L23.706,14.842 L20.22,14.842 L20.22,17.376 L24.504,17.376 L24.504,19 L18.12,19 Z M32.064,9.298 L34.164,9.298 L34.164,15.444 C34.164,16.648006 33.8163368,17.58133 33.121,18.244 C32.4256632,18.90667 31.4386731,19.238 30.16,19.238 C28.8813269,19.238 27.8943368,18.9090033 27.199,18.251 C26.5036632,17.5929967 26.156,16.6526728 26.156,15.43 L26.156,9.298 L28.256,9.298 L28.256,15.528 C28.256,16.1813366 28.4193317,16.6783316 28.746,17.019 C29.0726683,17.3596684 29.5439969,17.53 30.16,17.53 C30.7760031,17.53 31.2473317,17.3596684 31.574,17.019 C31.9006683,16.6783316 32.064,16.1813366 32.064,15.528 L32.064,9.298 Z M41.668,21.016 C41.0333302,20.1293289 40.5480017,19.1470054 40.212,18.069 C39.8759983,16.9909946 39.708,15.8780057 39.708,14.73 C39.708,13.5913276 39.8759983,12.4806721 40.212,11.398 C40.5480017,10.3153279 41.0333302,9.3306711 41.668,8.444 L43.614,8.444 C43.0539972,9.31200434 42.6223349,10.2873279 42.319,11.37 C42.0156652,12.4526721 41.864,13.5726609 41.864,14.73 C41.864,15.8873391 42.0156652,17.0073279 42.319,18.09 C42.6223349,19.1726721 43.0539972,20.1479957 43.614,21.016 L41.668,21.016 Z M46.974,15.458 L46.974,19 L44.93,19 L44.93,9.298 L48.64,9.298 C49.648005,9.298 50.4459971,9.57333058 51.034,10.124 C51.6220029,10.6746694 51.916,11.4259952 51.916,12.378 C51.916,13.3300048 51.6220029,14.0813306 51.034,14.632 C50.4459971,15.1826694 49.648005,15.458 48.64,15.458 L46.974,15.458 Z M46.974,13.89 L48.402,13.89 C48.868669,13.89 49.2256654,13.7616679 49.473,13.505 C49.7203346,13.2483321 49.844,12.8726691 49.844,12.378 C49.844,11.8833309 49.7203346,11.5076679 49.473,11.251 C49.2256654,10.9943321 48.868669,10.866 48.402,10.866 L46.974,10.866 L46.974,13.89 Z M57.418,19 L57.25,18.37 C56.9606652,18.6313346 56.6270019,18.8389992 56.249,18.993 C55.8709981,19.1470008 55.5046684,19.224 55.15,19.224 C54.4593299,19.224 53.9063354,19.028002 53.491,18.636 C53.0756646,18.243998 52.868,17.7213366 52.868,17.068 C52.868,16.6199978 52.9799989,16.2256684 53.204,15.885 C53.4280011,15.5443316 53.7499979,15.276001 54.17,15.08 C54.5900021,14.883999 55.0846638,14.786 55.654,14.786 C56.1020022,14.786 56.596664,14.8466661 57.138,14.968 L57.138,14.268 C57.138,13.8386645 57.0493342,13.5446675 56.872,13.386 C56.6946658,13.2273325 56.3680024,13.148 55.892,13.148 C55.1266628,13.148 54.2820046,13.2926652 53.358,13.582 L53.358,12.224 C53.7033351,12.0466658 54.1373307,11.9043339 54.66,11.797 C55.1826693,11.6896661 55.714664,11.636 56.256,11.636 C57.2173381,11.636 57.9196644,11.8296647 58.363,12.217 C58.8063356,12.6043353 59.028,13.2133292 59.028,14.044 L59.028,19 L57.418,19 Z M55.724,17.852 C55.9573345,17.852 56.1976654,17.8006672 56.445,17.698 C56.6923346,17.5953328 56.9233323,17.4553342 57.138,17.278 L57.138,16.06 C56.7273313,15.9946663 56.3586683,15.962 56.032,15.962 C55.2199959,15.962 54.814,16.2886634 54.814,16.942 C54.814,17.2313348 54.8933325,17.4553325 55.052,17.614 C55.2106675,17.7726675 55.4346652,17.852 55.724,17.852 Z M60.96,19 L60.96,11.846 L62.64,11.846 L62.892,12.91 C63.2653352,12.4993313 63.617665,12.2076675 63.949,12.035 C64.280335,11.8623325 64.6326648,11.776 65.006,11.776 C65.1833342,11.776 65.369999,11.7899999 65.566,11.818 L65.566,13.708 C65.3046654,13.6519997 65.0153349,13.624 64.698,13.624 C64.0913303,13.624 63.5266693,13.7313323 63.004,13.946 L63.004,19 L60.96,19 Z M66.686,19 L66.686,11.846 L68.73,11.846 L68.73,19 L66.686,19 Z M67.708,10.74 C67.3533316,10.74 67.0686677,10.642001 66.854,10.446 C66.6393323,10.249999 66.532,9.98400168 66.532,9.648 C66.532,9.31199832 66.6393323,9.04600098 66.854,8.85 C67.0686677,8.65399902 67.3533316,8.556 67.708,8.556 C68.0626684,8.556 68.3473323,8.65399902 68.562,8.85 C68.7766677,9.04600098 68.884,9.31199832 68.884,9.648 C68.884,9.98400168 68.7766677,10.249999 68.562,10.446 C68.3473323,10.642001 68.0626684,10.74 67.708,10.74 Z M73.784,17.026 C73.784,16.8393324 73.7303339,16.6946672 73.623,16.592 C73.5156661,16.4893328 73.2986683,16.3773339 72.972,16.256 L71.88,15.822 C71.3106638,15.5979989 70.9000013,15.3226683 70.648,14.996 C70.3959987,14.6693317 70.27,14.2540025 70.27,13.75 C70.27,13.1153302 70.5243308,12.6043353 71.033,12.217 C71.5416692,11.8296647 72.2206624,11.636 73.07,11.636 C73.8540039,11.636 74.57733,11.7899985 75.24,12.098 L75.24,13.456 C74.5306631,13.2413323 73.8680031,13.134 73.252,13.134 C72.8693314,13.134 72.5893342,13.1806662 72.412,13.274 C72.2346658,13.3673338 72.146,13.5166656 72.146,13.722 C72.146,13.8806675 72.1996661,14.0089995 72.307,14.107 C72.4143339,14.2050005 72.6406649,14.3239993 72.986,14.464 L74.05,14.898 C74.6286696,15.1313345 75.0416654,15.4019985 75.289,15.71 C75.5363346,16.0180015 75.66,16.4193309 75.66,16.914 C75.66,17.6046701 75.396336,18.1623312 74.869,18.587 C74.341664,19.0116688 73.648671,19.224 72.79,19.224 C71.8286619,19.224 70.979337,19.0326686 70.242,18.65 L70.242,17.292 C71.1660046,17.5813348 72.0106628,17.726 72.776,17.726 C73.4480034,17.726 73.784,17.492669 73.784,17.026 Z M78.138,8.444 C78.7726698,9.3306711 79.2579983,10.3153279 79.594,11.398 C79.9300017,12.4806721 80.098,13.5913276 80.098,14.73 C80.098,15.8780057 79.9300017,16.9909946 79.594,18.069 C79.2579983,19.1470054 78.7726698,20.1293289 78.138,21.016 L76.192,21.016 C76.7520028,20.1479957 77.1836651,19.1726721 77.487,18.09 C77.7903348,17.0073279 77.942,15.8873391 77.942,14.73 C77.942,13.5726609 77.7903348,12.4526721 77.487,11.37 C77.1836651,10.2873279 76.7520028,9.31200434 76.192,8.444 L78.138,8.444 Z" id="Region-Name" fill="#000000"></path>
    </g>
</svg>