<?xml version="1.0" encoding="UTF-8"?>
<svg width="226px" height="27px" viewBox="0 0 226 27" version="1.1" xmlns="http://www.w3.org/2000/svg" xmlns:xlink="http://www.w3.org/1999/xlink">
    <!-- Generator: Sketch 52.6 (67491) - http://www.bohemiancoding.com/sketch -->
    <title>eu-west-1</title>
    <desc>Created with Sketch.</desc>
    <defs>
        <linearGradient x1="50%" y1="0%" x2="50%" y2="100%" id="linearGradient-1">
            <stop stop-color="#FFE4B2" offset="0%"></stop>
            <stop stop-color="#F79800" offset="100%"></stop>
        </linearGradient>
        <linearGradient x1="45.0169613%" y1="100%" x2="68.0818257%" y2="3.3203125%" id="linearGradient-2">
            <stop stop-color="#151443" offset="0%"></stop>
            <stop stop-color="#6D80B2" offset="100%"></stop>
        </linearGradient>
    </defs>
    <g id="eu-west-1" stroke="none" stroke-width="1" fill="none" fill-rule="evenodd">
        <path d="M1,4.99943992 L1,22.0005601 C1,24.2131329 2.78745893,26 4.99706666,26 L212.497605,26 C219.402703,26 225,20.4036174 225,13.5 C225,6.59542597 219.403112,1 212.497605,1 L4.99706666,1 C2.78936616,1 1,2.79033021 1,4.99943992 Z" id="CloudFormation-Launch-Stack-Button" stroke="#0058A5" stroke-width="2" fill="url(#linearGradient-1)"></path>
        <g id="Group" transform="translate(202.000000, 4.000000)">
            <circle id="Oval-1" fill="url(#linearGradient-2)" cx="9.5" cy="9.5" r="9.5"></circle>
            <polygon id="Triangle-1" fill="#FFFFFF" transform="translate(10.500000, 9.500000) rotate(90.000000) translate(-10.500000, -9.500000) " points="10.5 7 15 12 6 12"></polygon>
        </g>
        <path d="M18.12,19 L18.12,9.298 L24.504,9.298 L24.504,10.922 L20.22,10.922 L20.22,13.218 L23.706,13.218 L23.706,14.842 L20.22,14.842 L20.22,17.376 L24.504,17.376 L24.504,19 L18.12,19 Z M32.064,9.298 L34.164,9.298 L34.164,15.444 C34.164,16.648006 33.8163368,17.58133 33.121,18.244 C32.4256632,18.90667 31.4386731,19.238 30.16,19.238 C28.8813269,19.238 27.8943368,18.9090033 27.199,18.251 C26.5036632,17.5929967 26.156,16.6526728 26.156,15.43 L26.156,9.298 L28.256,9.298 L28.256,15.528 C28.256,16.1813366 28.4193317,16.6783316 28.746,17.019 C29.0726683,17.3596684 29.5439969,17.53 30.16,17.53 C30.7760031,17.53 31.2473317,17.3596684 31.574,17.019 C31.9006683,16.6783316 32.064,16.1813366 32.064,15.528 L32.064,9.298 Z M41.668,21.016 C41.0333302,20.1293289 40.5480017,19.1470054 40.212,18.069 C39.8759983,16.9909946 39.708,15.8780057 39.708,14.73 C39.708,13.5913276 39.8759983,12.4806721 40.212,11.398 C40.5480017,10.3153279 41.0333302,9.3306711 41.668,8.444 L43.614,8.444 C43.0539972,9.31200434 42.6223349,10.2873279 42.319,11.37 C42.0156652,12.4526721 41.864,13.5726609 41.864,14.73 C41.864,15.8873391 42.0156652,17.0073279 42.319,18.09 C42.6223349,19.1726721 43.0539972,20.1479957 43.614,21.016 L41.668,21.016 Z M44.986,19 L44.986,9.298 L47.086,9.298 L47.086,19 L44.986,19 Z M49.242,19 L49.242,11.846 L50.922,11.846 L51.174,12.91 C51.5473352,12.4993313 51.899665,12.2076675 52.231,12.035 C52.562335,11.8623325 52.9146648,11.776 53.288,11.776 C53.4653342,11.776 53.651999,11.7899999 53.848,11.818 L53.848,13.708 C53.5866654,13.6519997 53.2973349,13.624 52.98,13.624 C52.3733303,13.624 51.8086693,13.7313323 51.286,13.946 L51.286,19 L49.242,19 Z M56.438,15.92 C56.4753335,16.5360031 56.6619983,16.9816653 56.998,17.257 C57.3340017,17.5323347 57.8613297,17.67 58.58,17.67 C59.2053365,17.67 59.9333292,17.5533345 60.764,17.32 L60.764,18.678 C60.4373317,18.8460008 60.0476689,18.9766662 59.595,19.07 C59.1423311,19.1633338 58.6733358,19.21 58.188,19.21 C57.0026607,19.21 56.0996698,18.8880032 55.479,18.244 C54.8583302,17.5999968 54.548,16.6573395 54.548,15.416 C54.548,14.2213274 54.8559969,13.29267 55.472,12.63 C56.0880031,11.96733 56.9419945,11.636 58.034,11.636 C58.9580046,11.636 59.6696642,11.8903308 60.169,12.399 C60.6683358,12.9076692 60.918,13.6333286 60.918,14.576 C60.918,14.7813344 60.9040001,15.0146654 60.876,15.276 C60.8479999,15.5373346 60.8153335,15.7519992 60.778,15.92 L56.438,15.92 Z M57.964,13.05 C57.5066644,13.05 57.1450013,13.1876653 56.879,13.463 C56.6129987,13.7383347 56.4613335,14.1373307 56.424,14.66 L59.168,14.66 L59.168,14.422 C59.168,13.5073288 58.7666707,13.05 57.964,13.05 Z M65.636,18.86 C65.243998,19.0186675 64.8240022,19.098 64.376,19.098 C63.1159937,19.098 62.486,18.3933404 62.486,16.984 L62.486,8.64 L64.53,8.64 L64.53,16.816 C64.53,17.0773346 64.5743329,17.2616661 64.663,17.369 C64.7516671,17.4763339 64.8986656,17.53 65.104,17.53 C65.2346673,17.53 65.4119989,17.5160001 65.636,17.488 L65.636,18.86 Z M71.138,19 L70.97,18.37 C70.6806652,18.6313346 70.3470019,18.8389992 69.969,18.993 C69.5909981,19.1470008 69.2246684,19.224 68.87,19.224 C68.1793299,19.224 67.6263354,19.028002 67.211,18.636 C66.7956646,18.243998 66.588,17.7213366 66.588,17.068 C66.588,16.6199978 66.6999989,16.2256684 66.924,15.885 C67.1480011,15.5443316 67.4699979,15.276001 67.89,15.08 C68.3100021,14.883999 68.8046638,14.786 69.374,14.786 C69.8220022,14.786 70.316664,14.8466661 70.858,14.968 L70.858,14.268 C70.858,13.8386645 70.7693342,13.5446675 70.592,13.386 C70.4146658,13.2273325 70.0880024,13.148 69.612,13.148 C68.8466628,13.148 68.0020046,13.2926652 67.078,13.582 L67.078,12.224 C67.4233351,12.0466658 67.8573307,11.9043339 68.38,11.797 C68.9026693,11.6896661 69.434664,11.636 69.976,11.636 C70.9373381,11.636 71.6396644,11.8296647 72.083,12.217 C72.5263355,12.6043353 72.748,13.2133292 72.748,14.044 L72.748,19 L71.138,19 Z M69.444,17.852 C69.6773345,17.852 69.9176654,17.8006672 70.165,17.698 C70.4123346,17.5953328 70.6433323,17.4553342 70.858,17.278 L70.858,16.06 C70.4473313,15.9946663 70.0786683,15.962 69.752,15.962 C68.9399959,15.962 68.534,16.2886634 68.534,16.942 C68.534,17.2313348 68.6133325,17.4553325 68.772,17.614 C68.9306675,17.7726675 69.1546652,17.852 69.444,17.852 Z M79.272,19 L79.272,14.31 C79.272,13.9273314 79.1880008,13.6473342 79.02,13.47 C78.8519992,13.2926658 78.5953351,13.204 78.25,13.204 C77.7366641,13.204 77.2280025,13.3626651 76.724,13.68 L76.724,19 L74.68,19 L74.68,11.846 L76.36,11.846 L76.556,12.616 C77.3960042,11.9626634 78.2919952,11.636 79.244,11.636 C79.90667,11.636 80.4176649,11.8156649 80.777,12.175 C81.1363351,12.5343351 81.316,13.04533 81.316,13.708 L81.316,19 L79.272,19 Z M88.078,19 L87.91,18.37 C87.3313304,18.8926693 86.6453373,19.154 85.852,19.154 C85.2639971,19.154 84.7460022,19.0070015 84.298,18.713 C83.8499978,18.4189985 83.5023346,17.9920028 83.255,17.432 C83.0076654,16.8719972 82.884,16.2140038 82.884,15.458 C82.884,14.3006609 83.1593306,13.3743368 83.71,12.679 C84.2606694,11.9836632 84.9886621,11.636 85.894,11.636 C86.631337,11.636 87.270664,11.8459979 87.812,12.266 L87.812,8.64 L89.856,8.64 L89.856,19 L88.078,19 Z M86.524,17.614 C86.9720022,17.614 87.4013313,17.4833346 87.812,17.222 L87.812,13.526 C87.4106647,13.2926655 86.9486693,13.176 86.426,13.176 C85.9313309,13.176 85.5626679,13.3603315 85.32,13.729 C85.0773321,14.0976685 84.956,14.6553296 84.956,15.402 C84.956,16.1486704 85.0843321,16.7039982 85.341,17.068 C85.597668,17.4320018 85.9919973,17.614 86.524,17.614 Z M92.978,8.444 C93.6126698,9.3306711 94.0979983,10.3153279 94.434,11.398 C94.7700017,12.4806721 94.938,13.5913276 94.938,14.73 C94.938,15.8780057 94.7700017,16.9909946 94.434,18.069 C94.0979983,19.1470054 93.6126698,20.1293289 92.978,21.016 L91.032,21.016 C91.5920028,20.1479957 92.0236651,19.1726721 92.327,18.09 C92.6303348,17.0073279 92.782,15.8873391 92.782,14.73 C92.782,13.5726609 92.6303348,12.4526721 92.327,11.37 C92.0236651,10.2873279 91.5920028,9.31200434 91.032,8.444 L92.978,8.444 Z" id="Region-Name" fill="#000000"></path>
    </g>
</svg>