<?xml version="1.0" encoding="UTF-8"?>
<svg width="226px" height="27px" viewBox="0 0 226 27" version="1.1" xmlns="http://www.w3.org/2000/svg" xmlns:xlink="http://www.w3.org/1999/xlink">
    <!-- Generator: Sketch 52.6 (67491) - http://www.bohemiancoding.com/sketch -->
    <title>sa-east-1</title>
    <desc>Created with Sketch.</desc>
    <defs>
        <linearGradient x1="50%" y1="0%" x2="50%" y2="100%" id="linearGradient-1">
            <stop stop-color="#FFE4B2" offset="0%"></stop>
            <stop stop-color="#F79800" offset="100%"></stop>
        </linearGradient>
        <linearGradient x1="45.0169613%" y1="100%" x2="68.0818257%" y2="3.3203125%" id="linearGradient-2">
            <stop stop-color="#151443" offset="0%"></stop>
            <stop stop-color="#6D80B2" offset="100%"></stop>
        </linearGradient>
    </defs>
    <g id="sa-east-1" stroke="none" stroke-width="1" fill="none" fill-rule="evenodd">
        <path d="M1,4.99943992 L1,22.0005601 C1,24.2131329 2.78745893,26 4.99706666,26 L212.497605,26 C219.402703,26 225,20.4036174 225,13.5 C225,6.59542597 219.403112,1 212.497605,1 L4.99706666,1 C2.78936616,1 1,2.79033021 1,4.99943992 Z" id="CloudFormation-Launch-Stack-Button" stroke="#0058A5" stroke-width="2" fill="url(#linearGradient-1)"></path>
        <g id="Group" transform="translate(202.000000, 4.000000)">
            <circle id="Oval-1" fill="url(#linearGradient-2)" cx="9.5" cy="9.5" r="9.5"></circle>
            <polygon id="Triangle-1" fill="#FFFFFF" transform="translate(10.500000, 9.500000) rotate(90.000000) translate(-10.500000, -9.500000) " points="10.5 7 15 12 6 12"></polygon>
        </g>
        <path d="M20.01,14.758 C19.1793292,14.4499985 18.5820018,14.0743356 18.218,13.631 C17.8539982,13.1876644 17.672,12.6253367 17.672,11.944 C17.672,11.0666623 17.9963301,10.3666693 18.645,9.844 C19.2936699,9.32133072 20.1639945,9.06 21.256,9.06 C22.1706712,9.06 23.0666623,9.22799832 23.944,9.564 L23.944,11.16 C23.0386621,10.8799986 22.1986705,10.74 21.424,10.74 C20.3226612,10.74 19.772,11.0946631 19.772,11.804 C19.772,12.0653346 19.8676657,12.2799992 20.059,12.448 C20.2503343,12.6160008 20.6073307,12.7933324 21.13,12.98 L22.166,13.358 C23.0340043,13.6753349 23.6523315,14.0463312 24.021,14.471 C24.3896685,14.8956688 24.574,15.4486633 24.574,16.13 C24.574,17.0913381 24.2286701,17.8496639 23.538,18.405 C22.8473299,18.9603361 21.900006,19.238 20.696,19.238 C20.1733307,19.238 19.6506693,19.1890005 19.128,19.091 C18.6053307,18.9929995 18.1573352,18.8600008 17.784,18.692 L17.784,17.096 C18.250669,17.2360007 18.7499973,17.3479996 19.282,17.432 C19.8140027,17.5160004 20.2946645,17.558 20.724,17.558 C21.2746694,17.558 21.6993318,17.4576677 21.998,17.257 C22.2966682,17.0563323 22.446,16.7693352 22.446,16.396 C22.446,16.1066652 22.3550009,15.8780008 22.173,15.71 C21.9909991,15.5419992 21.6246694,15.3553344 21.074,15.15 L20.01,14.758 Z M29.348,19.21 C28.2373278,19.21 27.3693365,18.8763367 26.744,18.209 C26.1186635,17.5416633 25.806,16.6106726 25.806,15.416 C25.806,14.2306607 26.1186635,13.3043367 26.744,12.637 C27.3693365,11.9696633 28.2373278,11.636 29.348,11.636 C30.4586722,11.636 31.3266635,11.9696633 31.952,12.637 C32.5773365,13.3043367 32.89,14.2306607 32.89,15.416 C32.89,16.6106726 32.5773365,17.5416633 31.952,18.209 C31.3266635,18.8763367 30.4586722,19.21 29.348,19.21 Z M29.348,17.642 C30.3280049,17.642 30.818,16.9000074 30.818,15.416 C30.818,13.941326 30.3280049,13.204 29.348,13.204 C28.3679951,13.204 27.878,13.941326 27.878,15.416 C27.878,16.9000074 28.3679951,17.642 29.348,17.642 Z M39.246,19 L39.05,18.244 C38.2193292,18.8880032 37.3513379,19.21 36.446,19.21 C35.8113302,19.21 35.3166684,19.0210019 34.962,18.643 C34.6073316,18.2649981 34.43,17.74467 34.43,17.082 L34.43,11.846 L36.474,11.846 L36.474,16.508 C36.474,17.2640038 36.8006634,17.642 37.454,17.642 C37.9393358,17.642 38.415331,17.4926682 38.882,17.194 L38.882,11.846 L40.926,11.846 L40.926,19 L39.246,19 Z M47.142,18.818 C46.6379975,19.014001 46.0733365,19.112 45.448,19.112 C44.6546627,19.112 44.0690019,18.9253352 43.691,18.552 C43.3129981,18.1786648 43.124,17.6000039 43.124,16.816 L43.124,13.358 L42.046,13.358 L42.046,12.098 L43.18,11.874 L43.488,9.914 L45.168,9.914 L45.168,11.846 L47.1,11.846 L47.1,13.358 L45.168,13.358 L45.168,16.718 C45.168,17.0166682 45.2426659,17.2266661 45.392,17.348 C45.5413341,17.4693339 45.7933316,17.53 46.148,17.53 C46.4373348,17.53 46.7686648,17.5020003 47.142,17.446 L47.142,18.818 Z M52.994,19 L52.994,14.31 C52.994,13.9273314 52.9100008,13.6473342 52.742,13.47 C52.5739992,13.2926658 52.3173351,13.204 51.972,13.204 C51.4586641,13.204 50.9500025,13.3626651 50.446,13.68 L50.446,19 L48.402,19 L48.402,8.64 L50.446,8.64 L50.446,12.49 C51.2486707,11.9206638 52.0886623,11.636 52.966,11.636 C53.62867,11.636 54.1396649,11.8156649 54.499,12.175 C54.8583351,12.5343351 55.038,13.04533 55.038,13.708 L55.038,19 L52.994,19 Z M66.602,19 L65.916,16.788 L62.598,16.788 L61.94,19 L59.742,19 L63.158,9.298 L65.468,9.298 L68.884,19 L66.602,19 Z M63.046,15.276 L65.482,15.276 L64.25,11.216 L63.046,15.276 Z M78.81,19 L78.81,14.156 C78.81,13.5213302 78.5253362,13.204 77.956,13.204 C77.4519975,13.204 76.9433359,13.3253321 76.43,13.568 L76.43,19 L74.386,19 L74.386,14.156 C74.386,13.5213302 74.1013362,13.204 73.532,13.204 C73.0093307,13.204 72.4960025,13.3299987 71.992,13.582 L71.992,19 L69.948,19 L69.948,11.846 L71.628,11.846 L71.81,12.532 C72.3046691,12.2053317 72.7503314,11.974334 73.147,11.839 C73.5436687,11.703666 73.9519979,11.636 74.372,11.636 C75.2120042,11.636 75.8046649,11.9346637 76.15,12.532 C76.6260024,12.2146651 77.0739979,11.9860007 77.494,11.846 C77.9140021,11.7059993 78.3479978,11.636 78.796,11.636 C79.4493366,11.636 79.9556649,11.8179982 80.315,12.182 C80.6743351,12.5460018 80.854,13.0546634 80.854,13.708 L80.854,19 L78.81,19 Z M84.312,15.92 C84.3493335,16.5360031 84.5359983,16.9816653 84.872,17.257 C85.2080017,17.5323347 85.7353297,17.67 86.454,17.67 C87.0793365,17.67 87.8073292,17.5533345 88.638,17.32 L88.638,18.678 C88.3113317,18.8460008 87.9216689,18.9766662 87.469,19.07 C87.0163311,19.1633338 86.5473358,19.21 86.062,19.21 C84.8766607,19.21 83.9736698,18.8880032 83.353,18.244 C82.7323302,17.5999968 82.422,16.6573395 82.422,15.416 C82.422,14.2213274 82.7299969,13.29267 83.346,12.63 C83.9620031,11.96733 84.8159945,11.636 85.908,11.636 C86.8320046,11.636 87.5436642,11.8903308 88.043,12.399 C88.5423358,12.9076692 88.792,13.6333286 88.792,14.576 C88.792,14.7813344 88.7780001,15.0146654 88.75,15.276 C88.7219999,15.5373346 88.6893335,15.7519992 88.652,15.92 L84.312,15.92 Z M85.838,13.05 C85.3806644,13.05 85.0190013,13.1876653 84.753,13.463 C84.4869987,13.7383347 84.3353335,14.1373307 84.298,14.66 L87.042,14.66 L87.042,14.422 C87.042,13.5073288 86.6406707,13.05 85.838,13.05 Z M90.36,19 L90.36,11.846 L92.04,11.846 L92.292,12.91 C92.6653352,12.4993313 93.017665,12.2076675 93.349,12.035 C93.680335,11.8623325 94.0326648,11.776 94.406,11.776 C94.5833342,11.776 94.769999,11.7899999 94.966,11.818 L94.966,13.708 C94.7046654,13.6519997 94.4153349,13.624 94.098,13.624 C93.4913303,13.624 92.9266693,13.7313323 92.404,13.946 L92.404,19 L90.36,19 Z M96.086,19 L96.086,11.846 L98.13,11.846 L98.13,19 L96.086,19 Z M97.108,10.74 C96.7533316,10.74 96.4686677,10.642001 96.254,10.446 C96.0393323,10.249999 95.932,9.98400168 95.932,9.648 C95.932,9.31199832 96.0393323,9.04600098 96.254,8.85 C96.4686677,8.65399902 96.7533316,8.556 97.108,8.556 C97.4626684,8.556 97.7473323,8.65399902 97.962,8.85 C98.1766677,9.04600098 98.284,9.31199832 98.284,9.648 C98.284,9.98400168 98.1766677,10.249999 97.962,10.446 C97.7473323,10.642001 97.4626684,10.74 97.108,10.74 Z M105.312,18.692 C105.059999,18.8413341 104.756668,18.9556663 104.402,19.035 C104.047332,19.1143337 103.678669,19.154 103.296,19.154 C102.157328,19.154 101.287003,18.8366698 100.685,18.202 C100.082997,17.5673302 99.782,16.6526726 99.782,15.458 C99.782,14.2726607 100.09933,13.34867 100.734,12.686 C101.36867,12.02333 102.250661,11.692 103.38,11.692 C104.061337,11.692 104.69133,11.8413318 105.27,12.14 L105.27,13.498 C104.719331,13.3393325 104.215336,13.26 103.758,13.26 C103.104663,13.26 102.624002,13.425665 102.316,13.757 C102.007998,14.088335 101.854,14.6133297 101.854,15.332 L101.854,15.528 C101.854,16.2373369 102.005665,16.757665 102.309,17.089 C102.612335,17.420335 103.08133,17.586 103.716,17.586 C104.173336,17.586 104.70533,17.5020008 105.312,17.334 L105.312,18.692 Z M110.87,19 L110.702,18.37 C110.412665,18.6313346 110.079002,18.8389992 109.701,18.993 C109.322998,19.1470008 108.956668,19.224 108.602,19.224 C107.91133,19.224 107.358335,19.028002 106.943,18.636 C106.527665,18.243998 106.32,17.7213366 106.32,17.068 C106.32,16.6199978 106.431999,16.2256684 106.656,15.885 C106.880001,15.5443316 107.201998,15.276001 107.622,15.08 C108.042002,14.883999 108.536664,14.786 109.106,14.786 C109.554002,14.786 110.048664,14.8466661 110.59,14.968 L110.59,14.268 C110.59,13.8386645 110.501334,13.5446675 110.324,13.386 C110.146666,13.2273325 109.820002,13.148 109.344,13.148 C108.578663,13.148 107.734005,13.2926652 106.81,13.582 L106.81,12.224 C107.155335,12.0466658 107.589331,11.9043339 108.112,11.797 C108.634669,11.6896661 109.166664,11.636 109.708,11.636 C110.669338,11.636 111.371664,11.8296647 111.815,12.217 C112.258336,12.6043353 112.48,13.2133292 112.48,14.044 L112.48,19 L110.87,19 Z M109.176,17.852 C109.409334,17.852 109.649665,17.8006672 109.897,17.698 C110.144335,17.5953328 110.375332,17.4553342 110.59,17.278 L110.59,16.06 C110.179331,15.9946663 109.810668,15.962 109.484,15.962 C108.671996,15.962 108.266,16.2886634 108.266,16.942 C108.266,17.2313348 108.345333,17.4553325 108.504,17.614 C108.662667,17.7726675 108.886665,17.852 109.176,17.852 Z M119.872,21.016 C119.23733,20.1293289 118.752002,19.1470054 118.416,18.069 C118.079998,16.9909946 117.912,15.8780057 117.912,14.73 C117.912,13.5913276 118.079998,12.4806721 118.416,11.398 C118.752002,10.3153279 119.23733,9.3306711 119.872,8.444 L121.818,8.444 C121.257997,9.31200434 120.826335,10.2873279 120.523,11.37 C120.219665,12.4526721 120.068,13.5726609 120.068,14.73 C120.068,15.8873391 120.219665,17.0073279 120.523,18.09 C120.826335,19.1726721 121.257997,20.1479957 121.818,21.016 L119.872,21.016 Z M125.024,14.758 C124.193329,14.4499985 123.596002,14.0743356 123.232,13.631 C122.867998,13.1876644 122.686,12.6253367 122.686,11.944 C122.686,11.0666623 123.01033,10.3666693 123.659,9.844 C124.30767,9.32133072 125.177995,9.06 126.27,9.06 C127.184671,9.06 128.080662,9.22799832 128.958,9.564 L128.958,11.16 C128.052662,10.8799986 127.212671,10.74 126.438,10.74 C125.336661,10.74 124.786,11.0946631 124.786,11.804 C124.786,12.0653346 124.881666,12.2799992 125.073,12.448 C125.264334,12.6160008 125.621331,12.7933324 126.144,12.98 L127.18,13.358 C128.048004,13.6753349 128.666331,14.0463312 129.035,14.471 C129.403669,14.8956688 129.588,15.4486633 129.588,16.13 C129.588,17.0913381 129.24267,17.8496639 128.552,18.405 C127.86133,18.9603361 126.914006,19.238 125.71,19.238 C125.187331,19.238 124.664669,19.1890005 124.142,19.091 C123.619331,18.9929995 123.171335,18.8600008 122.798,18.692 L122.798,17.096 C123.264669,17.2360007 123.763997,17.3479996 124.296,17.432 C124.828003,17.5160004 125.308665,17.558 125.738,17.558 C126.288669,17.558 126.713332,17.4576677 127.012,17.257 C127.310668,17.0563323 127.46,16.7693352 127.46,16.396 C127.46,16.1066652 127.369001,15.8780008 127.187,15.71 C127.004999,15.5419992 126.638669,15.3553344 126.088,15.15 L125.024,14.758 Z M135.286,19 L135.118,18.37 C134.828665,18.6313346 134.495002,18.8389992 134.117,18.993 C133.738998,19.1470008 133.372668,19.224 133.018,19.224 C132.32733,19.224 131.774335,19.028002 131.359,18.636 C130.943665,18.243998 130.736,17.7213366 130.736,17.068 C130.736,16.6199978 130.847999,16.2256684 131.072,15.885 C131.296001,15.5443316 131.617998,15.276001 132.038,15.08 C132.458002,14.883999 132.952664,14.786 133.522,14.786 C133.970002,14.786 134.464664,14.8466661 135.006,14.968 L135.006,14.268 C135.006,13.8386645 134.917334,13.5446675 134.74,13.386 C134.562666,13.2273325 134.236002,13.148 133.76,13.148 C132.994663,13.148 132.150005,13.2926652 131.226,13.582 L131.226,12.224 C131.571335,12.0466658 132.005331,11.9043339 132.528,11.797 C133.050669,11.6896661 133.582664,11.636 134.124,11.636 C135.085338,11.636 135.787664,11.8296647 136.231,12.217 C136.674336,12.6043353 136.896,13.2133292 136.896,14.044 L136.896,19 L135.286,19 Z M133.592,17.852 C133.825334,17.852 134.065665,17.8006672 134.313,17.698 C134.560335,17.5953328 134.791332,17.4553342 135.006,17.278 L135.006,16.06 C134.595331,15.9946663 134.226668,15.962 133.9,15.962 C133.087996,15.962 132.682,16.2886634 132.682,16.942 C132.682,17.2313348 132.761333,17.4553325 132.92,17.614 C133.078667,17.7726675 133.302665,17.852 133.592,17.852 Z M134.894,9.592 C135.099334,9.592 135.211333,9.44733478 135.23,9.158 L135.258,8.682 L136.378,8.682 C136.406,8.84066746 136.42,9.02266564 136.42,9.228 C136.42,9.66666886 136.282335,10.0166654 136.007,10.278 C135.731665,10.5393346 135.365336,10.67 134.908,10.67 C134.394664,10.67 133.956002,10.4926684 133.592,10.138 C133.395999,9.9513324 133.260667,9.8346669 133.186,9.788 C133.111333,9.7413331 133.027334,9.718 132.934,9.718 C132.728666,9.718 132.616667,9.86266522 132.598,10.152 L132.57,10.628 L131.45,10.628 C131.422,10.4039989 131.408,10.2220007 131.408,10.082 C131.408,9.64333114 131.545665,9.29333464 131.821,9.032 C132.096335,8.77066536 132.462664,8.64 132.92,8.64 C133.433336,8.64 133.871998,8.81733156 134.236,9.172 C134.432001,9.3586676 134.567333,9.4753331 134.642,9.522 C134.716667,9.5686669 134.800666,9.592 134.894,9.592 Z M142.006,19.21 C140.895328,19.21 140.027336,18.8763367 139.402,18.209 C138.776664,17.5416633 138.464,16.6106726 138.464,15.416 C138.464,14.2306607 138.776664,13.3043367 139.402,12.637 C140.027336,11.9696633 140.895328,11.636 142.006,11.636 C143.116672,11.636 143.984664,11.9696633 144.61,12.637 C145.235336,13.3043367 145.548,14.2306607 145.548,15.416 C145.548,16.6106726 145.235336,17.5416633 144.61,18.209 C143.984664,18.8763367 143.116672,19.21 142.006,19.21 Z M142.006,17.642 C142.986005,17.642 143.476,16.9000074 143.476,15.416 C143.476,13.941326 142.986005,13.204 142.006,13.204 C141.025995,13.204 140.536,13.941326 140.536,15.416 C140.536,16.9000074 141.025995,17.642 142.006,17.642 Z M152.996,15.458 L152.996,19 L150.952,19 L150.952,9.298 L154.662,9.298 C155.670005,9.298 156.467997,9.57333058 157.056,10.124 C157.644003,10.6746694 157.938,11.4259952 157.938,12.378 C157.938,13.3300048 157.644003,14.0813306 157.056,14.632 C156.467997,15.1826694 155.670005,15.458 154.662,15.458 L152.996,15.458 Z M152.996,13.89 L154.424,13.89 C154.890669,13.89 155.247665,13.7616679 155.495,13.505 C155.742335,13.2483321 155.866,12.8726691 155.866,12.378 C155.866,11.8833309 155.742335,11.5076679 155.495,11.251 C155.247665,10.9943321 154.890669,10.866 154.424,10.866 L152.996,10.866 L152.996,13.89 Z M163.44,19 L163.272,18.37 C162.982665,18.6313346 162.649002,18.8389992 162.271,18.993 C161.892998,19.1470008 161.526668,19.224 161.172,19.224 C160.48133,19.224 159.928335,19.028002 159.513,18.636 C159.097665,18.243998 158.89,17.7213366 158.89,17.068 C158.89,16.6199978 159.001999,16.2256684 159.226,15.885 C159.450001,15.5443316 159.771998,15.276001 160.192,15.08 C160.612002,14.883999 161.106664,14.786 161.676,14.786 C162.124002,14.786 162.618664,14.8466661 163.16,14.968 L163.16,14.268 C163.16,13.8386645 163.071334,13.5446675 162.894,13.386 C162.716666,13.2273325 162.390002,13.148 161.914,13.148 C161.148663,13.148 160.304005,13.2926652 159.38,13.582 L159.38,12.224 C159.725335,12.0466658 160.159331,11.9043339 160.682,11.797 C161.204669,11.6896661 161.736664,11.636 162.278,11.636 C163.239338,11.636 163.941664,11.8296647 164.385,12.217 C164.828336,12.6043353 165.05,13.2133292 165.05,14.044 L165.05,19 L163.44,19 Z M161.746,17.852 C161.979334,17.852 162.219665,17.8006672 162.467,17.698 C162.714335,17.5953328 162.945332,17.4553342 163.16,17.278 L163.16,16.06 C162.749331,15.9946663 162.380668,15.962 162.054,15.962 C161.241996,15.962 160.836,16.2886634 160.836,16.942 C160.836,17.2313348 160.915333,17.4553325 161.074,17.614 C161.232667,17.7726675 161.456665,17.852 161.746,17.852 Z M171.742,19 L171.546,18.244 C170.715329,18.8880032 169.847338,19.21 168.942,19.21 C168.30733,19.21 167.812668,19.0210019 167.458,18.643 C167.103332,18.2649981 166.926,17.74467 166.926,17.082 L166.926,11.846 L168.97,11.846 L168.97,16.508 C168.97,17.2640038 169.296663,17.642 169.95,17.642 C170.435336,17.642 170.911331,17.4926682 171.378,17.194 L171.378,11.846 L173.422,11.846 L173.422,19 L171.742,19 Z M178.532,18.86 C178.139998,19.0186675 177.720002,19.098 177.272,19.098 C176.011994,19.098 175.382,18.3933404 175.382,16.984 L175.382,8.64 L177.426,8.64 L177.426,16.816 C177.426,17.0773346 177.470333,17.2616661 177.559,17.369 C177.647667,17.4763339 177.794666,17.53 178,17.53 C178.130667,17.53 178.307999,17.5160001 178.532,17.488 L178.532,18.86 Z M182.97,19.21 C181.859328,19.21 180.991336,18.8763367 180.366,18.209 C179.740664,17.5416633 179.428,16.6106726 179.428,15.416 C179.428,14.2306607 179.740664,13.3043367 180.366,12.637 C180.991336,11.9696633 181.859328,11.636 182.97,11.636 C184.080672,11.636 184.948664,11.9696633 185.574,12.637 C186.199336,13.3043367 186.512,14.2306607 186.512,15.416 C186.512,16.6106726 186.199336,17.5416633 185.574,18.209 C184.948664,18.8763367 184.080672,19.21 182.97,19.21 Z M182.97,17.642 C183.950005,17.642 184.44,16.9000074 184.44,15.416 C184.44,13.941326 183.950005,13.204 182.97,13.204 C181.989995,13.204 181.5,13.941326 181.5,15.416 C181.5,16.9000074 181.989995,17.642 182.97,17.642 Z M189.27,8.444 C189.90467,9.3306711 190.389998,10.3153279 190.726,11.398 C191.062002,12.4806721 191.23,13.5913276 191.23,14.73 C191.23,15.8780057 191.062002,16.9909946 190.726,18.069 C190.389998,19.1470054 189.90467,20.1293289 189.27,21.016 L187.324,21.016 C187.884003,20.1479957 188.315665,19.1726721 188.619,18.09 C188.922335,17.0073279 189.074,15.8873391 189.074,14.73 C189.074,13.5726609 188.922335,12.4526721 188.619,11.37 C188.315665,10.2873279 187.884003,9.31200434 187.324,8.444 L189.27,8.444 Z" id="Region-Name" fill="#000000"></path>
    </g>
</svg>