<?xml version="1.0" encoding="UTF-8"?>
<svg width="226px" height="27px" viewBox="0 0 226 27" version="1.1" xmlns="http://www.w3.org/2000/svg" xmlns:xlink="http://www.w3.org/1999/xlink">
    <!-- Generator: Sketch 52.6 (67491) - http://www.bohemiancoding.com/sketch -->
    <title>us-east-1</title>
    <desc>Created with Sketch.</desc>
    <defs>
        <linearGradient x1="50%" y1="0%" x2="50%" y2="100%" id="linearGradient-1">
            <stop stop-color="#FFE4B2" offset="0%"></stop>
            <stop stop-color="#F79800" offset="100%"></stop>
        </linearGradient>
        <linearGradient x1="45.0169613%" y1="100%" x2="68.0818257%" y2="3.3203125%" id="linearGradient-2">
            <stop stop-color="#151443" offset="0%"></stop>
            <stop stop-color="#6D80B2" offset="100%"></stop>
        </linearGradient>
    </defs>
    <g id="us-east-1" stroke="none" stroke-width="1" fill="none" fill-rule="evenodd">
        <path d="M1,4.99943992 L1,22.0005601 C1,24.2131329 2.78745893,26 4.99706666,26 L212.497605,26 C219.402703,26 225,20.4036174 225,13.5 C225,6.59542597 219.403112,1 212.497605,1 L4.99706666,1 C2.78936616,1 1,2.79033021 1,4.99943992 Z" id="CloudFormation-Launch-Stack-Button" stroke="#0058A5" stroke-width="2" fill="url(#linearGradient-1)"></path>
        <g id="Group" transform="translate(202.000000, 4.000000)">
            <circle id="Oval-1" fill="url(#linearGradient-2)" cx="9.5" cy="9.5" r="9.5"></circle>
            <polygon id="Triangle-1" fill="#FFFFFF" transform="translate(10.500000, 9.500000) rotate(90.000000) translate(-10.500000, -9.500000) " points="10.5 7 15 12 6 12"></polygon>
        </g>
        <path d="M23.972,9.298 L26.072,9.298 L26.072,15.444 C26.072,16.648006 25.7243368,17.58133 25.029,18.244 C24.3336632,18.90667 23.3466731,19.238 22.068,19.238 C20.7893269,19.238 19.8023368,18.9090033 19.107,18.251 C18.4116632,17.5929967 18.064,16.6526728 18.064,15.43 L18.064,9.298 L20.164,9.298 L20.164,15.528 C20.164,16.1813366 20.3273317,16.6783316 20.654,17.019 C20.9806683,17.3596684 21.4519969,17.53 22.068,17.53 C22.6840031,17.53 23.1553317,17.3596684 23.482,17.019 C23.8086683,16.6783316 23.972,16.1813366 23.972,15.528 L23.972,9.298 Z M30.146,14.758 C29.3153292,14.4499985 28.7180018,14.0743356 28.354,13.631 C27.9899982,13.1876644 27.808,12.6253367 27.808,11.944 C27.808,11.0666623 28.1323301,10.3666693 28.781,9.844 C29.4296699,9.32133072 30.2999945,9.06 31.392,9.06 C32.3066712,9.06 33.2026623,9.22799832 34.08,9.564 L34.08,11.16 C33.1746621,10.8799986 32.3346705,10.74 31.56,10.74 C30.4586612,10.74 29.908,11.0946631 29.908,11.804 C29.908,12.0653346 30.0036657,12.2799992 30.195,12.448 C30.3863343,12.6160008 30.7433307,12.7933324 31.266,12.98 L32.302,13.358 C33.1700043,13.6753349 33.7883315,14.0463312 34.157,14.471 C34.5256685,14.8956688 34.71,15.4486633 34.71,16.13 C34.71,17.0913381 34.3646701,17.8496639 33.674,18.405 C32.9833299,18.9603361 32.036006,19.238 30.832,19.238 C30.3093307,19.238 29.7866693,19.1890005 29.264,19.091 C28.7413307,18.9929995 28.2933352,18.8600008 27.92,18.692 L27.92,17.096 C28.386669,17.2360007 28.8859973,17.3479996 29.418,17.432 C29.9500027,17.5160004 30.4306645,17.558 30.86,17.558 C31.4106694,17.558 31.8353318,17.4576677 32.134,17.257 C32.4326682,17.0563323 32.582,16.7693352 32.582,16.396 C32.582,16.1066652 32.4910009,15.8780008 32.309,15.71 C32.1269991,15.5419992 31.7606694,15.3553344 31.21,15.15 L30.146,14.758 Z M40.114,19 L40.114,9.298 L46.498,9.298 L46.498,10.922 L42.214,10.922 L42.214,13.218 L45.7,13.218 L45.7,14.842 L42.214,14.842 L42.214,17.376 L46.498,17.376 L46.498,19 L40.114,19 Z M52.168,19 L52,18.37 C51.7106652,18.6313346 51.3770019,18.8389992 50.999,18.993 C50.6209981,19.1470008 50.2546684,19.224 49.9,19.224 C49.2093299,19.224 48.6563354,19.028002 48.241,18.636 C47.8256646,18.243998 47.618,17.7213366 47.618,17.068 C47.618,16.6199978 47.7299989,16.2256684 47.954,15.885 C48.1780011,15.5443316 48.4999979,15.276001 48.92,15.08 C49.3400021,14.883999 49.8346638,14.786 50.404,14.786 C50.8520022,14.786 51.346664,14.8466661 51.888,14.968 L51.888,14.268 C51.888,13.8386645 51.7993342,13.5446675 51.622,13.386 C51.4446658,13.2273325 51.1180024,13.148 50.642,13.148 C49.8766628,13.148 49.0320046,13.2926652 48.108,13.582 L48.108,12.224 C48.4533351,12.0466658 48.8873307,11.9043339 49.41,11.797 C49.9326693,11.6896661 50.464664,11.636 51.006,11.636 C51.9673381,11.636 52.6696645,11.8296647 53.113,12.217 C53.5563356,12.6043353 53.778,13.2133292 53.778,14.044 L53.778,19 L52.168,19 Z M50.474,17.852 C50.7073345,17.852 50.9476654,17.8006672 51.195,17.698 C51.4423346,17.5953328 51.6733323,17.4553342 51.888,17.278 L51.888,16.06 C51.4773313,15.9946663 51.1086683,15.962 50.782,15.962 C49.9699959,15.962 49.564,16.2886634 49.564,16.942 C49.564,17.2313348 49.6433325,17.4553325 49.802,17.614 C49.9606675,17.7726675 50.1846652,17.852 50.474,17.852 Z M58.748,17.026 C58.748,16.8393324 58.6943339,16.6946672 58.587,16.592 C58.4796661,16.4893328 58.2626683,16.3773339 57.936,16.256 L56.844,15.822 C56.2746638,15.5979989 55.8640013,15.3226683 55.612,14.996 C55.3599987,14.6693317 55.234,14.2540025 55.234,13.75 C55.234,13.1153302 55.4883308,12.6043353 55.997,12.217 C56.5056692,11.8296647 57.1846624,11.636 58.034,11.636 C58.8180039,11.636 59.54133,11.7899985 60.204,12.098 L60.204,13.456 C59.4946631,13.2413323 58.8320031,13.134 58.216,13.134 C57.8333314,13.134 57.5533342,13.1806662 57.376,13.274 C57.1986658,13.3673338 57.11,13.5166656 57.11,13.722 C57.11,13.8806675 57.1636661,14.0089995 57.271,14.107 C57.3783339,14.2050005 57.6046649,14.3239993 57.95,14.464 L59.014,14.898 C59.5926696,15.1313345 60.0056654,15.4019985 60.253,15.71 C60.5003346,16.0180015 60.624,16.4193309 60.624,16.914 C60.624,17.6046701 60.360336,18.1623312 59.833,18.587 C59.305664,19.0116688 58.612671,19.224 57.754,19.224 C56.7926619,19.224 55.943337,19.0326686 55.206,18.65 L55.206,17.292 C56.1300046,17.5813348 56.9746628,17.726 57.74,17.726 C58.4120034,17.726 58.748,17.492669 58.748,17.026 Z M66.196,18.818 C65.6919975,19.014001 65.1273365,19.112 64.502,19.112 C63.7086627,19.112 63.1230019,18.9253352 62.745,18.552 C62.3669981,18.1786648 62.178,17.6000039 62.178,16.816 L62.178,13.358 L61.1,13.358 L61.1,12.098 L62.234,11.874 L62.542,9.914 L64.222,9.914 L64.222,11.846 L66.154,11.846 L66.154,13.358 L64.222,13.358 L64.222,16.718 C64.222,17.0166682 64.2966659,17.2266661 64.446,17.348 C64.5953341,17.4693339 64.8473316,17.53 65.202,17.53 C65.4913348,17.53 65.8226648,17.5020003 66.196,17.446 L66.196,18.818 Z M72.916,21.016 C72.2813302,20.1293289 71.7960017,19.1470054 71.46,18.069 C71.1239983,16.9909946 70.956,15.8780057 70.956,14.73 C70.956,13.5913276 71.1239983,12.4806721 71.46,11.398 C71.7960017,10.3153279 72.2813302,9.3306711 72.916,8.444 L74.862,8.444 C74.3019972,9.31200434 73.8703348,10.2873279 73.567,11.37 C73.2636651,12.4526721 73.112,13.5726609 73.112,14.73 C73.112,15.8873391 73.2636651,17.0073279 73.567,18.09 C73.8703348,19.1726721 74.3019972,20.1479957 74.862,21.016 L72.916,21.016 Z M78.026,12.266 L78.026,19 L76.178,19 L76.178,9.298 L78.418,9.298 L82.366,16.088 L82.366,9.298 L84.214,9.298 L84.214,19 L81.974,19 L78.026,12.266 Z M87.322,19.182 C86.9486648,19.182 86.6453345,19.0653345 86.412,18.832 C86.1786655,18.5986655 86.062,18.2953352 86.062,17.922 C86.062,17.5486648 86.1786655,17.2453345 86.412,17.012 C86.6453345,16.7786655 86.9486648,16.662 87.322,16.662 C87.6953352,16.662 87.9986655,16.7786655 88.232,17.012 C88.4653345,17.2453345 88.582,17.5486648 88.582,17.922 C88.582,18.2953352 88.4653345,18.5986655 88.232,18.832 C87.9986655,19.0653345 87.6953352,19.182 87.322,19.182 Z M96.506,19 L93.062,9.298 L95.386,9.298 L97.654,16.942 L99.908,9.298 L102.176,9.298 L98.732,19 L96.506,19 Z M103.296,19 L103.296,11.846 L105.34,11.846 L105.34,19 L103.296,19 Z M104.318,10.74 C103.963332,10.74 103.678668,10.642001 103.464,10.446 C103.249332,10.249999 103.142,9.98400168 103.142,9.648 C103.142,9.31199832 103.249332,9.04600098 103.464,8.85 C103.678668,8.65399902 103.963332,8.556 104.318,8.556 C104.672668,8.556 104.957332,8.65399902 105.172,8.85 C105.386668,9.04600098 105.494,9.31199832 105.494,9.648 C105.494,9.98400168 105.386668,10.249999 105.172,10.446 C104.957332,10.642001 104.672668,10.74 104.318,10.74 Z M107.356,19 L107.356,11.846 L109.036,11.846 L109.288,12.91 C109.661335,12.4993313 110.013665,12.2076675 110.345,12.035 C110.676335,11.8623325 111.028665,11.776 111.402,11.776 C111.579334,11.776 111.765999,11.7899999 111.962,11.818 L111.962,13.708 C111.700665,13.6519997 111.411335,13.624 111.094,13.624 C110.48733,13.624 109.922669,13.7313323 109.4,13.946 L109.4,19 L107.356,19 Z M117.394,18.132 C116.861997,18.6080024 116.23667,18.846 115.518,18.846 C114.649996,18.846 113.957003,18.5216699 113.439,17.873 C112.920997,17.2243301 112.662,16.3586721 112.662,15.276 C112.662,14.1746612 112.923331,13.29267 113.446,12.63 C113.968669,11.96733 114.668662,11.636 115.546,11.636 C115.938002,11.636 116.306665,11.7059993 116.652,11.846 C116.997335,11.9860007 117.305332,12.191332 117.576,12.462 L117.73,11.846 L119.41,11.846 L119.41,18.44 C119.41,19.5786724 119.09267,20.4653302 118.458,21.1 C117.82333,21.7346698 116.946006,22.052 115.826,22.052 C114.920662,22.052 114.062004,21.8513353 113.25,21.45 L113.25,20.078 C114.174005,20.3673348 114.971997,20.512 115.644,20.512 C116.260003,20.512 116.705665,20.3696681 116.981,20.085 C117.256335,19.8003319 117.394,19.3360032 117.394,18.692 L117.394,18.132 Z M116.148,17.334 C116.362668,17.334 116.579666,17.2990004 116.799,17.229 C117.018334,17.1589996 117.216666,17.0633339 117.394,16.942 L117.394,13.498 C117.011331,13.2646655 116.563336,13.148 116.05,13.148 C115.153996,13.148 114.706,13.8386598 114.706,15.22 C114.706,15.9386703 114.822665,16.4706649 115.056,16.816 C115.289334,17.1613351 115.653331,17.334 116.148,17.334 Z M121.426,19 L121.426,11.846 L123.47,11.846 L123.47,19 L121.426,19 Z M122.448,10.74 C122.093332,10.74 121.808668,10.642001 121.594,10.446 C121.379332,10.249999 121.272,9.98400168 121.272,9.648 C121.272,9.31199832 121.379332,9.04600098 121.594,8.85 C121.808668,8.65399902 122.093332,8.556 122.448,8.556 C122.802668,8.556 123.087332,8.65399902 123.302,8.85 C123.516668,9.04600098 123.624,9.31199832 123.624,9.648 C123.624,9.98400168 123.516668,10.249999 123.302,10.446 C123.087332,10.642001 122.802668,10.74 122.448,10.74 Z M130.078,19 L130.078,14.31 C130.078,13.9273314 129.994001,13.6473342 129.826,13.47 C129.657999,13.2926658 129.401335,13.204 129.056,13.204 C128.542664,13.204 128.034003,13.3626651 127.53,13.68 L127.53,19 L125.486,19 L125.486,11.846 L127.166,11.846 L127.362,12.616 C128.202004,11.9626634 129.097995,11.636 130.05,11.636 C130.71267,11.636 131.223665,11.8156649 131.583,12.175 C131.942335,12.5343351 132.122,13.04533 132.122,13.708 L132.122,19 L130.078,19 Z M134.11,19 L134.11,11.846 L136.154,11.846 L136.154,19 L134.11,19 Z M135.132,10.74 C134.777332,10.74 134.492668,10.642001 134.278,10.446 C134.063332,10.249999 133.956,9.98400168 133.956,9.648 C133.956,9.31199832 134.063332,9.04600098 134.278,8.85 C134.492668,8.65399902 134.777332,8.556 135.132,8.556 C135.486668,8.556 135.771332,8.65399902 135.986,8.85 C136.200668,9.04600098 136.308,9.31199832 136.308,9.648 C136.308,9.98400168 136.200668,10.249999 135.986,10.446 C135.771332,10.642001 135.486668,10.74 135.132,10.74 Z M142.272,19 L142.104,18.37 C141.814665,18.6313346 141.481002,18.8389992 141.103,18.993 C140.724998,19.1470008 140.358668,19.224 140.004,19.224 C139.31333,19.224 138.760335,19.028002 138.345,18.636 C137.929665,18.243998 137.722,17.7213366 137.722,17.068 C137.722,16.6199978 137.833999,16.2256684 138.058,15.885 C138.282001,15.5443316 138.603998,15.276001 139.024,15.08 C139.444002,14.883999 139.938664,14.786 140.508,14.786 C140.956002,14.786 141.450664,14.8466661 141.992,14.968 L141.992,14.268 C141.992,13.8386645 141.903334,13.5446675 141.726,13.386 C141.548666,13.2273325 141.222002,13.148 140.746,13.148 C139.980663,13.148 139.136005,13.2926652 138.212,13.582 L138.212,12.224 C138.557335,12.0466658 138.991331,11.9043339 139.514,11.797 C140.036669,11.6896661 140.568664,11.636 141.11,11.636 C142.071338,11.636 142.773664,11.8296647 143.217,12.217 C143.660336,12.6043353 143.882,13.2133292 143.882,14.044 L143.882,19 L142.272,19 Z M140.578,17.852 C140.811335,17.852 141.051665,17.8006672 141.299,17.698 C141.546335,17.5953328 141.777332,17.4553342 141.992,17.278 L141.992,16.06 C141.581331,15.9946663 141.212668,15.962 140.886,15.962 C140.073996,15.962 139.668,16.2886634 139.668,16.942 C139.668,17.2313348 139.747333,17.4553325 139.906,17.614 C140.064667,17.7726675 140.288665,17.852 140.578,17.852 Z M146.976,8.444 C147.61067,9.3306711 148.095998,10.3153279 148.432,11.398 C148.768002,12.4806721 148.936,13.5913276 148.936,14.73 C148.936,15.8780057 148.768002,16.9909946 148.432,18.069 C148.095998,19.1470054 147.61067,20.1293289 146.976,21.016 L145.03,21.016 C145.590003,20.1479957 146.021665,19.1726721 146.325,18.09 C146.628335,17.0073279 146.78,15.8873391 146.78,14.73 C146.78,13.5726609 146.628335,12.4526721 146.325,11.37 C146.021665,10.2873279 145.590003,9.31200434 145.03,8.444 L146.976,8.444 Z" id="Region-Name" fill="#000000"></path>
    </g>
</svg>