<?xml version="1.0" encoding="UTF-8"?>
<svg width="226px" height="27px" viewBox="0 0 226 27" version="1.1" xmlns="http://www.w3.org/2000/svg" xmlns:xlink="http://www.w3.org/1999/xlink">
    <!-- Generator: Sketch 52.6 (67491) - http://www.bohemiancoding.com/sketch -->
    <title>us-east-2</title>
    <desc>Created with Sketch.</desc>
    <defs>
        <linearGradient x1="50%" y1="0%" x2="50%" y2="100%" id="linearGradient-1">
            <stop stop-color="#FFE4B2" offset="0%"></stop>
            <stop stop-color="#F79800" offset="100%"></stop>
        </linearGradient>
        <linearGradient x1="45.0169613%" y1="100%" x2="68.0818257%" y2="3.3203125%" id="linearGradient-2">
            <stop stop-color="#151443" offset="0%"></stop>
            <stop stop-color="#6D80B2" offset="100%"></stop>
        </linearGradient>
    </defs>
    <g id="us-east-2" stroke="none" stroke-width="1" fill="none" fill-rule="evenodd">
        <path d="M1,4.99943992 L1,22.0005601 C1,24.2131329 2.78745893,26 4.99706666,26 L212.497605,26 C219.402703,26 225,20.4036174 225,13.5 C225,6.59542597 219.403112,1 212.497605,1 L4.99706666,1 C2.78936616,1 1,2.79033021 1,4.99943992 Z" id="CloudFormation-Launch-Stack-Button" stroke="#0058A5" stroke-width="2" fill="url(#linearGradient-1)"></path>
        <g id="Group" transform="translate(202.000000, 4.000000)">
            <circle id="Oval-1" fill="url(#linearGradient-2)" cx="9.5" cy="9.5" r="9.5"></circle>
            <polygon id="Triangle-1" fill="#FFFFFF" transform="translate(10.500000, 9.500000) rotate(90.000000) translate(-10.500000, -9.500000) " points="10.5 7 15 12 6 12"></polygon>
        </g>
        <path d="M23.972,9.298 L26.072,9.298 L26.072,15.444 C26.072,16.648006 25.7243368,17.58133 25.029,18.244 C24.3336632,18.90667 23.3466731,19.238 22.068,19.238 C20.7893269,19.238 19.8023368,18.9090033 19.107,18.251 C18.4116632,17.5929967 18.064,16.6526728 18.064,15.43 L18.064,9.298 L20.164,9.298 L20.164,15.528 C20.164,16.1813366 20.3273317,16.6783316 20.654,17.019 C20.9806683,17.3596684 21.4519969,17.53 22.068,17.53 C22.6840031,17.53 23.1553317,17.3596684 23.482,17.019 C23.8086683,16.6783316 23.972,16.1813366 23.972,15.528 L23.972,9.298 Z M30.146,14.758 C29.3153292,14.4499985 28.7180018,14.0743356 28.354,13.631 C27.9899982,13.1876644 27.808,12.6253367 27.808,11.944 C27.808,11.0666623 28.1323301,10.3666693 28.781,9.844 C29.4296699,9.32133072 30.2999945,9.06 31.392,9.06 C32.3066712,9.06 33.2026623,9.22799832 34.08,9.564 L34.08,11.16 C33.1746621,10.8799986 32.3346705,10.74 31.56,10.74 C30.4586612,10.74 29.908,11.0946631 29.908,11.804 C29.908,12.0653346 30.0036657,12.2799992 30.195,12.448 C30.3863343,12.6160008 30.7433307,12.7933324 31.266,12.98 L32.302,13.358 C33.1700043,13.6753349 33.7883315,14.0463312 34.157,14.471 C34.5256685,14.8956688 34.71,15.4486633 34.71,16.13 C34.71,17.0913381 34.3646701,17.8496639 33.674,18.405 C32.9833299,18.9603361 32.036006,19.238 30.832,19.238 C30.3093307,19.238 29.7866693,19.1890005 29.264,19.091 C28.7413307,18.9929995 28.2933352,18.8600008 27.92,18.692 L27.92,17.096 C28.386669,17.2360007 28.8859973,17.3479996 29.418,17.432 C29.9500027,17.5160004 30.4306645,17.558 30.86,17.558 C31.4106694,17.558 31.8353318,17.4576677 32.134,17.257 C32.4326682,17.0563323 32.582,16.7693352 32.582,16.396 C32.582,16.1066652 32.4910009,15.8780008 32.309,15.71 C32.1269991,15.5419992 31.7606694,15.3553344 31.21,15.15 L30.146,14.758 Z M40.114,19 L40.114,9.298 L46.498,9.298 L46.498,10.922 L42.214,10.922 L42.214,13.218 L45.7,13.218 L45.7,14.842 L42.214,14.842 L42.214,17.376 L46.498,17.376 L46.498,19 L40.114,19 Z M52.168,19 L52,18.37 C51.7106652,18.6313346 51.3770019,18.8389992 50.999,18.993 C50.6209981,19.1470008 50.2546684,19.224 49.9,19.224 C49.2093299,19.224 48.6563354,19.028002 48.241,18.636 C47.8256646,18.243998 47.618,17.7213366 47.618,17.068 C47.618,16.6199978 47.7299989,16.2256684 47.954,15.885 C48.1780011,15.5443316 48.4999979,15.276001 48.92,15.08 C49.3400021,14.883999 49.8346638,14.786 50.404,14.786 C50.8520022,14.786 51.346664,14.8466661 51.888,14.968 L51.888,14.268 C51.888,13.8386645 51.7993342,13.5446675 51.622,13.386 C51.4446658,13.2273325 51.1180024,13.148 50.642,13.148 C49.8766628,13.148 49.0320046,13.2926652 48.108,13.582 L48.108,12.224 C48.4533351,12.0466658 48.8873307,11.9043339 49.41,11.797 C49.9326693,11.6896661 50.464664,11.636 51.006,11.636 C51.9673381,11.636 52.6696645,11.8296647 53.113,12.217 C53.5563356,12.6043353 53.778,13.2133292 53.778,14.044 L53.778,19 L52.168,19 Z M50.474,17.852 C50.7073345,17.852 50.9476654,17.8006672 51.195,17.698 C51.4423346,17.5953328 51.6733323,17.4553342 51.888,17.278 L51.888,16.06 C51.4773313,15.9946663 51.1086683,15.962 50.782,15.962 C49.9699959,15.962 49.564,16.2886634 49.564,16.942 C49.564,17.2313348 49.6433325,17.4553325 49.802,17.614 C49.9606675,17.7726675 50.1846652,17.852 50.474,17.852 Z M58.748,17.026 C58.748,16.8393324 58.6943339,16.6946672 58.587,16.592 C58.4796661,16.4893328 58.2626683,16.3773339 57.936,16.256 L56.844,15.822 C56.2746638,15.5979989 55.8640013,15.3226683 55.612,14.996 C55.3599987,14.6693317 55.234,14.2540025 55.234,13.75 C55.234,13.1153302 55.4883308,12.6043353 55.997,12.217 C56.5056692,11.8296647 57.1846624,11.636 58.034,11.636 C58.8180039,11.636 59.54133,11.7899985 60.204,12.098 L60.204,13.456 C59.4946631,13.2413323 58.8320031,13.134 58.216,13.134 C57.8333314,13.134 57.5533342,13.1806662 57.376,13.274 C57.1986658,13.3673338 57.11,13.5166656 57.11,13.722 C57.11,13.8806675 57.1636661,14.0089995 57.271,14.107 C57.3783339,14.2050005 57.6046649,14.3239993 57.95,14.464 L59.014,14.898 C59.5926696,15.1313345 60.0056654,15.4019985 60.253,15.71 C60.5003346,16.0180015 60.624,16.4193309 60.624,16.914 C60.624,17.6046701 60.360336,18.1623312 59.833,18.587 C59.305664,19.0116688 58.612671,19.224 57.754,19.224 C56.7926619,19.224 55.943337,19.0326686 55.206,18.65 L55.206,17.292 C56.1300046,17.5813348 56.9746628,17.726 57.74,17.726 C58.4120034,17.726 58.748,17.492669 58.748,17.026 Z M66.196,18.818 C65.6919975,19.014001 65.1273365,19.112 64.502,19.112 C63.7086627,19.112 63.1230019,18.9253352 62.745,18.552 C62.3669981,18.1786648 62.178,17.6000039 62.178,16.816 L62.178,13.358 L61.1,13.358 L61.1,12.098 L62.234,11.874 L62.542,9.914 L64.222,9.914 L64.222,11.846 L66.154,11.846 L66.154,13.358 L64.222,13.358 L64.222,16.718 C64.222,17.0166682 64.2966659,17.2266661 64.446,17.348 C64.5953341,17.4693339 64.8473316,17.53 65.202,17.53 C65.4913348,17.53 65.8226648,17.5020003 66.196,17.446 L66.196,18.818 Z M72.916,21.016 C72.2813302,20.1293289 71.7960017,19.1470054 71.46,18.069 C71.1239983,16.9909946 70.956,15.8780057 70.956,14.73 C70.956,13.5913276 71.1239983,12.4806721 71.46,11.398 C71.7960017,10.3153279 72.2813302,9.3306711 72.916,8.444 L74.862,8.444 C74.3019972,9.31200434 73.8703348,10.2873279 73.567,11.37 C73.2636651,12.4526721 73.112,13.5726609 73.112,14.73 C73.112,15.8873391 73.2636651,17.0073279 73.567,18.09 C73.8703348,19.1726721 74.3019972,20.1479957 74.862,21.016 L72.916,21.016 Z M78.054,14.142 C78.054,15.2433388 78.2733311,16.0833304 78.712,16.662 C79.1506689,17.2406696 79.7899958,17.53 80.63,17.53 C81.4700042,17.53 82.1093311,17.2406696 82.548,16.662 C82.9866689,16.0833304 83.206,15.2433388 83.206,14.142 C83.206,13.0406612 82.9866689,12.2030029 82.548,11.629 C82.1093311,11.0549971 81.4700042,10.768 80.63,10.768 C79.7899958,10.768 79.1506689,11.0549971 78.712,11.629 C78.2733311,12.2030029 78.054,13.0406612 78.054,14.142 Z M75.898,14.142 C75.898,13.1153282 76.0823315,12.2193372 76.451,11.454 C76.8196685,10.6886628 77.3609964,10.0983354 78.075,9.683 C78.7890036,9.26766459 79.6406617,9.06 80.63,9.06 C81.5913381,9.06 82.4266631,9.26066466 83.136,9.662 C83.8453369,10.0633353 84.3936647,10.6443295 84.781,11.405 C85.1683353,12.1656705 85.362,13.0779947 85.362,14.142 C85.362,15.1686718 85.1776685,16.0646628 84.809,16.83 C84.4403315,17.5953372 83.8990036,18.1879979 83.185,18.608 C82.4709964,19.0280021 81.6193383,19.238 80.63,19.238 C79.6686619,19.238 78.8333369,19.0373353 78.124,18.636 C77.4146631,18.2346647 76.8663353,17.6513372 76.479,16.886 C76.0916647,16.1206628 75.898,15.2060053 75.898,14.142 Z M91.774,19 L91.774,14.31 C91.774,13.9273314 91.6900008,13.6473342 91.522,13.47 C91.3539992,13.2926658 91.0973351,13.204 90.752,13.204 C90.2386641,13.204 89.7300025,13.3626651 89.226,13.68 L89.226,19 L87.182,19 L87.182,8.64 L89.226,8.64 L89.226,12.49 C90.0286707,11.9206638 90.8686623,11.636 91.746,11.636 C92.40867,11.636 92.9196649,11.8156649 93.279,12.175 C93.6383351,12.5343351 93.818,13.04533 93.818,13.708 L93.818,19 L91.774,19 Z M95.806,19 L95.806,11.846 L97.85,11.846 L97.85,19 L95.806,19 Z M96.828,10.74 C96.4733316,10.74 96.1886677,10.642001 95.974,10.446 C95.7593323,10.249999 95.652,9.98400168 95.652,9.648 C95.652,9.31199832 95.7593323,9.04600098 95.974,8.85 C96.1886677,8.65399902 96.4733316,8.556 96.828,8.556 C97.1826684,8.556 97.4673323,8.65399902 97.682,8.85 C97.8966677,9.04600098 98.004,9.31199832 98.004,9.648 C98.004,9.98400168 97.8966677,10.249999 97.682,10.446 C97.4673323,10.642001 97.1826684,10.74 96.828,10.74 Z M103.044,19.21 C101.933328,19.21 101.065336,18.8763367 100.44,18.209 C99.8146635,17.5416633 99.502,16.6106726 99.502,15.416 C99.502,14.2306607 99.8146635,13.3043367 100.44,12.637 C101.065336,11.9696633 101.933328,11.636 103.044,11.636 C104.154672,11.636 105.022664,11.9696633 105.648,12.637 C106.273336,13.3043367 106.586,14.2306607 106.586,15.416 C106.586,16.6106726 106.273336,17.5416633 105.648,18.209 C105.022664,18.8763367 104.154672,19.21 103.044,19.21 Z M103.044,17.642 C104.024005,17.642 104.514,16.9000074 104.514,15.416 C104.514,13.941326 104.024005,13.204 103.044,13.204 C102.063995,13.204 101.574,13.941326 101.574,15.416 C101.574,16.9000074 102.063995,17.642 103.044,17.642 Z M109.344,8.444 C109.97867,9.3306711 110.463998,10.3153279 110.8,11.398 C111.136002,12.4806721 111.304,13.5913276 111.304,14.73 C111.304,15.8780057 111.136002,16.9909946 110.8,18.069 C110.463998,19.1470054 109.97867,20.1293289 109.344,21.016 L107.398,21.016 C107.958003,20.1479957 108.389665,19.1726721 108.693,18.09 C108.996335,17.0073279 109.148,15.8873391 109.148,14.73 C109.148,13.5726609 108.996335,12.4526721 108.693,11.37 C108.389665,10.2873279 107.958003,9.31200434 107.398,8.444 L109.344,8.444 Z" id="Region-Name" fill="#000000"></path>
    </g>
</svg>