<?xml version="1.0" encoding="UTF-8"?>
<svg width="226px" height="27px" viewBox="0 0 226 27" version="1.1" xmlns="http://www.w3.org/2000/svg" xmlns:xlink="http://www.w3.org/1999/xlink">
    <!-- Generator: Sketch 52.6 (67491) - http://www.bohemiancoding.com/sketch -->
    <title>us-west-2</title>
    <desc>Created with Sketch.</desc>
    <defs>
        <linearGradient x1="50%" y1="0%" x2="50%" y2="100%" id="linearGradient-1">
            <stop stop-color="#FFE4B2" offset="0%"></stop>
            <stop stop-color="#F79800" offset="100%"></stop>
        </linearGradient>
        <linearGradient x1="45.0169613%" y1="100%" x2="68.0818257%" y2="3.3203125%" id="linearGradient-2">
            <stop stop-color="#151443" offset="0%"></stop>
            <stop stop-color="#6D80B2" offset="100%"></stop>
        </linearGradient>
    </defs>
    <g id="us-west-2" stroke="none" stroke-width="1" fill="none" fill-rule="evenodd">
        <path d="M1,4.99943992 L1,22.0005601 C1,24.2131329 2.78745893,26 4.99706666,26 L212.497605,26 C219.402703,26 225,20.4036174 225,13.5 C225,6.59542597 219.403112,1 212.497605,1 L4.99706666,1 C2.78936616,1 1,2.79033021 1,4.99943992 Z" id="CloudFormation-Launch-Stack-Button" stroke="#0058A5" stroke-width="2" fill="url(#linearGradient-1)"></path>
        <g id="Group" transform="translate(202.000000, 4.000000)">
            <circle id="Oval-1" fill="url(#linearGradient-2)" cx="9.5" cy="9.5" r="9.5"></circle>
            <polygon id="Triangle-1" fill="#FFFFFF" transform="translate(10.500000, 9.500000) rotate(90.000000) translate(-10.500000, -9.500000) " points="10.5 7 15 12 6 12"></polygon>
        </g>
        <path d="M23.972,9.298 L26.072,9.298 L26.072,15.444 C26.072,16.648006 25.7243368,17.58133 25.029,18.244 C24.3336632,18.90667 23.3466731,19.238 22.068,19.238 C20.7893269,19.238 19.8023368,18.9090033 19.107,18.251 C18.4116632,17.5929967 18.064,16.6526728 18.064,15.43 L18.064,9.298 L20.164,9.298 L20.164,15.528 C20.164,16.1813366 20.3273317,16.6783316 20.654,17.019 C20.9806683,17.3596684 21.4519969,17.53 22.068,17.53 C22.6840031,17.53 23.1553317,17.3596684 23.482,17.019 C23.8086683,16.6783316 23.972,16.1813366 23.972,15.528 L23.972,9.298 Z M30.146,14.758 C29.3153292,14.4499985 28.7180018,14.0743356 28.354,13.631 C27.9899982,13.1876644 27.808,12.6253367 27.808,11.944 C27.808,11.0666623 28.1323301,10.3666693 28.781,9.844 C29.4296699,9.32133072 30.2999945,9.06 31.392,9.06 C32.3066712,9.06 33.2026623,9.22799832 34.08,9.564 L34.08,11.16 C33.1746621,10.8799986 32.3346705,10.74 31.56,10.74 C30.4586612,10.74 29.908,11.0946631 29.908,11.804 C29.908,12.0653346 30.0036657,12.2799992 30.195,12.448 C30.3863343,12.6160008 30.7433307,12.7933324 31.266,12.98 L32.302,13.358 C33.1700043,13.6753349 33.7883315,14.0463312 34.157,14.471 C34.5256685,14.8956688 34.71,15.4486633 34.71,16.13 C34.71,17.0913381 34.3646701,17.8496639 33.674,18.405 C32.9833299,18.9603361 32.036006,19.238 30.832,19.238 C30.3093307,19.238 29.7866693,19.1890005 29.264,19.091 C28.7413307,18.9929995 28.2933352,18.8600008 27.92,18.692 L27.92,17.096 C28.386669,17.2360007 28.8859973,17.3479996 29.418,17.432 C29.9500027,17.5160004 30.4306645,17.558 30.86,17.558 C31.4106694,17.558 31.8353318,17.4576677 32.134,17.257 C32.4326682,17.0563323 32.582,16.7693352 32.582,16.396 C32.582,16.1066652 32.4910009,15.8780008 32.309,15.71 C32.1269991,15.5419992 31.7606694,15.3553344 31.21,15.15 L30.146,14.758 Z M47.184,19 L45.644,12.154 L44.16,19 L41.878,19 L39.19,9.298 L41.514,9.298 L43.054,16.718 L44.594,9.536 L46.806,9.536 L48.374,16.69 L49.886,9.298 L52.154,9.298 L49.48,19 L47.184,19 Z M54.506,15.92 C54.5433335,16.5360031 54.7299983,16.9816653 55.066,17.257 C55.4020017,17.5323347 55.9293297,17.67 56.648,17.67 C57.2733365,17.67 58.0013292,17.5533345 58.832,17.32 L58.832,18.678 C58.5053317,18.8460008 58.1156689,18.9766662 57.663,19.07 C57.2103311,19.1633338 56.7413358,19.21 56.256,19.21 C55.0706607,19.21 54.1676698,18.8880032 53.547,18.244 C52.9263302,17.5999968 52.616,16.6573395 52.616,15.416 C52.616,14.2213274 52.9239969,13.29267 53.54,12.63 C54.1560031,11.96733 55.0099945,11.636 56.102,11.636 C57.0260046,11.636 57.7376642,11.8903308 58.237,12.399 C58.7363358,12.9076692 58.986,13.6333286 58.986,14.576 C58.986,14.7813344 58.9720001,15.0146654 58.944,15.276 C58.9159999,15.5373346 58.8833335,15.7519992 58.846,15.92 L54.506,15.92 Z M56.032,13.05 C55.5746644,13.05 55.2130013,13.1876653 54.947,13.463 C54.6809987,13.7383347 54.5293335,14.1373307 54.492,14.66 L57.236,14.66 L57.236,14.422 C57.236,13.5073288 56.8346707,13.05 56.032,13.05 Z M63.592,17.026 C63.592,16.8393324 63.5383339,16.6946672 63.431,16.592 C63.3236661,16.4893328 63.1066683,16.3773339 62.78,16.256 L61.688,15.822 C61.1186638,15.5979989 60.7080013,15.3226683 60.456,14.996 C60.2039987,14.6693317 60.078,14.2540025 60.078,13.75 C60.078,13.1153302 60.3323308,12.6043353 60.841,12.217 C61.3496692,11.8296647 62.0286624,11.636 62.878,11.636 C63.6620039,11.636 64.38533,11.7899985 65.048,12.098 L65.048,13.456 C64.3386631,13.2413323 63.6760031,13.134 63.06,13.134 C62.6773314,13.134 62.3973342,13.1806662 62.22,13.274 C62.0426658,13.3673338 61.954,13.5166656 61.954,13.722 C61.954,13.8806675 62.0076661,14.0089995 62.115,14.107 C62.2223339,14.2050005 62.4486649,14.3239993 62.794,14.464 L63.858,14.898 C64.4366696,15.1313345 64.8496654,15.4019985 65.097,15.71 C65.3443346,16.0180015 65.468,16.4193309 65.468,16.914 C65.468,17.6046701 65.204336,18.1623312 64.677,18.587 C64.149664,19.0116688 63.456671,19.224 62.598,19.224 C61.6366619,19.224 60.787337,19.0326686 60.05,18.65 L60.05,17.292 C60.9740046,17.5813348 61.8186628,17.726 62.584,17.726 C63.2560034,17.726 63.592,17.492669 63.592,17.026 Z M71.04,18.818 C70.5359975,19.014001 69.9713365,19.112 69.346,19.112 C68.5526627,19.112 67.9670019,18.9253352 67.589,18.552 C67.2109981,18.1786648 67.022,17.6000039 67.022,16.816 L67.022,13.358 L65.944,13.358 L65.944,12.098 L67.078,11.874 L67.386,9.914 L69.066,9.914 L69.066,11.846 L70.998,11.846 L70.998,13.358 L69.066,13.358 L69.066,16.718 C69.066,17.0166682 69.1406659,17.2266661 69.29,17.348 C69.4393341,17.4693339 69.6913316,17.53 70.046,17.53 C70.3353348,17.53 70.6666648,17.5020003 71.04,17.446 L71.04,18.818 Z M77.76,21.016 C77.1253302,20.1293289 76.6400017,19.1470054 76.304,18.069 C75.9679983,16.9909946 75.8,15.8780057 75.8,14.73 C75.8,13.5913276 75.9679983,12.4806721 76.304,11.398 C76.6400017,10.3153279 77.1253302,9.3306711 77.76,8.444 L79.706,8.444 C79.1459972,9.31200434 78.7143349,10.2873279 78.411,11.37 C78.1076652,12.4526721 77.956,13.5726609 77.956,14.73 C77.956,15.8873391 78.1076652,17.0073279 78.411,18.09 C78.7143349,19.1726721 79.1459972,20.1479957 79.706,21.016 L77.76,21.016 Z M82.898,14.142 C82.898,15.2433388 83.1173311,16.0833304 83.556,16.662 C83.9946689,17.2406696 84.6339958,17.53 85.474,17.53 C86.3140042,17.53 86.9533311,17.2406696 87.392,16.662 C87.8306689,16.0833304 88.05,15.2433388 88.05,14.142 C88.05,13.0406612 87.8306689,12.2030029 87.392,11.629 C86.9533311,11.0549971 86.3140042,10.768 85.474,10.768 C84.6339958,10.768 83.9946689,11.0549971 83.556,11.629 C83.1173311,12.2030029 82.898,13.0406612 82.898,14.142 Z M80.742,14.142 C80.742,13.1153282 80.9263315,12.2193372 81.295,11.454 C81.6636685,10.6886628 82.2049964,10.0983354 82.919,9.683 C83.6330036,9.26766459 84.4846617,9.06 85.474,9.06 C86.4353381,9.06 87.2706631,9.26066466 87.98,9.662 C88.6893369,10.0633353 89.2376647,10.6443295 89.625,11.405 C90.0123353,12.1656705 90.206,13.0779947 90.206,14.142 C90.206,15.1686718 90.0216685,16.0646628 89.653,16.83 C89.2843315,17.5953372 88.7430036,18.1879979 88.029,18.608 C87.3149964,19.0280021 86.4633383,19.238 85.474,19.238 C84.5126619,19.238 83.6773369,19.0373353 82.968,18.636 C82.2586631,18.2346647 81.7103353,17.6513372 81.323,16.886 C80.9356647,16.1206628 80.742,15.2060053 80.742,14.142 Z M92.026,19 L92.026,11.846 L93.706,11.846 L93.958,12.91 C94.3313352,12.4993313 94.683665,12.2076675 95.015,12.035 C95.346335,11.8623325 95.6986648,11.776 96.072,11.776 C96.2493342,11.776 96.435999,11.7899999 96.632,11.818 L96.632,13.708 C96.3706654,13.6519997 96.0813349,13.624 95.764,13.624 C95.1573303,13.624 94.5926693,13.7313323 94.07,13.946 L94.07,19 L92.026,19 Z M99.222,15.92 C99.2593335,16.5360031 99.4459983,16.9816653 99.782,17.257 C100.118002,17.5323347 100.64533,17.67 101.364,17.67 C101.989336,17.67 102.717329,17.5533345 103.548,17.32 L103.548,18.678 C103.221332,18.8460008 102.831669,18.9766662 102.379,19.07 C101.926331,19.1633338 101.457336,19.21 100.972,19.21 C99.7866607,19.21 98.8836698,18.8880032 98.263,18.244 C97.6423302,17.5999968 97.332,16.6573395 97.332,15.416 C97.332,14.2213274 97.6399969,13.29267 98.256,12.63 C98.8720031,11.96733 99.7259945,11.636 100.818,11.636 C101.742005,11.636 102.453664,11.8903308 102.953,12.399 C103.452336,12.9076692 103.702,13.6333286 103.702,14.576 C103.702,14.7813344 103.688,15.0146654 103.66,15.276 C103.632,15.5373346 103.599334,15.7519992 103.562,15.92 L99.222,15.92 Z M100.748,13.05 C100.290664,13.05 99.9290013,13.1876653 99.663,13.463 C99.3969987,13.7383347 99.2453335,14.1373307 99.208,14.66 L101.952,14.66 L101.952,14.422 C101.952,13.5073288 101.550671,13.05 100.748,13.05 Z M109.638,18.132 C109.105997,18.6080024 108.48067,18.846 107.762,18.846 C106.893996,18.846 106.201003,18.5216699 105.683,17.873 C105.164997,17.2243301 104.906,16.3586721 104.906,15.276 C104.906,14.1746612 105.167331,13.29267 105.69,12.63 C106.212669,11.96733 106.912662,11.636 107.79,11.636 C108.182002,11.636 108.550665,11.7059993 108.896,11.846 C109.241335,11.9860007 109.549332,12.191332 109.82,12.462 L109.974,11.846 L111.654,11.846 L111.654,18.44 C111.654,19.5786724 111.33667,20.4653302 110.702,21.1 C110.06733,21.7346698 109.190006,22.052 108.07,22.052 C107.164662,22.052 106.306004,21.8513353 105.494,21.45 L105.494,20.078 C106.418005,20.3673348 107.215997,20.512 107.888,20.512 C108.504003,20.512 108.949665,20.3696681 109.225,20.085 C109.500335,19.8003319 109.638,19.3360032 109.638,18.692 L109.638,18.132 Z M108.392,17.334 C108.606668,17.334 108.823666,17.2990004 109.043,17.229 C109.262334,17.1589996 109.460666,17.0633339 109.638,16.942 L109.638,13.498 C109.255331,13.2646655 108.807336,13.148 108.294,13.148 C107.397996,13.148 106.95,13.8386598 106.95,15.22 C106.95,15.9386703 107.066665,16.4706649 107.3,16.816 C107.533334,17.1613351 107.897331,17.334 108.392,17.334 Z M116.792,19.21 C115.681328,19.21 114.813336,18.8763367 114.188,18.209 C113.562664,17.5416633 113.25,16.6106726 113.25,15.416 C113.25,14.2306607 113.562664,13.3043367 114.188,12.637 C114.813336,11.9696633 115.681328,11.636 116.792,11.636 C117.902672,11.636 118.770664,11.9696633 119.396,12.637 C120.021336,13.3043367 120.334,14.2306607 120.334,15.416 C120.334,16.6106726 120.021336,17.5416633 119.396,18.209 C118.770664,18.8763367 117.902672,19.21 116.792,19.21 Z M116.792,17.642 C117.772005,17.642 118.262,16.9000074 118.262,15.416 C118.262,13.941326 117.772005,13.204 116.792,13.204 C115.811995,13.204 115.322,13.941326 115.322,15.416 C115.322,16.9000074 115.811995,17.642 116.792,17.642 Z M126.522,19 L126.522,14.31 C126.522,13.9273314 126.438001,13.6473342 126.27,13.47 C126.101999,13.2926658 125.845335,13.204 125.5,13.204 C124.986664,13.204 124.478003,13.3626651 123.974,13.68 L123.974,19 L121.93,19 L121.93,11.846 L123.61,11.846 L123.806,12.616 C124.646004,11.9626634 125.541995,11.636 126.494,11.636 C127.15667,11.636 127.667665,11.8156649 128.027,12.175 C128.386335,12.5343351 128.566,13.04533 128.566,13.708 L128.566,19 L126.522,19 Z M131.66,8.444 C132.29467,9.3306711 132.779998,10.3153279 133.116,11.398 C133.452002,12.4806721 133.62,13.5913276 133.62,14.73 C133.62,15.8780057 133.452002,16.9909946 133.116,18.069 C132.779998,19.1470054 132.29467,20.1293289 131.66,21.016 L129.714,21.016 C130.274003,20.1479957 130.705665,19.1726721 131.009,18.09 C131.312335,17.0073279 131.464,15.8873391 131.464,14.73 C131.464,13.5726609 131.312335,12.4526721 131.009,11.37 C130.705665,10.2873279 130.274003,9.31200434 129.714,8.444 L131.66,8.444 Z" id="Region-Name" fill="#000000"></path>
    </g>
</svg>