<?xml version="1.0" encoding="UTF-8"?>
<svg width="226px" height="27px" viewBox="0 0 226 27" version="1.1" xmlns="http://www.w3.org/2000/svg" xmlns:xlink="http://www.w3.org/1999/xlink">
    <!-- Generator: Sketch 52.6 (67491) - http://www.bohemiancoding.com/sketch -->
    <title>us-west-1</title>
    <desc>Created with Sketch.</desc>
    <defs>
        <linearGradient x1="50%" y1="0%" x2="50%" y2="100%" id="linearGradient-1">
            <stop stop-color="#FFE4B2" offset="0%"></stop>
            <stop stop-color="#F79800" offset="100%"></stop>
        </linearGradient>
        <linearGradient x1="45.0169613%" y1="100%" x2="68.0818257%" y2="3.3203125%" id="linearGradient-2">
            <stop stop-color="#151443" offset="0%"></stop>
            <stop stop-color="#6D80B2" offset="100%"></stop>
        </linearGradient>
    </defs>
    <g id="us-west-1" stroke="none" stroke-width="1" fill="none" fill-rule="evenodd">
        <path d="M1,4.99943992 L1,22.0005601 C1,24.2131329 2.78745893,26 4.99706666,26 L212.497605,26 C219.402703,26 225,20.4036174 225,13.5 C225,6.59542597 219.403112,1 212.497605,1 L4.99706666,1 C2.78936616,1 1,2.79033021 1,4.99943992 Z" id="CloudFormation-Launch-Stack-Button" stroke="#0058A5" stroke-width="2" fill="url(#linearGradient-1)"></path>
        <g id="Group" transform="translate(202.000000, 4.000000)">
            <circle id="Oval-1" fill="url(#linearGradient-2)" cx="9.5" cy="9.5" r="9.5"></circle>
            <polygon id="Triangle-1" fill="#FFFFFF" transform="translate(10.500000, 9.500000) rotate(90.000000) translate(-10.500000, -9.500000) " points="10.5 7 15 12 6 12"></polygon>
        </g>
        <path d="M23.972,9.298 L26.072,9.298 L26.072,15.444 C26.072,16.648006 25.7243368,17.58133 25.029,18.244 C24.3336632,18.90667 23.3466731,19.238 22.068,19.238 C20.7893269,19.238 19.8023368,18.9090033 19.107,18.251 C18.4116632,17.5929967 18.064,16.6526728 18.064,15.43 L18.064,9.298 L20.164,9.298 L20.164,15.528 C20.164,16.1813366 20.3273317,16.6783316 20.654,17.019 C20.9806683,17.3596684 21.4519969,17.53 22.068,17.53 C22.6840031,17.53 23.1553317,17.3596684 23.482,17.019 C23.8086683,16.6783316 23.972,16.1813366 23.972,15.528 L23.972,9.298 Z M30.146,14.758 C29.3153292,14.4499985 28.7180018,14.0743356 28.354,13.631 C27.9899982,13.1876644 27.808,12.6253367 27.808,11.944 C27.808,11.0666623 28.1323301,10.3666693 28.781,9.844 C29.4296699,9.32133072 30.2999945,9.06 31.392,9.06 C32.3066712,9.06 33.2026623,9.22799832 34.08,9.564 L34.08,11.16 C33.1746621,10.8799986 32.3346705,10.74 31.56,10.74 C30.4586612,10.74 29.908,11.0946631 29.908,11.804 C29.908,12.0653346 30.0036657,12.2799992 30.195,12.448 C30.3863343,12.6160008 30.7433307,12.7933324 31.266,12.98 L32.302,13.358 C33.1700043,13.6753349 33.7883315,14.0463312 34.157,14.471 C34.5256685,14.8956688 34.71,15.4486633 34.71,16.13 C34.71,17.0913381 34.3646701,17.8496639 33.674,18.405 C32.9833299,18.9603361 32.036006,19.238 30.832,19.238 C30.3093307,19.238 29.7866693,19.1890005 29.264,19.091 C28.7413307,18.9929995 28.2933352,18.8600008 27.92,18.692 L27.92,17.096 C28.386669,17.2360007 28.8859973,17.3479996 29.418,17.432 C29.9500027,17.5160004 30.4306645,17.558 30.86,17.558 C31.4106694,17.558 31.8353318,17.4576677 32.134,17.257 C32.4326682,17.0563323 32.582,16.7693352 32.582,16.396 C32.582,16.1066652 32.4910009,15.8780008 32.309,15.71 C32.1269991,15.5419992 31.7606694,15.3553344 31.21,15.15 L30.146,14.758 Z M47.184,19 L45.644,12.154 L44.16,19 L41.878,19 L39.19,9.298 L41.514,9.298 L43.054,16.718 L44.594,9.536 L46.806,9.536 L48.374,16.69 L49.886,9.298 L52.154,9.298 L49.48,19 L47.184,19 Z M54.506,15.92 C54.5433335,16.5360031 54.7299983,16.9816653 55.066,17.257 C55.4020017,17.5323347 55.9293297,17.67 56.648,17.67 C57.2733365,17.67 58.0013292,17.5533345 58.832,17.32 L58.832,18.678 C58.5053317,18.8460008 58.1156689,18.9766662 57.663,19.07 C57.2103311,19.1633338 56.7413358,19.21 56.256,19.21 C55.0706607,19.21 54.1676698,18.8880032 53.547,18.244 C52.9263302,17.5999968 52.616,16.6573395 52.616,15.416 C52.616,14.2213274 52.9239969,13.29267 53.54,12.63 C54.1560031,11.96733 55.0099945,11.636 56.102,11.636 C57.0260046,11.636 57.7376642,11.8903308 58.237,12.399 C58.7363358,12.9076692 58.986,13.6333286 58.986,14.576 C58.986,14.7813344 58.9720001,15.0146654 58.944,15.276 C58.9159999,15.5373346 58.8833335,15.7519992 58.846,15.92 L54.506,15.92 Z M56.032,13.05 C55.5746644,13.05 55.2130013,13.1876653 54.947,13.463 C54.6809987,13.7383347 54.5293335,14.1373307 54.492,14.66 L57.236,14.66 L57.236,14.422 C57.236,13.5073288 56.8346707,13.05 56.032,13.05 Z M63.592,17.026 C63.592,16.8393324 63.5383339,16.6946672 63.431,16.592 C63.3236661,16.4893328 63.1066683,16.3773339 62.78,16.256 L61.688,15.822 C61.1186638,15.5979989 60.7080013,15.3226683 60.456,14.996 C60.2039987,14.6693317 60.078,14.2540025 60.078,13.75 C60.078,13.1153302 60.3323308,12.6043353 60.841,12.217 C61.3496692,11.8296647 62.0286624,11.636 62.878,11.636 C63.6620039,11.636 64.38533,11.7899985 65.048,12.098 L65.048,13.456 C64.3386631,13.2413323 63.6760031,13.134 63.06,13.134 C62.6773314,13.134 62.3973342,13.1806662 62.22,13.274 C62.0426658,13.3673338 61.954,13.5166656 61.954,13.722 C61.954,13.8806675 62.0076661,14.0089995 62.115,14.107 C62.2223339,14.2050005 62.4486649,14.3239993 62.794,14.464 L63.858,14.898 C64.4366696,15.1313345 64.8496654,15.4019985 65.097,15.71 C65.3443346,16.0180015 65.468,16.4193309 65.468,16.914 C65.468,17.6046701 65.204336,18.1623312 64.677,18.587 C64.149664,19.0116688 63.456671,19.224 62.598,19.224 C61.6366619,19.224 60.787337,19.0326686 60.05,18.65 L60.05,17.292 C60.9740046,17.5813348 61.8186628,17.726 62.584,17.726 C63.2560034,17.726 63.592,17.492669 63.592,17.026 Z M71.04,18.818 C70.5359975,19.014001 69.9713365,19.112 69.346,19.112 C68.5526627,19.112 67.9670019,18.9253352 67.589,18.552 C67.2109981,18.1786648 67.022,17.6000039 67.022,16.816 L67.022,13.358 L65.944,13.358 L65.944,12.098 L67.078,11.874 L67.386,9.914 L69.066,9.914 L69.066,11.846 L70.998,11.846 L70.998,13.358 L69.066,13.358 L69.066,16.718 C69.066,17.0166682 69.1406659,17.2266661 69.29,17.348 C69.4393341,17.4693339 69.6913316,17.53 70.046,17.53 C70.3353348,17.53 70.6666648,17.5020003 71.04,17.446 L71.04,18.818 Z M77.76,21.016 C77.1253302,20.1293289 76.6400017,19.1470054 76.304,18.069 C75.9679983,16.9909946 75.8,15.8780057 75.8,14.73 C75.8,13.5913276 75.9679983,12.4806721 76.304,11.398 C76.6400017,10.3153279 77.1253302,9.3306711 77.76,8.444 L79.706,8.444 C79.1459972,9.31200434 78.7143349,10.2873279 78.411,11.37 C78.1076652,12.4526721 77.956,13.5726609 77.956,14.73 C77.956,15.8873391 78.1076652,17.0073279 78.411,18.09 C78.7143349,19.1726721 79.1459972,20.1479957 79.706,21.016 L77.76,21.016 Z M82.87,12.266 L82.87,19 L81.022,19 L81.022,9.298 L83.262,9.298 L87.21,16.088 L87.21,9.298 L89.058,9.298 L89.058,19 L86.818,19 L82.87,12.266 Z M92.166,19.182 C91.7926648,19.182 91.4893345,19.0653345 91.256,18.832 C91.0226655,18.5986655 90.906,18.2953352 90.906,17.922 C90.906,17.5486648 91.0226655,17.2453345 91.256,17.012 C91.4893345,16.7786655 91.7926648,16.662 92.166,16.662 C92.5393352,16.662 92.8426655,16.7786655 93.076,17.012 C93.3093345,17.2453345 93.426,17.5486648 93.426,17.922 C93.426,18.2953352 93.3093345,18.5986655 93.076,18.832 C92.8426655,19.0653345 92.5393352,19.182 92.166,19.182 Z M105.998,18.748 C105.241996,19.0373348 104.397338,19.182 103.464,19.182 C101.886659,19.182 100.692004,18.7596709 99.88,17.915 C99.0679959,17.0703291 98.662,15.8313415 98.662,14.198 C98.662,12.5833253 99.0866624,11.3326711 99.936,10.446 C100.785338,9.5593289 101.979992,9.116 103.52,9.116 C104.341337,9.116 105.120663,9.24666536 105.858,9.508 L105.858,11.16 C105.008662,10.9733324 104.313336,10.88 103.772,10.88 C102.801328,10.88 102.075669,11.1366641 101.595,11.65 C101.114331,12.1633359 100.874,12.9473281 100.874,14.002 L100.874,14.324 C100.874,15.3693386 101.107331,16.1463308 101.574,16.655 C102.040669,17.1636692 102.754662,17.418 103.716,17.418 C104.257336,17.418 105.017995,17.3106677 105.998,17.096 L105.998,18.748 Z M111.514,19 L111.346,18.37 C111.056665,18.6313346 110.723002,18.8389992 110.345,18.993 C109.966998,19.1470008 109.600668,19.224 109.246,19.224 C108.55533,19.224 108.002335,19.028002 107.587,18.636 C107.171665,18.243998 106.964,17.7213366 106.964,17.068 C106.964,16.6199978 107.075999,16.2256684 107.3,15.885 C107.524001,15.5443316 107.845998,15.276001 108.266,15.08 C108.686002,14.883999 109.180664,14.786 109.75,14.786 C110.198002,14.786 110.692664,14.8466661 111.234,14.968 L111.234,14.268 C111.234,13.8386645 111.145334,13.5446675 110.968,13.386 C110.790666,13.2273325 110.464002,13.148 109.988,13.148 C109.222663,13.148 108.378005,13.2926652 107.454,13.582 L107.454,12.224 C107.799335,12.0466658 108.233331,11.9043339 108.756,11.797 C109.278669,11.6896661 109.810664,11.636 110.352,11.636 C111.313338,11.636 112.015664,11.8296647 112.459,12.217 C112.902336,12.6043353 113.124,13.2133292 113.124,14.044 L113.124,19 L111.514,19 Z M109.82,17.852 C110.053335,17.852 110.293665,17.8006672 110.541,17.698 C110.788335,17.5953328 111.019332,17.4553342 111.234,17.278 L111.234,16.06 C110.823331,15.9946663 110.454668,15.962 110.128,15.962 C109.315996,15.962 108.91,16.2886634 108.91,16.942 C108.91,17.2313348 108.989333,17.4553325 109.148,17.614 C109.306667,17.7726675 109.530665,17.852 109.82,17.852 Z M118.206,18.86 C117.813998,19.0186675 117.394002,19.098 116.946,19.098 C115.685994,19.098 115.056,18.3933404 115.056,16.984 L115.056,8.64 L117.1,8.64 L117.1,16.816 C117.1,17.0773346 117.144333,17.2616661 117.233,17.369 C117.321667,17.4763339 117.468666,17.53 117.674,17.53 C117.804667,17.53 117.981999,17.5160001 118.206,17.488 L118.206,18.86 Z M119.662,19 L119.662,11.846 L121.706,11.846 L121.706,19 L119.662,19 Z M120.684,10.74 C120.329332,10.74 120.044668,10.642001 119.83,10.446 C119.615332,10.249999 119.508,9.98400168 119.508,9.648 C119.508,9.31199832 119.615332,9.04600098 119.83,8.85 C120.044668,8.65399902 120.329332,8.556 120.684,8.556 C121.038668,8.556 121.323332,8.65399902 121.538,8.85 C121.752668,9.04600098 121.86,9.31199832 121.86,9.648 C121.86,9.98400168 121.752668,10.249999 121.538,10.446 C121.323332,10.642001 121.038668,10.74 120.684,10.74 Z M124.072,19 L124.072,13.358 L122.938,13.358 L122.938,12.098 L124.072,11.888 L124.072,11.244 C124.072,10.3013286 124.288998,9.59900231 124.723,9.137 C125.157002,8.67499769 125.817329,8.444 126.704,8.444 C126.956001,8.444 127.217332,8.46966641 127.488,8.521 C127.758668,8.57233359 127.996666,8.63999958 128.202,8.724 L128.202,10.11 C127.828665,10.0539997 127.511335,10.026 127.25,10.026 C126.820665,10.026 126.524334,10.0959993 126.361,10.236 C126.197666,10.3760007 126.116,10.6233316 126.116,10.978 L126.116,11.846 L128.118,11.846 L128.118,13.358 L126.116,13.358 L126.116,19 L124.072,19 Z M132.332,19.21 C131.221328,19.21 130.353336,18.8763367 129.728,18.209 C129.102664,17.5416633 128.79,16.6106726 128.79,15.416 C128.79,14.2306607 129.102664,13.3043367 129.728,12.637 C130.353336,11.9696633 131.221328,11.636 132.332,11.636 C133.442672,11.636 134.310664,11.9696633 134.936,12.637 C135.561336,13.3043367 135.874,14.2306607 135.874,15.416 C135.874,16.6106726 135.561336,17.5416633 134.936,18.209 C134.310664,18.8763367 133.442672,19.21 132.332,19.21 Z M132.332,17.642 C133.312005,17.642 133.802,16.9000074 133.802,15.416 C133.802,13.941326 133.312005,13.204 132.332,13.204 C131.351995,13.204 130.862,13.941326 130.862,15.416 C130.862,16.9000074 131.351995,17.642 132.332,17.642 Z M137.47,19 L137.47,11.846 L139.15,11.846 L139.402,12.91 C139.775335,12.4993313 140.127665,12.2076675 140.459,12.035 C140.790335,11.8623325 141.142665,11.776 141.516,11.776 C141.693334,11.776 141.879999,11.7899999 142.076,11.818 L142.076,13.708 C141.814665,13.6519997 141.525335,13.624 141.208,13.624 C140.60133,13.624 140.036669,13.7313323 139.514,13.946 L139.514,19 L137.47,19 Z M147.732,19 L147.732,14.31 C147.732,13.9273314 147.648001,13.6473342 147.48,13.47 C147.311999,13.2926658 147.055335,13.204 146.71,13.204 C146.196664,13.204 145.688003,13.3626651 145.184,13.68 L145.184,19 L143.14,19 L143.14,11.846 L144.82,11.846 L145.016,12.616 C145.856004,11.9626634 146.751995,11.636 147.704,11.636 C148.36667,11.636 148.877665,11.8156649 149.237,12.175 C149.596335,12.5343351 149.776,13.04533 149.776,13.708 L149.776,19 L147.732,19 Z M151.764,19 L151.764,11.846 L153.808,11.846 L153.808,19 L151.764,19 Z M152.786,10.74 C152.431332,10.74 152.146668,10.642001 151.932,10.446 C151.717332,10.249999 151.61,9.98400168 151.61,9.648 C151.61,9.31199832 151.717332,9.04600098 151.932,8.85 C152.146668,8.65399902 152.431332,8.556 152.786,8.556 C153.140668,8.556 153.425332,8.65399902 153.64,8.85 C153.854668,9.04600098 153.962,9.31199832 153.962,9.648 C153.962,9.98400168 153.854668,10.249999 153.64,10.446 C153.425332,10.642001 153.140668,10.74 152.786,10.74 Z M159.926,19 L159.758,18.37 C159.468665,18.6313346 159.135002,18.8389992 158.757,18.993 C158.378998,19.1470008 158.012668,19.224 157.658,19.224 C156.96733,19.224 156.414335,19.028002 155.999,18.636 C155.583665,18.243998 155.376,17.7213366 155.376,17.068 C155.376,16.6199978 155.487999,16.2256684 155.712,15.885 C155.936001,15.5443316 156.257998,15.276001 156.678,15.08 C157.098002,14.883999 157.592664,14.786 158.162,14.786 C158.610002,14.786 159.104664,14.8466661 159.646,14.968 L159.646,14.268 C159.646,13.8386645 159.557334,13.5446675 159.38,13.386 C159.202666,13.2273325 158.876002,13.148 158.4,13.148 C157.634663,13.148 156.790005,13.2926652 155.866,13.582 L155.866,12.224 C156.211335,12.0466658 156.645331,11.9043339 157.168,11.797 C157.690669,11.6896661 158.222664,11.636 158.764,11.636 C159.725338,11.636 160.427664,11.8296647 160.871,12.217 C161.314336,12.6043353 161.536,13.2133292 161.536,14.044 L161.536,19 L159.926,19 Z M158.232,17.852 C158.465335,17.852 158.705665,17.8006672 158.953,17.698 C159.200335,17.5953328 159.431332,17.4553342 159.646,17.278 L159.646,16.06 C159.235331,15.9946663 158.866668,15.962 158.54,15.962 C157.727996,15.962 157.322,16.2886634 157.322,16.942 C157.322,17.2313348 157.401333,17.4553325 157.56,17.614 C157.718667,17.7726675 157.942665,17.852 158.232,17.852 Z M164.63,8.444 C165.26467,9.3306711 165.749998,10.3153279 166.086,11.398 C166.422002,12.4806721 166.59,13.5913276 166.59,14.73 C166.59,15.8780057 166.422002,16.9909946 166.086,18.069 C165.749998,19.1470054 165.26467,20.1293289 164.63,21.016 L162.684,21.016 C163.244003,20.1479957 163.675665,19.1726721 163.979,18.09 C164.282335,17.0073279 164.434,15.8873391 164.434,14.73 C164.434,13.5726609 164.282335,12.4526721 163.979,11.37 C163.675665,10.2873279 163.244003,9.31200434 162.684,8.444 L164.63,8.444 Z" id="Region-Name" fill="#000000"></path>
    </g>
</svg>